<svg xmlns="http://www.w3.org/2000/svg"
shape-rendering="geometricPrecision"
width="4000" height="4000" viewBox="0 0 778 778">
  <metadata>null</metadata>

<path d="
M 34.942 420.099
C 35.971 414.956 40.163 412.182 45.205 411.901
C 46.314 409.386 47.447 407.205 49.778 405.585
C 53.831 402.767 59.641 404.191 62.48 408.033
C 63.588 409.531 64.279 411.374 64.593 413.207
C 64.723 413.965 64.428 415.41 64.985 415.888
C 72.293 417.377 77.269 425.735 71.136 431.769
C 69.727 433.156 67.922 434.272 65.973 434.672
C 64.744 434.925 63.054 434.767 61.965 435.301
C 60.279 438.184 58.425 440.83 55.137 441.994
C 48.891 444.206 43.079 438.554 42.967 432.481
C 38.47 429.439 34.321 426.16 34.942 420.099 Z
M 39.424 420.586
C 39.205 424.427 42.635 428.266 46.522 428.379
C 47.547 428.408 49.156 426.935 49.928 427.254
C 50.19 427.363 49.16 428.365 49.115 428.417
C 48.578 429.043 48.128 429.776 47.917 430.58
C 47.268 433.053 48.122 436.214 50.684 437.227
C 54.371 438.685 58.167 434.427 58.707 431.092
C 58.884 430.006 58.202 429.065 58.137 428.021
C 59.159 428.671 60.286 430.127 61.515 430.248
C 65.649 430.653 72.139 427.422 68.347 422.656
C 65.85 419.517 62.422 420.046 58.996 419.129
C 59.678 417.592 60.259 416.348 60.152 414.631
C 60.009 412.321 58.464 409.481 56.055 408.894
C 52.478 408.023 48.495 411.902 49.399 415.57
C 49.715 416.85 51.021 418.192 51.765 419.258
C 50.855 419.351 49.609 417.333 48.754 416.888
C 45.476 415.185 40.5 417.085 39.424 420.586 Z"
opacity="1" fill="rgb(100,78,66)" fill-rule="evenodd" />
<path d="
M 35.35 370.064
C 36.434 366.105 39.267 365.398 42.091 363.052
C 43.6 361.799 44.431 359.892 45.84 358.528
C 47.086 357.322 48.895 356.685 49.986 355.354
C 51.884 353.039 53.02 349.2 56.1 348.064
C 57.33 347.61 58.883 347.899 60.13 348.133
C 66.842 349.392 74.322 357.138 70.629 364.315
C 69.793 365.939 67.968 367.946 66.307 368.739
C 65.548 369.101 64.717 368.946 63.961 369.294
C 61.684 372.27 58.598 374.237 56.214 377.066
C 54.203 379.452 53.512 382.488 50.307 383.664
C 42.29 386.606 33.554 378.126 35.35 370.064 Z
M 39.326 371.058
C 38.992 374.59 42.577 377.777 45.309 379.519
C 47.129 380.68 49.849 380.266 50.693 378.063
C 50.867 376.736 48.504 376.175 48.529 374.745
C 50.006 373.431 51.438 375.134 53.065 374.832
C 54.566 374.2 55.001 372.227 55.69 370.948
C 57.751 369.457 60.33 368.324 61.282 365.753
C 61.688 364.028 59.37 363.673 61.498 362.42
C 61.694 362.305 61.905 362.215 62.108 362.113
C 62.49 362.829 62.842 363.514 63.304 364.186
C 65.14 364.799 67.625 362.261 67.457 360.504
C 67.014 355.835 59.277 350.296 55.546 354.202
C 55.758 355.119 56.708 355.639 57.175 356.462
C 57.269 357.192 57.11 357.698 56.863 358.371
C 55.488 358.606 54.351 357.47 53.016 357.365
C 51.655 358.524 50.876 360.321 49.61 361.603
C 48.045 363.188 46.166 364.3 44.933 366.206
C 44.634 367.37 45.774 367.747 46.005 368.784
C 45.448 369.38 44.643 369.965 43.839 370.155
C 43.317 369.633 42.927 368.728 42.486 368.108
C 40.845 368.25 39.848 369.604 39.326 371.058 Z"
opacity="1" fill="rgb(100,71,60)" fill-rule="evenodd" />
<path d="
M 39.326 371.058
C 39.848 369.604 40.845 368.25 42.486 368.108
C 42.927 368.728 43.317 369.633 43.839 370.155
C 44.643 369.965 45.448 369.38 46.005 368.784
C 45.774 367.747 44.634 367.37 44.933 366.206
C 46.166 364.3 48.045 363.188 49.61 361.603
C 50.876 360.321 51.655 358.524 53.016 357.365
C 54.351 357.47 55.488 358.606 56.863 358.371
C 57.11 357.698 57.269 357.192 57.175 356.462
C 56.708 355.639 55.758 355.119 55.546 354.202
C 59.277 350.296 67.014 355.835 67.457 360.504
C 67.625 362.261 65.14 364.799 63.304 364.186
C 62.842 363.514 62.49 362.829 62.108 362.113
C 61.905 362.215 61.694 362.305 61.498 362.42
C 59.37 363.673 61.688 364.028 61.282 365.753
C 60.33 368.324 57.751 369.457 55.69 370.948
C 55.001 372.227 54.566 374.2 53.065 374.832
C 51.438 375.134 50.006 373.431 48.529 374.745
C 48.504 376.175 50.867 376.736 50.693 378.063
C 49.849 380.266 47.129 380.68 45.309 379.519
C 42.577 377.777 38.992 374.59 39.326 371.058 Z"
opacity="1" fill="rgb(237,179,185)" fill-rule="evenodd" />
<path d="
M 39.424 420.586
C 40.5 417.085 45.476 415.185 48.754 416.888
C 49.609 417.333 50.855 419.351 51.765 419.258
C 51.021 418.192 49.715 416.85 49.399 415.57
C 48.495 411.902 52.478 408.023 56.055 408.894
C 58.464 409.481 60.009 412.321 60.152 414.631
C 60.259 416.348 59.678 417.592 58.996 419.129
C 62.422 420.046 65.85 419.517 68.347 422.656
C 72.139 427.422 65.649 430.653 61.515 430.248
C 60.286 430.127 59.159 428.671 58.137 428.021
C 58.202 429.065 58.884 430.006 58.707 431.092
C 58.167 434.427 54.371 438.685 50.684 437.227
C 48.122 436.214 47.268 433.053 47.917 430.58
C 48.128 429.776 48.578 429.043 49.115 428.417
C 49.16 428.365 50.19 427.363 49.928 427.254
C 49.156 426.935 47.547 428.408 46.522 428.379
C 42.635 428.266 39.205 424.427 39.424 420.586 Z"
opacity="1" fill="rgb(113,185,198)" fill-rule="evenodd" />
<path d="
M 45.853 327.059
C 46.816 323.248 49.59 322.347 52.293 320.097
C 53.773 318.866 54.977 317.303 56.342 315.949
C 57.706 314.596 59.312 313.453 60.523 311.954
C 62.496 309.511 63.611 306.683 66.945 305.81
C 74.671 303.788 82.897 311.656 81.126 319.455
C 80.697 321.347 79.54 323.4 77.847 324.439
C 76.695 325.146 75.142 325.313 74.116 326.185
C 72.883 327.235 72.12 328.793 70.951 329.922
C 69.526 331.299 67.663 332.097 66.456 333.713
C 64.243 336.674 62.993 339.945 58.9 340.726
C 52.22 342 44.171 333.717 45.853 327.059 Z
M 49.836 328.054
C 49.609 331.355 53.533 334.897 56.391 335.927
C 58.327 336.625 61.252 335.851 61.457 333.435
C 61.114 332.295 59.999 331.825 59.341 330.91
C 59.635 330.475 62.265 330.804 62.943 330.711
C 64.766 330.049 65.577 328.577 65.795 326.746
C 66.491 326.806 67.19 326.876 67.878 326.723
C 68.846 326.061 70.367 324.565 70.605 323.385
C 70.863 322.11 70.357 320.866 71.383 319.834
C 72.497 319.985 72.948 321.145 74.041 321.38
C 76.529 321.361 77.488 318.762 76.903 316.657
C 76.176 314.037 72.866 310.961 70.311 310.047
C 68.219 309.299 66.088 310.198 65.71 312.485
C 65.958 313.699 66.952 314.465 67.434 315.571
C 66.332 316.218 64.617 314.74 63.513 314.77
C 62.695 315.643 62.042 316.67 61.197 317.512
C 59.336 319.369 57.13 320.621 55.697 322.926
C 55.815 323.921 56.962 324.63 56.915 325.643
C 56.82 326.049 56.543 326.181 56.157 326.305
C 54.852 326.108 54.144 324.977 53.001 324.642
C 51.42 325.053 50.345 326.571 49.836 328.054 Z"
opacity="1" fill="rgb(102,73,64)" fill-rule="evenodd" />
<path d="
M 49.836 328.054
C 50.345 326.571 51.42 325.053 53.001 324.642
C 54.144 324.977 54.852 326.108 56.157 326.305
C 56.543 326.181 56.82 326.049 56.915 325.643
C 56.962 324.63 55.815 323.921 55.697 322.926
C 57.13 320.621 59.336 319.369 61.197 317.512
C 62.042 316.67 62.695 315.643 63.513 314.77
C 64.617 314.74 66.332 316.218 67.434 315.571
C 66.952 314.465 65.958 313.699 65.71 312.485
C 66.088 310.198 68.219 309.299 70.311 310.047
C 72.866 310.961 76.176 314.037 76.903 316.657
C 77.488 318.762 76.529 321.361 74.041 321.38
C 72.948 321.145 72.497 319.985 71.383 319.834
C 70.357 320.866 70.863 322.11 70.605 323.385
C 70.367 324.565 68.846 326.061 67.878 326.723
C 67.19 326.876 66.491 326.806 65.795 326.746
C 65.577 328.577 64.766 330.049 62.943 330.711
C 62.265 330.804 59.635 330.475 59.341 330.91
C 59.999 331.825 61.114 332.295 61.457 333.435
C 61.252 335.851 58.327 336.625 56.391 335.927
C 53.533 334.897 49.609 331.355 49.836 328.054 Z"
opacity="1" fill="rgb(236,180,184)" fill-rule="evenodd" />
<path d="
M 54.895 461.604
C 56.29 452.377 67.535 447.079 75.866 446.249
C 78.583 445.978 81.8 445.888 84.376 446.947
C 87.323 448.158 89.924 450.65 92.351 452.662
C 93.262 453.417 94.392 454.665 95.557 454.964
C 96.128 453.968 96.245 452.457 96.475 451.338
C 96.877 449.387 97.461 447.463 97.943 445.529
C 99.431 439.557 101.611 433.762 103.135 427.802
C 102.633 426.923 100.235 426.113 99.295 425.575
C 96.488 423.969 93.779 422.227 91.224 420.238
C 83.174 413.972 78.235 404.615 77.462 394.499
C 77.065 389.299 78.662 383.183 80.943 378.542
C 81.727 376.948 82.933 375.459 83.534 373.79
C 84.219 371.89 84.031 369.481 84.371 367.479
C 85.098 363.21 85.97 358.85 86.993 354.642
C 87.7 351.732 88.398 348.76 89.343 345.917
C 89.815 344.498 90.498 343.035 92.054 342.573
C 94.311 341.903 96.174 343.208 97.562 344.865
C 100.777 348.704 103.867 353.307 106.192 357.741
C 106.748 357.955 107.408 357.368 107.914 357.11
C 109.305 356.401 110.723 355.857 112.17 355.285
C 116.647 353.515 121.693 352.717 126.499 352.744
C 131.215 352.77 136.205 353.607 140.621 355.29
C 141.823 355.748 143.125 356.18 144.256 356.788
C 144.556 356.949 145.267 357.481 145.6 357.272
C 147.888 353.01 150.634 348.37 153.594 344.536
C 154.905 342.839 156.66 341.334 158.962 341.774
C 160.582 342.083 161.641 343.647 162.256 345.054
C 163.435 347.75 164.25 350.665 164.962 353.515
C 165.976 357.572 166.959 361.617 167.608 365.752
C 167.959 367.985 167.701 370.819 168.501 372.918
C 169.169 374.672 170.817 376.054 171.709 377.716
C 174.316 382.576 175.889 387.762 175.695 393.297
C 175.309 404.35 169.374 414.227 160.661 420.801
C 157.247 423.376 152.68 425.002 149.576 427.852
C 148.488 430.85 148.794 434.798 148.542 437.967
C 147.993 444.87 147.506 451.847 147.369 458.776
C 147.304 462.053 147.988 465.619 147.008 468.812
C 145.094 475.051 135.278 476.623 130.978 472.07
C 129.81 472.437 128.854 473.379 127.644 473.779
C 124.158 474.933 120.879 474.144 117.555 473.108
C 112.036 474.301 106.749 474.544 101.074 474.437
C 97.944 474.378 94.807 474.502 91.825 473.385
C 86.457 471.372 82.565 465.647 76.604 465.285
C 74.799 465.175 72.433 465.332 71.113 466.749
C 70.33 467.59 70.327 468.839 69.804 469.828
C 68.81 471.711 66.102 472.709 64.076 472.591
C 58.333 472.255 54.488 467.213 54.895 461.604 Z
M 59.838 461.031
C 59.091 463.923 60.397 466.982 63.504 467.466
C 64.074 467.555 64.61 467.726 65.143 467.445
C 66.295 465.822 66.903 463.888 68.567 462.673
C 69.742 461.816 71.168 461.34 72.57 461.008
C 74.831 460.473 77.658 460.019 79.926 460.739
C 85.089 462.377 88.984 467.342 94.098 468.922
C 96.416 469.638 99.108 469.429 101.505 469.43
C 105.715 469.432 110.087 469.511 114.244 468.785
C 113.599 460.714 113.586 452.598 113.61 444.5
C 113.617 442.212 112.699 437.227 115.941 436.877
C 119.849 437.655 118.65 442.167 118.641 445.12
C 118.624 450.733 118.65 456.346 118.608 461.959
C 118.589 464.558 118.234 467.348 120.683 468.985
C 122.8 470.401 126.903 469.984 127.776 467.279
C 128.28 465.716 128.082 463.874 128.077 462.255
C 128.065 458.892 127.903 455.541 127.879 452.181
C 127.857 449.12 127.871 446.059 127.871 442.999
C 127.872 441.375 127.667 439.539 128.248 438
C 129.509 436.424 132.257 436.397 133.037 438.523
C 133.539 439.891 133.233 441.661 133.227 443.091
C 133.206 448.059 133.232 453.029 133.224 457.997
C 133.22 460.636 132.906 463.476 133.32 466.088
C 133.815 469.211 137.313 470.834 140.141 469.426
C 143.851 467.58 142.219 461.41 142.436 457.995
C 143.106 447.45 142.68 436.362 145.059 426.009
C 145.852 422.555 150.388 421.508 153.078 419.784
C 158.492 416.313 163.486 412.225 166.732 406.569
C 170.793 399.491 171.853 390.814 168.637 383.219
C 167.864 381.391 167.037 379.514 165.992 377.824
C 165.214 376.565 164.002 375.317 163.502 373.918
C 162.646 371.524 162.826 368.45 162.382 365.935
C 161.331 359.985 159.951 353.515 157.857 347.849
C 156.522 348.237 155.375 350.631 154.707 351.813
C 153.149 354.564 151.577 357.369 149.93 360.067
C 149.304 361.094 148.527 362.558 147.398 363.081
C 146.342 363.286 145.248 362.63 144.321 362.185
C 142.376 361.249 140.418 360.308 138.398 359.542
C 134.188 357.944 129.205 357.512 124.743 357.698
C 119.901 357.901 115.258 358.992 110.871 361.058
C 109.136 361.874 106.636 364.214 104.599 363.485
C 103.131 362.959 102.406 361.152 101.696 359.906
C 100.043 357.003 98.321 354.145 96.454 351.373
C 95.853 350.481 95.032 348.661 94.006 348.263
C 92.326 354.181 90.88 360.086 89.813 366.153
C 89.446 368.24 89.073 370.375 88.859 372.481
C 88.768 373.365 88.938 374.411 88.613 375.257
C 87.983 376.896 86.496 378.299 85.751 379.937
C 82.887 386.233 81.516 392.916 83.3 399.723
C 85.359 407.582 90.693 414.018 97.541 418.243
C 99.583 419.502 101.658 420.673 103.787 421.779
C 105.12 422.471 106.805 423.011 107.803 424.194
C 109.565 426.281 107.605 430.957 106.837 433.141
C 104.723 439.153 103.246 445.425 101.43 451.533
C 100.644 454.178 100.165 457.397 98.506 459.675
C 96.894 461.887 94.876 461.33 92.936 459.912
C 89.478 457.385 86.765 453.63 82.906 451.651
C 81.047 450.697 78.41 451.089 76.408 451.268
C 70.095 451.834 62.999 455.363 59.838 461.031 Z"
opacity="1" fill="rgb(105,79,66)" fill-rule="evenodd" />
<path d="
M 91.394 390.59
C 92.46 383.277 104.682 383.991 103.21 391.903
C 101.961 398.612 90.383 397.528 91.394 390.59 Z"
opacity="1" fill="rgb(229,170,178)" fill-rule="evenodd" />
<path d="
M 106.346 380.06
C 107.242 376.667 111.299 374.992 113.943 377.727
C 115.521 379.36 115.652 381.963 115.126 384.065
C 114.247 387.575 110.416 389.027 107.679 386.31
C 106.12 384.763 105.804 382.113 106.346 380.06 Z"
opacity="1" fill="rgb(106,76,62)" fill-rule="evenodd" />
<path d="
M 108.949 312.607
C 109.677 307.143 114.135 303.74 119.621 304.24
C 121.121 304.377 123.406 306.092 124.731 305.692
C 130.144 302.696 137.791 301.135 141.157 308.047
C 141.63 309.019 142.02 310.066 142.149 311.146
C 142.534 314.35 141.227 316.662 140.362 319.576
C 140.965 321.622 142.294 323.112 142.572 325.374
C 143.255 330.932 139.314 335.581 133.818 336.261
C 132.282 336.451 130.679 336.342 129.179 335.964
C 128.14 335.703 127.018 335.092 125.959 335.195
C 123.65 336.218 121.656 337.265 119.044 337.206
C 117.772 337.177 116.502 336.93 115.329 336.44
C 108.742 333.687 108.608 326.534 111.164 320.907
C 111.148 320.031 110.27 319.227 109.927 318.436
C 109.144 316.629 108.816 314.567 108.949 312.607 Z
M 113.816 311.517
C 113.179 314.104 113.96 317.638 116.129 319.361
C 116.854 319.937 118.321 320.096 118.825 320.78
C 118.87 320.974 116.699 322.178 116.442 322.417
C 115.025 323.731 114.112 325.595 114.009 327.528
C 113.77 331.957 119.067 333.626 122.487 331.788
C 124.392 330.765 125.434 328.463 126.525 326.701
C 127.352 327.145 127.531 328.74 127.949 329.551
C 128.619 330.855 130.426 331.471 131.787 331.617
C 136.681 332.142 139.118 327.751 137.18 323.53
C 136.198 321.392 134.527 320.674 132.706 319.438
C 134.141 318.683 135.177 318.365 136.086 316.932
C 136.668 316.017 137.089 315.097 137.317 314.034
C 138.104 310.353 135.517 307.022 131.578 307.852
C 128.232 308.558 125.925 311.156 125.779 314.458
C 124.757 314.205 124.292 311.843 123.571 311.062
C 120.881 308.147 115.844 307.734 113.816 311.517 Z"
opacity="1" fill="rgb(100,80,68)" fill-rule="evenodd" />
<path d="
M 113.816 311.517
C 115.844 307.734 120.881 308.147 123.571 311.062
C 124.292 311.843 124.757 314.205 125.779 314.458
C 125.925 311.156 128.232 308.558 131.578 307.852
C 135.517 307.022 138.104 310.353 137.317 314.034
C 137.089 315.097 136.668 316.017 136.086 316.932
C 135.177 318.365 134.141 318.683 132.706 319.438
C 134.527 320.674 136.198 321.392 137.18 323.53
C 139.118 327.751 136.681 332.142 131.787 331.617
C 130.426 331.471 128.619 330.855 127.949 329.551
C 127.531 328.74 127.352 327.145 126.525 326.701
C 125.434 328.463 124.392 330.765 122.487 331.788
C 119.067 333.626 113.77 331.957 114.009 327.528
C 114.112 325.595 115.025 323.731 116.442 322.417
C 116.699 322.178 118.87 320.974 118.825 320.78
C 118.321 320.096 116.854 319.937 116.129 319.361
C 113.96 317.638 113.179 314.104 113.816 311.517 Z"
opacity="1" fill="rgb(117,184,195)" fill-rule="evenodd" />
<path d="
M 118.42 390.559
C 118.924 389.082 120.262 388.383 121.783 388.588
C 122.331 388.662 123.803 389.283 124.24 388.839
C 124.789 386.919 124.392 385.038 124.738 383.11
C 125.868 381.236 129.448 381.342 130.311 383.444
C 130.857 384.772 129.97 385.879 129.959 387.175
C 129.953 387.917 130.528 388.583 130.928 389.152
C 131.797 389.501 133.371 388.149 134.482 388.254
C 137.26 389.475 136.597 392.176 134.136 393.337
C 131.797 394.44 128.925 393.539 127.029 391.981
C 125.981 392.323 125.24 393.07 124.238 393.5
C 121.969 394.473 118.267 393.485 118.42 390.559 Z"
opacity="1" fill="rgb(100,74,62)" fill-rule="evenodd" />
<path d="
M 139.823 380.041
C 140.736 376.948 144.544 374.793 147.247 377.353
C 148.901 378.92 149.162 381.75 148.627 383.864
C 147.907 386.707 144.207 389.086 141.567 386.959
C 139.625 385.395 139.146 382.336 139.823 380.041 Z"
opacity="1" fill="rgb(100,77,66)" fill-rule="evenodd" />
<path d="
M 150.363 389.536
C 152.57 382.682 164.638 385.137 162.632 392.399
C 161.565 396.263 156.878 397.767 153.521 395.756
C 151.607 394.609 149.596 391.915 150.363 389.536 Z"
opacity="1" fill="rgb(232,176,180)" fill-rule="evenodd" />
<path d="
M 162.942 459.104
C 163.351 455.712 165.681 453.479 168.193 451.388
C 171.407 448.713 175.201 445.948 177.959 442.809
C 180.091 440.383 180.986 437.168 184.449 436.175
C 192.061 433.994 200.027 441.311 198.643 449.112
C 198.259 451.278 196.928 453.653 195.052 454.865
C 194.017 455.534 192.615 455.537 191.732 456.434
C 190.563 457.623 189.789 459.153 188.578 460.332
C 187.234 461.639 185.489 462.468 184.203 463.839
C 183.251 464.854 182.881 466.23 182.206 467.422
C 180.871 469.354 178.772 471.295 176.381 471.708
C 169.847 472.838 162.562 465.478 162.942 459.104 Z
M 167.329 458.038
C 166.867 461.445 170.398 465.114 173.126 466.679
C 175.183 467.859 178.001 467.688 178.554 465.002
C 178.332 463.611 176.647 463.108 176.539 461.858
C 177.005 461.324 177.434 460.913 178.17 461.124
C 178.792 461.578 179.388 462.185 180.161 462.337
C 181.796 461.698 184.309 458.935 184.598 457.209
C 185.133 456.667 185.918 456.734 186.585 456.332
C 187.378 455.854 188.033 455.064 188.547 454.307
C 189.266 452.308 187.717 451.136 190.138 449.766
C 190.489 450.349 190.605 451.028 190.827 451.668
C 193.411 452.532 194.53 449.283 194.433 447.445
C 194.185 442.749 187.094 436.977 183.466 441.635
C 183.419 443.099 185.402 444.013 185.031 445.63
C 184.491 446.25 182.404 444.752 181.899 444.463
C 180.686 444.929 179.912 446.127 179.04 447.05
C 177.209 448.989 174.816 450.883 173.408 453.146
C 173.327 454.072 174.053 454.677 174.433 455.484
C 174.083 456.127 172.817 457.067 172.104 457.262
C 171.416 456.899 171.248 455.699 170.546 455.194
C 169.027 455.469 167.977 456.705 167.329 458.038 Z"
opacity="1" fill="rgb(104,74,61)" fill-rule="evenodd" />
<path d="
M 165.881 315.054
C 166.537 313.202 167.579 311.48 168.945 310.063
C 172.401 306.477 178.129 304.189 182.511 307.622
C 184.21 308.953 184.864 311.016 186.329 312.529
C 188.612 314.887 191.069 316.923 193.264 319.402
C 194.336 320.613 195.744 320.535 197.041 321.33
C 199.74 322.983 201.226 326.405 201.152 329.477
C 200.944 338.2 186.837 346.318 182.363 336.187
C 181.42 334.05 179.302 333.068 177.583 331.608
C 175.666 329.981 174.237 328.122 172.598 326.248
C 171.528 325.717 170.275 325.795 169.269 325.116
C 166.281 323.1 164.971 318.399 165.881 315.054 Z
M 169.777 317.003
C 169.417 318.732 169.954 320.679 171.467 321.719
C 172.78 321.364 174.443 319.38 175.857 320.585
C 176.167 321.692 175.73 322.999 176.207 324.041
C 177.168 326.14 179.989 326.687 181.719 327.863
C 182.299 329.01 182.688 330.536 183.996 331.044
C 185.482 331.394 186.907 330.815 188.335 330.983
C 188.103 331.522 187.721 331.978 187.397 332.466
C 186.793 333.508 186.353 334.356 186.716 335.574
C 187.983 336.892 190.13 336.201 191.553 335.447
C 195.206 333.512 199.438 327.29 194.017 324.672
C 192.797 324.92 190.378 327.224 189.077 326.597
C 188.898 326.511 190.045 325.604 190.137 325.514
C 190.801 324.87 191.209 324.078 190.782 323.179
C 190.021 321.575 188.28 320.386 187.017 319.208
C 185.616 317.902 184.393 316.38 183.091 314.98
C 181.914 315.549 180.591 316.39 179.414 315.384
C 179.317 314.658 179.95 314.028 180.414 313.498
C 181.492 311.034 178.511 309.784 176.523 310.428
C 173.597 311.377 171.063 314.292 169.777 317.003 Z"
opacity="1" fill="rgb(106,74,64)" fill-rule="evenodd" />
<path d="
M 167.329 458.038
C 167.977 456.705 169.027 455.469 170.546 455.194
C 171.248 455.699 171.416 456.899 172.104 457.262
C 172.817 457.067 174.083 456.127 174.433 455.484
C 174.053 454.677 173.327 454.072 173.408 453.146
C 174.816 450.883 177.209 448.989 179.04 447.05
C 179.912 446.127 180.686 444.929 181.899 444.463
C 182.404 444.752 184.491 446.25 185.031 445.63
C 185.402 444.013 183.419 443.099 183.466 441.635
C 187.094 436.977 194.185 442.749 194.433 447.445
C 194.53 449.283 193.411 452.532 190.827 451.668
C 190.605 451.028 190.489 450.349 190.138 449.766
C 187.717 451.136 189.266 452.308 188.547 454.307
C 188.033 455.064 187.378 455.854 186.585 456.332
C 185.918 456.734 185.133 456.667 184.598 457.209
C 184.309 458.935 181.796 461.698 180.161 462.337
C 179.388 462.185 178.792 461.578 178.17 461.124
C 177.434 460.913 177.005 461.324 176.539 461.858
C 176.647 463.108 178.332 463.611 178.554 465.002
C 178.001 467.688 175.183 467.859 173.126 466.679
C 170.398 465.114 166.867 461.445 167.329 458.038 Z"
opacity="1" fill="rgb(234,175,186)" fill-rule="evenodd" />
<path d="
M 169.777 317.003
C 171.063 314.292 173.597 311.377 176.523 310.428
C 178.511 309.784 181.492 311.034 180.414 313.498
C 179.95 314.028 179.317 314.658 179.414 315.384
C 180.591 316.39 181.914 315.549 183.091 314.98
C 184.393 316.38 185.616 317.902 187.017 319.208
C 188.28 320.386 190.021 321.575 190.782 323.179
C 191.209 324.078 190.801 324.87 190.137 325.514
C 190.045 325.604 188.898 326.511 189.077 326.597
C 190.378 327.224 192.797 324.92 194.017 324.672
C 199.438 327.29 195.206 333.512 191.553 335.447
C 190.13 336.201 187.983 336.892 186.716 335.574
C 186.353 334.356 186.793 333.508 187.397 332.466
C 187.721 331.978 188.103 331.522 188.335 330.983
C 186.907 330.815 185.482 331.394 183.996 331.044
C 182.688 330.536 182.299 329.01 181.719 327.863
C 179.989 326.687 177.168 326.14 176.207 324.041
C 175.73 322.999 176.167 321.692 175.857 320.585
C 174.443 319.38 172.78 321.364 171.467 321.719
C 169.954 320.679 169.417 318.732 169.777 317.003 Z"
opacity="1" fill="rgb(240,184,187)" fill-rule="evenodd" />
<path d="
M 183.441 372.095
C 184.321 368.815 186.124 366.385 188.742 364.231
C 189.091 363.391 188.739 362.231 188.766 361.324
C 188.814 359.707 189.079 358.074 189.68 356.565
C 191.683 351.532 197.304 348.618 202.331 351.391
C 204.623 352.654 205.962 355.018 208.121 356.284
C 210.099 356.32 211.857 355.666 213.867 356.168
C 219.004 357.45 222.096 363.223 220.429 368.226
C 219.868 369.91 218.901 371.616 217.705 372.93
C 217.037 373.664 216.029 374.212 215.533 375.063
C 216.913 382.311 211.989 390.484 203.82 388.433
C 200.689 387.647 198.27 384.959 196.419 382.467
C 194.983 381.608 192.023 382.577 190.337 382.369
C 185.396 381.759 182.558 376.81 183.441 372.095 Z
M 187.829 372.542
C 187.229 377.49 193.387 379.313 197.297 377.811
C 198.194 377.467 198.783 376.663 199.631 376.289
C 200.021 377.23 199.868 378.298 200.282 379.258
C 201.507 382.093 205.786 385.225 208.873 383.084
C 211.276 381.419 211.283 377.717 210.529 375.198
C 210.133 373.874 208.676 373.462 208.263 372.418
C 208.2 372.256 208.228 372.005 208.372 371.908
C 208.928 371.535 210.601 371.889 211.321 371.715
C 214.408 370.967 216.803 367.667 216.267 364.495
C 215.673 360.975 210.707 360.747 207.991 361.306
C 206.835 361.544 206.127 362.335 205.445 363.237
C 205.336 363.382 204.389 364.696 204.354 364.21
C 204.53 362.624 204.779 361.271 204.276 359.706
C 203.073 355.964 198.475 353.44 195.221 356.404
C 192.279 359.083 192.986 364.734 195.682 367.344
C 196.024 367.637 197.562 369.002 197.157 369.469
C 194.764 365.151 189.048 369.75 187.829 372.542 Z"
opacity="1" fill="rgb(101,79,67)" fill-rule="evenodd" />
<path d="
M 183.392 418.07
C 184.467 414.839 186.79 413.974 189.31 412.105
C 192.622 409.648 196.286 406.427 198.841 403.184
C 200.731 400.787 202.373 398.053 205.673 397.516
C 213.072 396.313 221.336 405.084 218.413 412.295
C 216.916 415.99 213.541 417.409 210.482 419.401
C 209.195 420.239 208.273 422.125 207.191 423.255
C 205.716 424.794 203.799 425.901 202.397 427.466
C 201.946 428.518 201.821 429.539 201.008 430.409
C 193.534 438.402 181.447 426.574 183.392 418.07 Z
M 193.555 416.876
C 193.017 417.214 192.453 416.737 191.999 417.35
C 188.805 415.833 186.421 419.152 187.744 421.994
C 188.854 424.378 191.552 427.831 194.166 428.664
C 196.035 429.26 198.487 428.298 198.584 426.034
C 198.622 425.128 197.545 424.235 197.095 423.528
C 197.54 422.478 198.423 422.035 199.534 422.261
C 199.987 422.649 200.348 423.086 200.964 422.871
C 202.526 422.068 204.152 420.211 204.954 418.66
C 205.339 417.916 205.413 417.069 205.958 416.415
C 206.852 416.218 207.757 416.135 208.657 415.984
C 209.34 414.831 209.26 413.214 209.677 411.935
C 210.816 412.157 211.336 412.892 212.326 413.341
C 214.198 413.213 215.112 410.14 214.668 408.662
C 214.281 407.374 213.104 406.298 212.219 405.338
C 209.901 402.823 206.729 400.585 203.678 403.471
C 203.395 404.95 204.659 406.083 204.941 407.481
C 204.809 407.797 202.971 407.293 202.621 407.259
C 201.163 407.12 200.211 407.555 198.863 407.898
C 198.655 408.698 198.813 409.589 198.829 410.416
C 197.269 411.967 194.792 412.156 193.244 413.901
C 193.164 414.943 193.724 415.838 193.555 416.876 Z"
opacity="1" fill="rgb(102,81,65)" fill-rule="evenodd" />
<path d="
M 191.999 417.35
C 191.883 417.987 191.868 420.476 193.067 419.693
C 193.444 418.889 193.255 417.76 193.555 416.876
C 193.724 415.838 193.164 414.943 193.244 413.901
C 194.792 412.156 197.269 411.967 198.829 410.416
C 198.813 409.589 198.655 408.698 198.863 407.898
C 200.211 407.555 201.163 407.12 202.621 407.259
C 202.971 407.293 204.809 407.797 204.941 407.481
C 204.659 406.083 203.395 404.95 203.678 403.471
C 206.729 400.585 209.901 402.823 212.219 405.338
C 213.104 406.298 214.281 407.374 214.668 408.662
C 215.112 410.14 214.198 413.213 212.326 413.341
C 211.336 412.892 210.816 412.157 209.677 411.935
C 209.26 413.214 209.34 414.831 208.657 415.984
C 207.757 416.135 206.852 416.218 205.958 416.415
C 205.413 417.069 205.339 417.916 204.954 418.66
C 204.152 420.211 202.526 422.068 200.964 422.871
C 200.348 423.086 199.987 422.649 199.534 422.261
C 198.423 422.035 197.54 422.478 197.095 423.528
C 197.545 424.235 198.622 425.128 198.584 426.034
C 198.487 428.298 196.035 429.26 194.166 428.664
C 191.552 427.831 188.854 424.378 187.744 421.994
C 186.421 419.152 188.805 415.833 191.999 417.35 Z"
opacity="1" fill="rgb(104,190,213)" fill-rule="evenodd" />
<path d="
M 187.829 372.542
C 189.048 369.75 194.764 365.151 197.157 369.469
C 197.562 369.002 196.024 367.637 195.682 367.344
C 192.986 364.734 192.279 359.083 195.221 356.404
C 198.475 353.44 203.073 355.964 204.276 359.706
C 204.779 361.271 204.53 362.624 204.354 364.21
C 204.389 364.696 205.336 363.382 205.445 363.237
C 206.127 362.335 206.835 361.544 207.991 361.306
C 210.707 360.747 215.673 360.975 216.267 364.495
C 216.803 367.667 214.408 370.967 211.321 371.715
C 210.601 371.889 208.928 371.535 208.372 371.908
C 208.228 372.005 208.2 372.256 208.263 372.418
C 208.676 373.462 210.133 373.874 210.529 375.198
C 211.283 377.717 211.276 381.419 208.873 383.084
C 205.786 385.225 201.507 382.093 200.282 379.258
C 199.868 378.298 200.021 377.23 199.631 376.289
C 198.783 376.663 198.194 377.467 197.297 377.811
C 193.387 379.313 187.229 377.49 187.829 372.542 Z"
opacity="1" fill="rgb(112,187,196)" fill-rule="evenodd" />
<path d="
M 193.555 416.876
C 193.255 417.76 193.444 418.889 193.067 419.693
C 191.868 420.476 191.883 417.987 191.999 417.35
C 192.453 416.737 193.017 417.214 193.555 416.876 Z"
opacity="0.996" fill="rgb(105,118,126)" fill-rule="evenodd" />
<path d="
M 269.43 350.587
C 269.823 349.372 270.202 348.253 270.947 347.199
C 274.803 341.745 281.131 342.096 287.12 342.103
C 296.647 342.113 305.841 341.012 314.49 345.946
C 328.83 354.126 334.345 372.451 326.37 387.125
C 324.666 390.259 322.424 393.315 319.71 395.651
C 318.143 397.001 316.142 397.922 314.771 399.478
C 315.166 402.574 317.692 404.969 319.482 407.373
C 322.324 411.189 325.21 415.014 327.884 418.948
C 329.406 421.186 331.224 423.676 331.66 426.414
C 332.979 434.715 323.744 442.89 315.958 438.172
C 312.427 436.033 310.108 431.429 307.746 428.166
C 302.63 421.098 297.838 413.784 292.495 406.892
C 290.997 406.69 290.501 407.922 290.438 409.178
C 290.308 411.787 290.568 414.4 290.595 417.007
C 290.673 424.378 292.685 434.992 284.21 438.688
C 283.121 439.163 281.922 439.396 280.744 439.521
C 279.447 439.658 278.115 439.511 276.86 439.162
C 275.742 438.85 274.668 438.396 273.691 437.77
C 267.952 434.093 269.206 427.396 269.174 421.507
C 269.09 405.84 269.224 390.171 269.216 374.504
C 269.214 369.337 269.226 364.171 269.212 359.005
C 269.204 356.239 268.86 353.312 269.43 350.587 Z
M 290.47 370.128
C 290.279 373.632 289.79 378.813 292.55 381.455
C 298.512 387.163 307.652 380.99 307.946 373.873
C 308.096 370.229 306.848 366.373 303.819 364.147
C 300.057 361.381 293.384 361.46 291.078 366.121
C 290.513 367.265 290.539 368.877 290.47 370.128 Z"
opacity="1" fill="rgb(101,79,66)" fill-rule="evenodd" />
<path d="
M 337.849 416.542
C 339.088 412.754 342.084 409.841 344.904 407.164
C 350.73 401.631 356.302 395.781 362.98 391.254
C 366.31 388.996 370.799 387.175 374.846 388.452
C 385.044 391.669 386.19 404.637 387.159 413.598
C 387.421 416.021 387.578 418.439 387.583 420.877
C 387.589 424.232 387.515 427.927 386.368 431.113
C 385.892 432.435 385.267 433.716 384.393 434.822
C 383.724 435.669 382.961 436.398 382.07 437.009
C 374.878 441.938 367.189 435.546 360.446 432.933
C 355.837 431.147 351.048 429.758 346.522 427.764
C 342.018 425.78 335.901 422.496 337.849 416.542 Z"
opacity="1" fill="rgb(230,178,181)" fill-rule="evenodd" />
<path d="
M 339.384 390.085
C 339.99 386.619 343.533 381.868 347.578 383.978
C 350.893 385.706 351.907 390.901 351.197 394.257
C 350.414 397.955 346.063 401.94 342.318 399.066
C 339.738 397.086 338.846 393.161 339.384 390.085 Z"
opacity="1" fill="rgb(230,178,180)" fill-rule="evenodd" />
<path d="
M 349.322 372.522
C 350.609 369.067 354.627 366.369 357.954 369.21
C 360.9 371.724 362.453 376.863 361.006 380.539
C 359.775 383.663 356.175 385.008 353.316 383.015
C 350.295 380.909 347.953 376.195 349.322 372.522 Z"
opacity="1" fill="rgb(230,179,180)" fill-rule="evenodd" />
<path d="
M 365.852 373.086
C 366.436 369.275 371 363.547 375.051 367.286
C 377.389 369.443 377.678 374.06 377.269 377.005
C 376.742 380.799 372.668 384.73 368.942 382.012
C 366.191 380.006 365.361 376.298 365.852 373.086 Z"
opacity="1" fill="rgb(228,179,180)" fill-rule="evenodd" />
<path d="
M 381.391 381.567
C 382.103 378.719 384.117 375.459 387.06 374.508
C 392.018 372.908 394.675 378.245 393.642 382.352
C 392.899 385.308 390.471 388.744 387.37 389.59
C 382.279 390.979 380.362 385.684 381.391 381.567 Z"
opacity="1" fill="rgb(229,182,183)" fill-rule="evenodd" />
<path d="
M 389.394 396.557
C 390.318 393.712 392.6 390.742 395.543 389.83
C 400.586 388.267 403.939 392.474 402.407 397.221
C 401.345 400.515 398.369 403.192 394.883 403.643
C 390.651 404.189 388.092 400.57 389.394 396.557 Z"
opacity="1" fill="rgb(228,179,181)" fill-rule="evenodd" />
<path d="
M 392.885 413.557
C 393.874 410.403 396.379 407.712 399.644 406.949
C 404.183 405.887 407.141 409.648 405.8 413.918
C 404.781 417.161 401.292 419.702 397.95 420.057
C 394.289 420.445 391.775 417.098 392.885 413.557 Z"
opacity="1" fill="rgb(227,176,179)" fill-rule="evenodd" />
<path d="
M 409.489 426.608
C 409.553 425.014 409.944 423.368 410.764 421.994
C 412.699 418.756 416.64 415.976 420.533 417.422
C 422.972 418.327 425.01 420.356 427.32 421.551
C 430.023 422.95 435.407 423.718 437.059 420.263
C 438.025 418.241 436.961 416.263 435.369 415
C 432.727 412.905 429.213 411.845 426.161 410.498
C 422.662 408.953 419.1 406.994 416.416 404.221
C 411.991 399.652 410.666 392.634 411.873 386.513
C 414.844 371.444 433.323 367.75 446.009 370.594
C 449.72 371.427 454.292 372.947 457.069 375.67
C 461.928 380.431 457.611 390.032 451.17 390.566
C 446.557 390.949 443.051 387.463 438.631 387.116
C 436.492 386.948 432.785 387.008 432.747 389.994
C 432.722 391.984 434.289 393.241 435.878 394.13
C 439.201 395.99 442.945 397.005 446.376 398.638
C 450.097 400.41 453.822 402.829 456.268 406.211
C 461.189 413.017 461.194 423.599 455.987 430.308
C 447.994 440.604 433.05 442.574 421.248 438.448
C 415.975 436.604 409.225 433.149 409.489 426.608 Z"
opacity="1" fill="rgb(102,80,67)" fill-rule="evenodd" />
<path d="
M 465.903 399.102
C 467.007 393.185 468.747 387.895 472.233 382.916
C 479.642 372.333 494.06 367.364 506.49 370.403
C 508.902 370.993 511.233 371.775 513.447 372.912
C 522.459 377.539 532.829 389.721 526.687 400.317
C 524.56 403.987 520.868 405.365 517.136 406.885
C 511.716 409.093 506.24 411.165 500.71 413.076
C 498.18 413.95 494.828 414.628 492.851 416.523
C 493.121 420.69 499.165 422.165 502.495 422.098
C 510.144 421.942 520.689 411.792 526.705 420.321
C 527.338 421.218 527.757 422.258 528.019 423.321
C 528.366 424.728 528.382 426.261 528.119 427.683
C 527.247 432.394 523.37 434.741 519.278 436.499
C 511.799 439.713 503.264 441.31 495.179 439.888
C 491.288 439.204 487.364 438.068 483.872 436.187
C 470.424 428.945 464.14 413.892 465.903 399.102 Z
M 486.844 398.564
C 486.728 399.097 486.698 399.542 486.732 400.086
C 486.925 400.891 487.324 401.462 488.075 401.833
C 490.121 401.773 492.057 400.52 493.927 399.771
C 496.68 398.668 499.458 397.621 502.255 396.639
C 503.526 396.193 506.22 395.651 506.79 394.275
C 506.719 389.195 498.997 387.465 495.169 388.542
C 490.167 389.951 488.363 394.093 486.844 398.564 Z"
opacity="1" fill="rgb(101,79,67)" fill-rule="evenodd" />
<path d="
M 535.956 350.107
C 537.29 340.697 549.05 336.92 555.18 344.697
C 557.292 347.377 557.298 350.533 557.306 353.784
C 557.315 357.523 557.294 361.262 557.299 365.001
C 557.302 366.938 556.665 370.419 557.87 372.043
C 559.199 373.222 560.86 372.457 562.35 371.977
C 565.739 370.886 568.831 370.004 572.442 370.198
C 582.063 370.714 590.659 376.526 596.12 384.215
C 605.249 397.068 604.309 417.236 593.803 429.045
C 585.722 438.129 573.229 441.979 561.381 439.602
C 556.725 438.667 552.48 436.709 548.6 433.988
C 543.159 430.172 538.731 424.715 536.835 418.297
C 535.549 413.942 535.76 409.306 535.775 404.818
C 535.794 399.043 535.82 393.269 535.877 387.494
C 536 375.086 535.195 362.489 535.956 350.107 Z
M 556.451 405.12
C 555.961 415.478 568.481 422.499 576.625 415.488
C 579.467 413.041 580.741 409.504 581.008 405.864
C 581.618 397.551 573.272 391.214 565.434 393.239
C 562.063 394.11 559.462 396.638 557.936 399.676
C 557.094 401.351 556.54 403.24 556.451 405.12 Z"
opacity="1" fill="rgb(101,79,66)" fill-rule="evenodd" />
<path d="
M 610.376 378.073
C 612.809 368.411 627.568 368.173 630.989 377.238
C 632.078 380.124 631.548 384.097 631.546 387.137
C 631.54 393.766 631.408 400.401 631.411 407.036
C 631.413 411.942 632.12 417.602 638.013 418.583
C 641.949 419.238 646.032 417.229 647.313 413.3
C 648.048 411.044 647.687 408.342 647.688 406.003
C 647.691 400.003 647.738 394.002 647.726 388.002
C 647.719 384.847 647.158 381.181 648.04 378.115
C 649.274 373.828 653.217 370.944 657.56 370.569
C 662.011 370.184 667.559 373.031 668.795 377.634
C 670.021 382.202 669.156 387.809 669.131 392.497
C 669.088 400.602 670.029 409.322 668.756 417.337
C 665.167 439.943 634.565 447.353 618.654 432.574
C 607.844 422.532 610.337 407.839 610.239 394.505
C 610.201 389.335 609.105 383.117 610.376 378.073 Z"
opacity="1" fill="rgb(101,79,67)" fill-rule="evenodd" />
<path d="
M 676.461 405.117
C 676.854 388.835 686.824 373.525 703.661 370.696
C 707.426 370.063 711.384 370.258 715.007 371.512
C 716.74 372.112 719.166 373.524 720.816 371.965
C 722.266 370.595 721.398 365.872 721.395 363.999
C 721.384 357.062 719.358 347.157 725.795 342.455
C 732.223 337.76 742.221 341.74 742.828 349.945
C 743.16 354.421 742.862 359.013 742.87 363.501
C 742.888 373.169 742.844 382.835 742.875 392.503
C 742.896 399.31 743.686 406.703 742.586 413.438
C 741.644 419.204 738.879 424.697 735.124 429.131
C 732.763 431.92 729.71 434.177 726.529 435.938
C 722.524 438.156 718.139 439.688 713.569 440.205
C 693.184 442.513 675.975 425.283 676.461 405.117 Z
M 697.883 403.594
C 697.132 409.21 699.977 415.079 705.205 417.464
C 712.342 420.719 720.67 415.49 721.705 407.944
C 722.451 402.5 719.699 396.26 714.553 393.885
C 707.233 390.506 698.9 395.982 697.883 403.594 Z"
opacity="1" fill="rgb(102,79,66)" fill-rule="evenodd" />

</svg>