<svg xmlns="http://www.w3.org/2000/svg"
shape-rendering="geometricPrecision"
width="4000" height="4000" viewBox="0 0 739 739">
  <metadata>null</metadata>

<path d="
M 207.266 386.513
C 207.276 387.016 207.281 387.519 207.292 388.023
C 207.319 389.86 207.35 391.69 207.476 393.524
C 207.521 394.164 207.459 395.248 208.267 395.331
C 208.19 395.549 208.113 395.767 208.035 395.985
C 208.69 400.692 210.691 405.562 213.921 409.087
C 215.393 410.694 217.05 411.839 218.989 412.801
C 219.457 413.033 220.298 413.543 219.859 414.163
C 216.145 414.529 212.236 414.187 208.502 414.175
C 201.168 414.152 193.832 414.171 186.498 414.201
C 182.496 414.218 178.494 414.206 174.492 414.229
C 172.568 414.24 170.419 414.598 168.553 414.102
C 169.199 412.531 171.548 411.464 172.696 410.152
C 175.205 407.286 176.888 403.472 177.78 399.793
C 178.812 395.54 178.733 391.19 178.741 386.844
C 178.751 381.233 178.665 375.622 178.635 370.011
C 178.601 363.741 178.583 357.471 178.588 351.201
C 178.592 346.284 178.737 341.194 177.69 336.363
C 175.972 328.431 170.443 322.038 161.855 322.152
C 153.056 322.269 144.237 329.489 141.071 337.545
C 140.2 339.761 140.567 342.659 140.558 345
C 140.542 349.197 140.192 353.445 140.55 357.639
C 141.626 370.238 139.475 383.118 140.879 395.703
C 141.404 400.411 142.765 405.298 145.712 409.074
C 147.218 411.002 148.79 411.856 150.785 413.112
C 151.087 413.303 151.473 413.987 151.067 414.22
C 138.385 414.276 125.686 414.196 112.999 414.193
C 110.005 414.192 106.998 414.13 104.006 414.223
C 103.133 414.251 101.233 414.64 101.206 413.565
C 103.261 411.879 105.371 410.499 106.872 408.223
C 112.627 399.498 111.808 389.339 111.757 379.365
C 111.71 370.127 111.776 360.89 111.796 351.651
C 111.814 343.192 112.408 333.242 106.138 326.606
C 97.9 317.887 85.576 323.478 78.623 330.702
C 76.938 332.453 75.148 334.395 74.127 336.629
C 73.573 337.842 73.802 339.316 73.797 340.614
C 73.786 343.077 73.804 345.54 73.801 348.003
C 73.788 356.836 73.791 365.67 73.808 374.504
C 73.827 383.954 72.598 394.27 75.937 403.303
C 77.046 406.303 78.856 409.17 81.269 411.298
C 82.118 412.047 84.755 412.854 84.695 414.071
C 83.722 414.562 81.883 414.246 80.802 414.236
C 77.702 414.206 74.602 414.171 71.502 414.167
C 62.835 414.156 54.167 414.224 45.5 414.188
C 43.002 414.178 40.502 414.157 38.004 414.167
C 36.764 414.171 35.4 414.462 34.204 414.093
C 34.365 413.125 35.399 412.734 36.114 412.163
C 37.291 411.223 38.376 410.176 39.293 408.979
C 41.711 405.824 43.14 401.725 43.93 397.865
C 45.166 391.824 44.415 385.14 44.402 379.001
C 44.379 368.082 44.473 357.164 44.486 346.245
C 44.492 341.006 42.847 335.513 39.259 331.589
C 37.816 330.011 36.017 328.971 34.387 327.62
C 33.834 327.161 33.016 326.668 33.208 325.92
C 41.106 326.065 49.268 324.499 56.151 320.492
C 59.427 318.584 62.36 316.091 65.418 313.862
C 66.628 312.98 67.995 311.584 69.433 311.12
C 70.786 310.684 72.335 310.768 73.738 310.658
C 74.005 313.412 73.781 316.234 73.807 319.001
C 73.832 321.713 74.119 324.542 73.91 327.237
C 74.192 327.391 74.583 326.846 74.726 326.67
C 75.528 325.682 76.55 324.853 77.464 323.969
C 81.21 320.34 85.353 317.098 89.989 314.685
C 104.81 306.969 123.662 307.719 134.35 321.829
C 136.018 324.031 137.681 326.587 138.629 329.196
C 141.477 327.188 143.696 323.967 146.33 321.655
C 150.624 317.886 155.278 314.842 160.547 312.617
C 165.063 310.709 169.85 309.721 174.746 309.679
C 178.282 309.649 181.922 309.88 185.337 310.858
C 188.1 311.649 190.645 312.783 193.08 314.308
C 210.531 325.245 207.28 348.385 207.215 366.003
C 207.19 372.825 207.508 379.702 207.266 386.513 Z"
opacity="1" fill="rgb(0,0,0)" fill-rule="evenodd" />
<path d="
M 79.263 445.761
C 82.983 445.59 86.719 445.865 90.445 445.82
C 90.59 446.489 90.683 447.153 90.738 447.835
C 87.953 447.292 84.583 447.705 81.755 447.795
C 81.754 449.573 81.554 451.31 81.822 453.08
C 84.407 453.107 87.037 453.286 89.624 453.105
C 89.817 453.741 89.838 454.287 89.829 454.949
C 87.894 454.883 85.95 454.918 84.013 454.917
C 83.217 454.916 82.347 454.771 81.713 455.3
C 81.649 457.083 81.52 458.867 81.737 460.647
C 84.688 460.817 87.66 460.401 90.614 460.671
C 90.712 461.395 90.771 462.091 90.821 462.818
C 87.066 462.491 83.091 463.251 79.371 462.637
C 78.982 460.89 79.253 458.786 79.26 456.995
C 79.274 453.253 79.341 449.502 79.263 445.761 Z"
opacity="1" fill="rgb(19,21,19)" fill-rule="evenodd" />
<path d="
M 99.457 451.086
C 101.591 445.423 109.063 443.489 113.559 447.85
C 115.753 449.978 116.28 453.367 115.719 456.269
C 115.101 459.473 112.895 460.39 110.83 462.447
C 110.985 463.141 111.688 463.058 112.322 463.198
C 114.745 463.732 115.991 462.378 118.095 461.607
C 118.742 464.109 114.921 465.392 112.966 465.195
C 111.19 465.017 110.052 463.997 108.481 463.348
C 106.896 462.693 105.134 462.806 103.551 462.012
C 99.557 460.006 98.353 455.179 99.457 451.086 Z
M 101.456 453.101
C 101.176 455.435 101.669 457.873 103.484 459.503
C 107.51 463.12 112.941 459.883 113.463 455.077
C 113.699 452.913 113.16 450.373 111.495 448.856
C 107.644 445.347 102.02 448.406 101.456 453.101 Z"
opacity="0.996" fill="rgb(17,17,16)" fill-rule="evenodd" />
<path d="
M 125.503 447.106
C 125.582 446.512 125.559 446.856 125.523 446.073
C 126.221 445.623 127.158 445.806 127.925 446.02
C 128.374 449.961 126.871 454.762 128.355 458.515
C 129.669 461.84 135.036 461.963 136.775 458.993
C 137.462 457.82 137.418 456.184 137.427 454.869
C 137.448 451.976 137.151 449.028 137.434 446.146
C 138.137 445.753 138.872 445.772 139.67 445.757
C 140.02 446.92 139.78 448.284 139.777 449.485
C 139.769 452.46 140.701 457.05 139.097 459.703
C 136.502 463.998 129.124 464.352 126.394 459.949
C 124.356 456.661 125.533 450.837 125.503 447.106 Z"
opacity="1" fill="rgb(15,17,16)" fill-rule="evenodd" />
<path d="
M 147.962 461.576
C 149.65 456.216 152.188 450.926 154.318 445.723
C 155.263 445.695 156.644 445.483 157.47 446.009
C 159.316 451.57 162.401 456.864 163.962 462.49
C 163.601 462.913 162.322 462.574 161.804 462.635
C 160.871 462.191 160.192 459.486 159.929 458.472
C 157.912 458.226 153.307 457.63 151.546 458.617
C 151.118 459.802 151.047 461.484 150.169 462.424
C 149.489 462.728 148.685 462.641 147.958 462.563
C 147.644 462.038 147.725 462.357 147.962 461.576 Z
M 152.396 456.101
C 152.348 456.262 152.3 456.424 152.252 456.586
C 154.411 456.736 156.902 456.671 159.054 456.453
C 158.597 454.268 157.412 452.194 156.756 450.052
C 156.537 449.338 156.253 448.153 155.445 448.314
C 154.563 450.898 153.65 453.66 152.396 456.101 Z"
opacity="1" fill="rgb(18,17,19)" fill-rule="evenodd" />
<path d="
M 172.44 445.796
C 173.178 445.708 173.924 445.668 174.661 445.751
C 175.054 446.882 174.806 448.299 174.802 449.484
C 174.792 452.152 174.8 454.82 174.828 457.487
C 174.839 458.582 174.621 459.92 174.945 460.964
C 177.469 460.831 179.99 460.814 182.519 460.742
C 182.826 461.423 182.817 462.059 182.833 462.788
C 179.516 462.504 175.957 462.648 172.62 462.626
C 172.171 460.671 172.422 458.5 172.425 456.506
C 172.431 452.938 172.346 449.362 172.44 445.796 Z"
opacity="1" fill="rgb(20,22,22)" fill-rule="evenodd" />
<path d="
M 203.294 445.885
C 206.4 445.768 210.608 445.052 213.515 446.397
C 216.805 447.917 217.211 452.468 214.643 454.821
C 213.145 456.194 211.105 456.504 209.136 456.487
C 208.189 456.478 206.482 456.055 205.725 456.721
C 205.658 458.129 206.267 461.416 205.301 462.47
C 204.582 462.571 203.946 462.707 203.219 462.661
C 203.17 458.97 203.259 455.278 203.236 451.585
C 203.225 449.755 202.922 447.677 203.294 445.885 Z
M 205.765 447.782
C 205.732 449.943 205.623 452.083 205.705 454.247
C 206.297 454.675 207.372 454.413 208.078 454.395
C 209.66 454.355 211.768 454.609 212.941 453.326
C 214.24 451.904 213.967 448.765 212.031 447.938
C 210.257 447.18 207.639 447.759 205.765 447.782 Z"
opacity="1" fill="rgb(19,21,20)" fill-rule="evenodd" />
<path d="
M 207.266 386.513
C 208.665 386.173 209.017 384.982 209.863 383.919
C 211.627 381.705 213.473 379.476 215.465 377.464
C 218.231 374.625 221.689 372.244 225.259 370.545
C 228.339 369.079 231.621 368.268 234.978 367.725
C 244.664 366.157 254.988 368.893 263.229 374.03
C 268.322 377.205 272.728 381.341 277.602 384.835
C 282.63 388.439 288.136 391.314 294.026 393.212
C 304.107 396.459 316.034 395.693 325.04 389.797
C 326.805 388.641 328.482 387.397 329.936 385.858
C 330.992 384.742 331.896 383.161 333.179 382.316
C 335.537 382.956 333.679 384.988 332.888 386.285
C 330.823 389.669 327.596 392.593 324.164 394.555
C 314.708 399.96 303.217 400.468 292.914 397.342
C 285.17 394.992 278.514 390.91 272.122 386.038
C 266.947 382.092 262.286 377.607 256.357 374.748
C 249.062 371.232 240.831 370.467 232.97 372.312
C 226.76 373.768 220.861 376.878 215.978 380.951
C 213.645 382.896 211.449 384.849 209.009 386.657
C 208.404 387.105 208.047 387.785 207.292 388.023
C 207.281 387.519 207.276 387.016 207.266 386.513 Z"
opacity="1" fill="rgb(135,147,157)" fill-rule="evenodd" />
<path d="
M 208.035 395.985
C 208.113 395.767 208.19 395.549 208.267 395.331
C 208.673 394.673 208.3 393.808 208.793 392.993
C 210.709 389.82 214.264 386.88 217.166 384.624
C 220.484 382.045 224.264 380.251 228.258 379.005
C 236.615 376.397 246.222 376.218 254.38 379.607
C 263.081 383.222 269.844 389.852 277.641 394.936
C 283.175 398.544 289.152 401.262 295.644 402.593
C 302.694 404.039 310.427 404.173 317.171 401.326
C 319.355 400.404 321.688 399.312 323.512 397.775
C 324.948 396.565 326.076 394.524 328.203 394.869
C 328.429 395.645 327.253 396.71 326.824 397.271
C 325.345 399.208 323.8 401.065 322.146 402.855
C 314.41 411.23 304.838 416.32 293.466 417.568
C 285.148 418.481 276.19 415.553 269.326 410.938
C 264.281 407.546 259.858 403.363 254.934 399.812
C 249.371 395.801 243.365 392.229 236.758 390.249
C 228.773 387.857 220.602 387.934 213.255 392.166
C 211.596 393.122 209.117 394.413 208.035 395.985 Z"
opacity="1" fill="rgb(128,140,150)" fill-rule="evenodd" />
<path d="
M 209.376 378.159
C 212.47 373.425 216.38 368.041 220.734 364.377
C 223.795 361.8 227.817 359.915 231.625 358.765
C 240.911 355.961 251.093 356.433 259.891 360.615
C 274.992 367.794 286.471 382.841 303.738 385.406
C 312.703 386.737 322.209 384.03 329.637 378.961
C 332.178 377.227 334.406 375.164 336.446 372.868
C 337.292 371.917 338.31 370.315 339.656 370.192
C 340.333 372.222 337.522 375.218 336.361 376.676
C 331.877 382.31 325.836 386.148 318.89 388.03
C 304.02 392.058 289.797 386.121 277.841 377.477
C 269.676 371.574 262.391 364.536 252.334 361.939
C 241.697 359.192 230.986 361.694 221.896 367.634
C 218.268 370.005 215.334 373.161 212.35 376.257
C 211.91 376.715 209.947 378.807 209.376 378.159 Z"
opacity="1" fill="rgb(132,145,156)" fill-rule="evenodd" />
<path d="
M 346.19 356.446
C 346.165 357.123 346.206 357.791 346.17 358.469
C 345.941 357.695 343.876 360.023 343.543 360.438
C 341.307 363.227 339.27 366.156 336.584 368.549
C 329.448 374.907 320.826 379.013 311.266 379.67
C 300.908 380.382 290.142 375.937 281.734 370.211
C 272.717 364.07 263.918 356.077 252.965 353.684
C 244.748 351.888 235.26 352.416 227.695 356.346
C 225.019 357.736 222.132 359.282 220.018 361.485
C 219.49 362.035 218.58 363.675 217.65 363.187
C 218.413 359.715 222.202 356.303 224.462 353.694
C 233.825 342.887 249.337 337.009 263.433 339.799
C 274.843 342.058 283.531 350.249 292.738 356.716
C 302.168 363.34 313.341 367.57 324.99 366.209
C 328.816 365.763 332.478 364.82 335.956 363.141
C 338.977 361.683 341.331 359.833 343.965 357.812
C 344.604 357.322 345.668 357.002 346.19 356.446 Z"
opacity="1" fill="rgb(57,60,66)" fill-rule="evenodd" />
<path d="
M 222.943 462.079
C 223.927 457.991 225.948 454.104 227.538 450.23
C 228.054 448.972 228.349 446.672 229.509 445.886
C 230.469 445.846 231.394 445.787 232.348 445.96
C 233.771 449.539 235.029 453.208 236.503 456.782
C 237.196 458.465 238.352 460.571 238.379 462.4
C 237.671 462.622 236.96 462.845 236.221 462.684
C 235.521 461.374 235.112 460.01 234.687 458.594
C 232.022 458.963 229.249 458.087 226.61 458.61
C 226.092 459.805 225.953 461.917 224.796 462.658
C 224.114 462.806 223.473 462.858 222.799 462.668
C 222.847 462.472 222.895 462.275 222.943 462.079 Z
M 227.356 456.106
C 227.319 456.245 227.282 456.385 227.245 456.524
C 228.865 456.766 230.557 456.523 232.191 456.571
C 232.601 456.583 233.774 456.926 233.948 456.501
C 233.417 454.437 232.447 452.337 231.706 450.318
C 231.461 449.649 231.168 448.574 230.517 448.214
C 229.152 450.626 228.742 453.664 227.356 456.106 Z"
opacity="0.996" fill="rgb(17,17,17)" fill-rule="evenodd" />
<path d="
M 346.201 351.476
C 346.11 352.674 346.128 353.823 346.187 355.023
C 344.594 354.824 343.339 356.236 342.112 357.011
C 340.027 358.329 337.399 359.337 335.06 360.096
C 327.486 362.552 318.724 362.309 311.138 360.088
C 302.123 357.449 294.008 351.842 286.71 346.092
C 279.587 340.479 272.299 334.426 262.993 333.166
C 253.32 331.855 244.516 334.377 236.344 339.481
C 233.804 341.068 231.345 342.958 229.18 345.027
C 228.285 345.882 227.456 346.794 226.354 347.381
C 226.118 347.506 225.36 348.154 225.325 347.603
C 226.142 345.91 227.549 344.596 228.71 343.144
C 230.327 341.122 231.809 338.986 233.722 337.221
C 236.704 334.471 240.328 332.363 244.158 331.037
C 247.359 329.929 250.785 329.333 254.159 329.12
C 261.515 328.656 268.784 330.102 275.369 333.47
C 281.355 336.53 286.508 340.986 291.859 344.992
C 297.284 349.052 303.154 352.687 309.448 355.227
C 317.307 358.398 326.007 358.991 334.114 356.49
C 337.447 355.463 340.683 354.136 343.607 352.201
C 344.174 351.825 346.056 350.226 346.201 351.476 Z"
opacity="1" fill="rgb(129,162,178)" fill-rule="evenodd" />
<path d="
M 346.234 342.465
C 346.116 344.153 346.204 345.811 346.193 347.498
C 345.99 346.756 344.121 347.72 343.646 347.94
C 340.844 349.237 338.138 350.388 335.105 351.052
C 327.697 352.674 319.58 352.04 312.371 349.73
C 293.515 343.689 281.593 322.439 260.371 322.807
C 252.393 322.946 244.288 325.501 237.679 329.962
C 235.679 331.312 233.791 332.871 232.14 334.636
C 231.475 335.346 230.644 336.49 229.575 336.107
C 230.122 334.395 231.508 333.028 232.633 331.668
C 235.968 327.639 239.687 324.719 244.447 322.582
C 248.108 320.938 251.826 319.874 255.817 319.424
C 266.26 318.245 275.778 321.236 284.444 326.996
C 294.352 333.581 303.352 343.333 315.074 346.74
C 322 348.752 329.239 348.997 336.201 346.91
C 338.901 346.101 341.502 344.931 343.939 343.519
C 344.266 343.33 346.003 342.24 346.234 342.465 Z"
opacity="1" fill="rgb(130,163,179)" fill-rule="evenodd" />
<path d="
M 341.155 330.842
C 343.124 332.311 344.994 335.216 345.682 337.563
C 345.067 336.612 344.265 337.26 343.41 337.715
C 341.074 338.955 338.702 340.034 336.157 340.785
C 330.14 342.56 323.806 342.545 317.712 341.152
C 310.115 339.416 303.137 335.473 296.843 330.965
C 288.416 324.929 280.477 317.939 269.999 315.782
C 262.754 314.292 254.322 314.505 247.404 317.343
C 245.098 318.289 242.917 319.601 240.929 321.101
C 239.781 321.968 238.809 323.397 237.271 323.368
C 237.454 322.055 239.032 320.771 239.831 319.763
C 242.464 316.44 245.997 313.736 249.222 311.018
C 252.501 308.253 256.407 305.952 260.349 304.269
C 263.597 302.883 267 301.857 270.516 301.445
C 281.486 300.16 291.163 304.128 299.936 310.402
C 305.959 314.709 311.136 320.02 317.663 323.64
C 323.584 326.924 329.486 328.268 336.108 329.203
C 337.46 329.394 338.621 329.736 339.848 330.35
C 340.065 330.459 340.884 331.013 341.155 330.842 Z"
opacity="1" fill="rgb(124,158,171)" fill-rule="evenodd" />
<path d="
M 246.85 445.728
C 251.075 445.516 260.54 444.362 259.382 451.193
C 258.873 452.711 257.509 453.093 256.779 454.332
C 257.466 454.816 258.31 455.073 258.937 455.616
C 259.395 457.829 259.769 460.455 259.846 462.707
C 259.046 462.627 258.255 462.593 257.464 462.439
C 256.649 459.754 258.185 456.759 255.122 455.262
C 253.216 455.145 251.224 455.177 249.326 455.377
C 249.3 457.067 249.26 458.742 249.298 460.432
C 249.307 460.84 249.492 462.264 249.127 462.476
C 246.436 462.858 246.916 460.424 246.924 458.502
C 246.941 454.254 247.031 449.969 246.85 445.728 Z
M 249.275 447.827
C 249.207 449.75 249.268 451.668 249.223 453.589
C 250.892 453.668 253.806 453.822 255.336 453.103
C 257.598 452.04 257.839 448.989 255.415 447.891
C 253.725 447.126 250.993 447.346 249.275 447.827 Z"
opacity="1" fill="rgb(14,15,16)" fill-rule="evenodd" />
<path d="
M 266.205 445.733
C 270.579 445.542 275.273 445.352 279.634 445.745
C 279.816 446.391 279.798 446.948 279.68 447.603
C 277.972 447.746 276.222 447.712 274.507 447.711
C 273.752 448.502 273.943 449.837 273.945 450.908
C 273.949 453.589 274.075 456.269 274.091 458.95
C 274.096 459.751 274.443 461.856 273.778 462.445
C 273.173 462.419 272.58 462.503 271.977 462.461
C 271.502 458.984 271.857 455.296 271.816 451.79
C 271.801 450.498 271.998 448.931 271.626 447.69
C 270.575 447.777 267.35 448.219 266.524 447.488
C 266.201 447.203 266.236 446.039 266.205 445.733 Z"
opacity="1" fill="rgb(10,11,9)" fill-rule="evenodd" />
<path d="
M 286.532 458.629
C 286.593 457.585 287.419 456.647 288.438 457.468
C 289.144 460.272 291.525 461.37 294.229 461.157
C 295.535 461.054 297.738 460.018 297.844 458.48
C 297.934 457.179 296.714 456.104 295.602 455.73
C 292.254 454.605 286.256 454.972 287.081 449.688
C 287.193 448.969 287.412 448.348 287.854 447.764
C 290.4 444.399 296.736 444.644 299.256 447.881
C 299.968 448.797 300.317 451.563 298.42 450.589
C 297.483 449.454 296.613 448.16 295.163 447.648
C 293.065 446.908 289.084 447.611 289.333 450.53
C 289.489 452.351 291.138 452.833 292.668 453.097
C 295.71 453.621 300.679 454.151 300.161 458.451
C 299.407 464.7 287.654 464.58 286.532 458.629 Z"
opacity="1" fill="rgb(18,19,18)" fill-rule="evenodd" />
<path d="
M 320.882 452.072
C 322.492 446.43 329.655 442.745 334.501 447.362
C 335.303 448.126 337.644 452.286 335.122 451.882
C 333.765 450.625 333.189 448.898 331.424 447.95
C 324.712 444.345 320.758 454.388 324.734 458.987
C 327.8 462.534 333.726 460.988 334.123 456.305
C 332.354 455.542 329.086 456.863 329.242 454.265
C 331.475 453.789 334.241 453.919 336.541 453.86
C 336.599 455.815 336.528 457.817 336.752 459.76
C 336.842 460.533 337.176 461.898 336.802 462.617
C 336.35 462.662 335.944 462.609 335.498 462.591
C 335.031 462.129 335.336 460.278 334.637 460.402
C 333.234 461.506 331.818 462.658 329.992 462.876
C 323.912 463.604 319.635 457.748 320.882 452.072 Z"
opacity="1" fill="rgb(19,19,19)" fill-rule="evenodd" />
<path d="
M 346.17 358.469
C 346.206 357.791 346.165 357.123 346.19 356.446
C 346.21 355.969 346.205 355.5 346.187 355.023
C 346.128 353.823 346.11 352.674 346.201 351.476
C 346.292 350.166 346.271 348.807 346.193 347.498
C 346.204 345.811 346.116 344.153 346.234 342.465
C 346.258 340.844 345.963 339.157 345.682 337.563
C 344.994 335.216 343.124 332.311 341.155 330.842
C 340.043 329.467 338.341 328.633 336.912 327.638
C 336.573 327.401 335.369 326.846 335.225 326.489
C 334.799 325.434 336.128 325.95 336.582 325.96
C 338.547 326.003 340.464 326.125 342.425 325.9
C 347.295 325.341 352.313 324.2 356.648 321.83
C 361.677 319.081 365.747 314.934 370.724 312.105
C 371.61 311.601 375.009 309.502 375.865 310.415
C 376.53 317.995 375.895 325.896 375.812 333.505
C 375.67 346.502 375.72 359.506 375.736 372.503
C 375.748 382.058 374.708 392.28 377.643 401.51
C 378.953 405.632 381.483 408.785 385.165 411.035
C 386.494 411.847 387.92 412.405 389.351 413.003
C 389.929 413.245 390.747 413.378 391.01 413.973
C 390.288 414.562 388.42 414.203 387.501 414.209
C 384.169 414.23 380.835 414.173 377.502 414.173
C 366.667 414.173 355.831 414.216 344.995 414.234
C 342.166 414.239 339.338 414.254 336.51 414.324
C 335.093 414.36 333.316 414.617 332.039 413.959
C 333.071 412.686 335.846 412.057 337.317 411.171
C 339.949 409.586 341.78 407.296 343.27 404.65
C 346.448 399.008 346.149 392.677 346.164 386.422
C 346.187 377.116 345.943 367.768 346.17 358.469 Z"
opacity="1" fill="rgb(0,0,1)" fill-rule="evenodd" />
<path d="
M 340.482 287.1
C 340.691 285.259 341.343 283.469 342.16 281.816
C 349.055 267.857 371.675 269.431 376.027 284.642
C 376.63 286.75 376.767 289.27 376.5 291.439
C 376.211 293.788 375.487 296.038 374.304 298.093
C 366.548 311.567 344.872 308.691 340.948 293.568
C 340.396 291.438 340.234 289.283 340.482 287.1 Z"
opacity="1" fill="rgb(0,0,0)" fill-rule="evenodd" />
<path d="
M 345.53 454.118
C 345.423 446.02 356.411 442.442 361.159 449.027
C 362.267 450.562 362.657 452.537 362.676 454.402
C 362.746 461.323 354.507 465.703 348.834 461.509
C 346.52 459.799 345.567 456.915 345.53 454.118 Z
M 348.001 453.102
C 347.705 455.622 348.332 458.266 350.442 459.879
C 354.162 462.723 359.515 460.272 360.082 455.729
C 360.387 453.284 359.83 450.535 357.938 448.822
C 354.181 445.42 348.544 448.464 348.001 453.102 Z"
opacity="1" fill="rgb(15,16,15)" fill-rule="evenodd" />
<path d="
M 370.974 453.108
C 371.59 445.415 381.634 442.869 386.365 448.646
C 387.868 450.483 388.143 452.907 387.94 455.197
C 387.386 461.455 380.001 465.516 374.551 461.787
C 371.758 459.877 370.715 456.345 370.974 453.108 Z
M 373.416 452.581
C 372.769 455.611 373.816 458.988 376.627 460.533
C 380.357 462.583 384.587 459.885 385.423 456.045
C 386.061 453.116 385.088 449.537 382.338 448.002
C 378.623 445.927 374.237 448.738 373.416 452.581 Z"
opacity="1" fill="rgb(14,15,15)" fill-rule="evenodd" />
<path d="
M 386.964 358.618
C 388.355 348.138 390.833 338.553 397.419 329.974
C 413.879 308.534 446.35 303.097 467.314 321.166
C 474.393 327.267 478.893 336.309 480.137 345.546
C 480.514 348.343 480.662 351.189 480.698 354.008
C 480.712 355.085 480.346 357.152 480.769 358.108
C 475.169 357.361 469.15 357.859 463.501 357.834
C 452.334 357.784 441.166 357.824 429.998 357.761
C 424.774 357.732 419.382 358.069 414.18 357.648
C 416.059 370.008 419.873 382.838 430.051 390.993
C 445.954 403.735 472.034 397.985 480.804 379.404
C 481.719 378.773 482.574 379.243 482.394 380.271
C 482.137 381.738 481.509 383.156 481 384.549
C 479.206 389.451 476.672 393.932 473.523 398.096
C 464.821 409.604 451.442 415.777 437.268 416.568
C 432.817 416.816 428.22 416.28 423.911 415.168
C 398.823 408.694 385.11 383.397 386.964 358.618 Z
M 413.974 346.119
C 413.814 347.638 413.693 349.182 413.762 350.709
C 420.399 350.428 427.113 350.723 433.756 350.754
C 437.934 350.773 442.501 350.944 446.37 349.129
C 455.366 344.909 455.128 333.906 451.096 326.133
C 446.376 317.037 434.697 313.724 425.997 319.415
C 422.68 321.586 420.408 324.765 418.514 328.18
C 415.335 333.915 415.291 339.921 413.974 346.119 Z"
opacity="1" fill="rgb(0,0,1)" fill-rule="evenodd" />
<path d="
M 397.048 446.613
C 397.037 446.437 397.026 446.261 397.015 446.085
C 398.313 445.375 400.185 445.682 401.639 445.725
C 404.239 445.802 406.787 445.873 409.018 447.396
C 412.532 449.793 412.764 455.642 410.718 459.051
C 407.564 463.562 402.205 463.008 397.313 462.659
C 396.983 461.073 397.224 459.214 397.219 457.588
C 397.207 453.918 397.237 450.278 397.048 446.613 Z
M 399.744 447.747
C 399.557 452.045 399.646 456.355 399.699 460.656
C 401.631 461.326 405.509 461.201 407.157 459.849
C 410.022 457.5 410.66 451.832 407.807 449.211
C 405.641 447.221 402.435 447.582 399.744 447.747 Z"
opacity="1" fill="rgb(17,19,17)" fill-rule="evenodd" />
<path d="
M 432.88 461.541
C 434.614 456.367 436.438 451.096 438.612 446.093
C 439.484 445.519 441.143 445.707 442.146 445.774
C 443.921 449.476 445.007 453.584 446.634 457.367
C 447.218 458.724 448.824 461.235 448.791 462.684
C 447.929 462.667 447.071 462.719 446.208 462.705
C 445.341 461.523 444.917 459.818 444.468 458.432
C 442.604 457.569 438.766 458.178 436.709 458.207
C 436.178 458.607 436.059 459.591 435.918 460.216
C 435.684 461.022 435.49 462.218 434.895 462.84
C 434.195 462.933 433.413 462.747 432.718 462.643
C 432.758 461.845 432.692 462.211 432.88 461.541 Z
M 437.479 455.594
C 437.242 456.332 437.254 456.003 437.316 456.569
C 439.38 456.436 441.457 456.552 443.506 456.428
C 443.753 454.716 442.181 451.648 441.433 450.109
C 441.098 449.422 440.926 448.259 440.125 448.504
C 439.24 450.837 438.548 453.344 437.479 455.594 Z"
opacity="1" fill="rgb(19,17,20)" fill-rule="evenodd" />
<path d="
M 456.777 445.876
C 457.661 445.872 458.462 445.856 459.317 446.098
C 462.848 450 464.714 455.264 468.415 459.057
C 468.852 458.268 468.453 456.557 468.476 455.639
C 468.557 452.438 468.597 449.165 468.337 445.971
C 469.122 445.827 469.907 445.751 470.704 445.764
C 471.14 449.562 470.803 453.656 470.732 457.481
C 470.705 458.946 470.313 461.306 470.772 462.667
C 469.844 462.839 468.783 462.742 467.905 462.409
C 465.381 459.739 463.325 455.963 461.428 452.817
C 460.946 452.018 460.378 451.302 459.87 450.535
C 459.632 450.176 459.647 449.391 459.216 449.419
C 458.905 449.439 459.134 451.973 459.147 452.313
C 459.275 455.702 458.743 459.112 459.05 462.513
C 458.506 462.852 457.538 462.539 456.906 462.568
C 456.639 459.936 456.893 457.148 456.89 454.499
C 456.888 451.645 456.626 448.718 456.777 445.876 Z"
opacity="1" fill="rgb(15,15,14)" fill-rule="evenodd" />
<path d="
M 477.878 315.966
C 478.8 315.22 480.328 315.319 481.486 315.143
C 483.45 314.843 485.422 314.275 487.289 313.599
C 493.19 311.466 498.674 308.286 503.49 304.259
C 508.83 299.794 513.354 294.089 516.386 287.816
C 517.446 285.624 518.384 283.383 519.254 281.109
C 519.786 279.718 520.093 278.199 520.996 277
C 521.584 277.003 522.184 276.833 522.56 277.327
C 522.289 288.917 523.322 300.67 522.609 312.237
C 528.76 312.929 535.315 312.261 541.508 312.284
C 545.432 312.299 550 312.966 553.822 311.947
C 559.672 310.386 565.383 306.417 569.841 302.423
C 575.394 297.448 579.62 290.9 582.457 284.05
C 583.307 281.997 584.131 277.036 586.618 277.051
C 587.08 278.285 586.825 279.695 586.826 280.994
C 586.827 283.495 586.814 285.995 586.808 288.496
C 586.795 294.001 586.879 299.505 586.921 305.01
C 586.939 307.369 587.28 309.878 587.045 312.214
C 603.027 312.092 619.023 312.225 635.008 312.225
C 639.504 312.225 644.007 312.287 648.503 312.2
C 650.389 312.163 653.053 311.533 654.823 312.169
C 654.665 313.607 652.324 314.874 651.478 315.99
C 649.626 318.433 648.723 321.41 648.788 324.462
C 648.93 331.079 651.965 337.276 654.345 343.314
C 659.238 355.728 665.533 367.614 670.135 380.135
C 671.07 379.652 671.442 376.969 671.869 376.014
C 673.815 371.658 675.606 367.222 677.415 362.808
C 681.759 352.215 686.16 341.557 690.148 330.827
C 692.419 324.718 694.593 318.313 697.467 312.466
C 700.19 312.3 703.299 312.102 706.004 312.455
C 693.499 342.673 681.176 373.051 669.25 403.514
C 665.714 412.545 662.088 421.524 658.242 430.43
C 654.583 438.901 650.864 447.47 644.427 454.268
C 635.504 463.691 620.976 469.539 608.385 464.126
C 596.762 459.129 590.752 441.799 601.971 432.933
C 603.517 431.711 605.302 430.812 607.208 430.309
C 613.718 428.591 619.858 431.326 623.745 436.586
C 625.975 439.604 627.444 443.686 630.654 445.862
C 635.727 449.302 642.362 443.887 645.299 439.958
C 648.841 435.219 650.775 429.483 652.965 424.06
C 653.94 421.646 655.488 418.621 655.323 415.961
C 655.197 413.943 653.747 411.884 652.972 410.051
C 651.102 405.629 649.17 401.237 647.272 396.827
C 640.916 382.055 634.294 367.363 628.183 352.49
C 625.075 344.925 622.088 337.095 618.353 329.819
C 616.773 326.741 614.917 322.714 611.924 320.752
C 610.027 319.509 606.683 320.227 604.498 320.226
C 598.65 320.222 592.78 320.382 586.935 320.237
C 586.367 339.741 587.133 359.342 587.161 378.859
C 587.173 386.781 585.839 396.347 593.629 401.221
C 598.945 404.547 604.895 403.777 610.5 401.781
C 612.597 401.034 614.61 399.83 616.751 399.263
C 617.025 400.05 617.435 400.624 617.477 401.495
C 615.464 404.389 611.809 406.721 608.938 408.691
C 596.446 417.265 576.072 421.739 564.733 408.582
C 563.176 406.776 561.871 404.688 560.934 402.495
C 557.08 393.472 558.418 382.586 558.411 372.999
C 558.399 355.511 558.059 337.985 558.395 320.505
C 556.115 319.605 552.398 320.273 549.955 320.274
C 543.803 320.276 537.65 320.29 531.498 320.32
C 529.365 320.33 527.229 320.315 525.096 320.349
C 524.255 320.363 523.297 320.206 522.594 320.711
C 522.263 326.087 522.628 331.606 522.637 336.999
C 522.656 347.999 522.655 359 522.671 370.001
C 522.678 374.94 522.662 379.879 522.696 384.818
C 522.718 387.969 522.532 391.412 523.668 394.413
C 524.171 395.739 524.956 396.997 525.841 398.1
C 532.524 406.439 544.561 403.669 552.57 399.111
C 552.746 400.15 553.351 401.051 553.168 402.145
C 540.434 415.107 515.187 424.404 500.768 408.713
C 498.91 406.692 497.43 404.135 496.439 401.58
C 492.864 392.37 494.168 381.206 494.173 371.51
C 494.181 354.334 493.626 337.087 494.175 319.922
C 488.83 319.715 483.463 319.787 478.114 319.66
C 477.986 318.424 477.886 317.211 477.878 315.966 Z"
opacity="1" fill="rgb(0,0,0)" fill-rule="evenodd" />
<path d="
M 480.953 445.799
C 483.772 445.449 487.106 445.372 489.894 446.012
C 495.87 447.384 497.35 455.658 493.728 460.06
C 491.57 462.683 488.175 462.872 485.013 462.768
C 484.025 462.736 481.665 463.104 480.876 462.598
C 480.958 456.999 480.896 451.396 480.953 445.799 Z
M 483.349 447.872
C 483.302 451.95 482.877 456.373 483.519 460.412
C 484.334 460.945 485.731 460.797 486.68 460.759
C 488.247 460.695 489.832 460.635 491.063 459.534
C 495.33 455.717 493.105 448.334 487.499 447.709
C 486.119 447.555 484.693 447.505 483.349 447.872 Z"
opacity="1" fill="rgb(14,16,16)" fill-rule="evenodd" />
<path d="
M 517.917 445.787
C 521.891 445.741 531.301 444.271 530.62 450.855
C 530.442 452.58 529.182 453.11 528.655 454.579
C 532.209 455.82 532.186 460.203 529.001 462.01
C 526.061 463.678 521.374 462.511 518.15 462.606
C 517.599 461.125 517.939 459.07 517.934 457.508
C 517.923 453.6 517.887 449.694 517.917 445.787 Z
M 520.232 447.801
C 520.142 449.507 519.946 451.394 520.361 453.064
C 522.198 453.102 525.089 453.619 526.766 452.761
C 528.849 451.695 528.566 448.864 526.446 447.998
C 524.69 447.281 522.087 447.786 520.232 447.801 Z
M 520.582 455.038
C 520.448 455.126 520.314 455.214 520.181 455.302
C 520.214 457.106 520.163 458.924 520.166 460.732
C 522.074 461.111 526.072 461.259 527.773 460.158
C 530.012 458.708 528.669 456.002 526.625 455.178
C 524.617 455.164 522.584 454.99 520.582 455.038 Z"
opacity="1" fill="rgb(9,10,9)" fill-rule="evenodd" />
<path d="
M 539.982 462.148
C 541.358 458.302 542.863 454.473 544.398 450.684
C 545.05 449.075 545.397 447.256 546.354 445.793
C 547.376 445.774 548.706 445.653 549.584 446.227
C 550.946 449.707 552.282 453.234 553.517 456.761
C 554.158 458.589 555.241 460.515 555.495 462.43
C 554.72 462.581 554.066 462.742 553.275 462.607
C 552.691 461.263 552.175 459.937 551.839 458.507
C 551.642 458.156 550.208 458.377 549.779 458.381
C 547.776 458.399 545.757 458.339 543.77 458.582
C 543.246 459.142 543.104 459.952 542.949 460.696
C 542.743 461.374 542.477 462.024 542.16 462.657
C 541.495 463.051 540.615 462.844 539.935 462.591
C 539.951 462.443 539.966 462.296 539.982 462.148 Z
M 544.977 455.08
C 544.795 455.675 544.573 456.027 544.757 456.628
C 546.322 456.698 547.873 456.568 549.437 456.601
C 549.817 456.61 550.82 456.927 551.015 456.508
C 550.581 454.487 549.555 452.515 548.883 450.553
C 548.62 449.786 548.276 448.652 547.424 448.892
C 546.535 450.903 545.988 453.136 544.977 455.08 Z"
opacity="0.996" fill="rgb(12,11,12)" fill-rule="evenodd" />
<path d="
M 564.192 445.681
C 567.859 445.46 572.249 444.88 575.514 446.936
C 580.094 449.819 580.211 458.261 575.736 461.339
C 572.7 463.427 567.643 463.137 564.146 462.672
C 564.106 457.01 564.421 451.346 564.192 445.681 Z
M 566.795 447.805
C 566.323 452.008 566.503 456.505 566.658 460.728
C 568.892 460.98 572.635 461.255 574.453 459.702
C 577.595 457.017 577.069 450.751 573.839 448.408
C 572.113 447.155 568.743 447.231 566.795 447.805 Z"
opacity="1" fill="rgb(15,17,17)" fill-rule="evenodd" />

</svg>