<svg xmlns="http://www.w3.org/2000/svg"
shape-rendering="geometricPrecision"
width="4000" height="4000" viewBox="0 0 620 620"><rect width="100%" height="100%" fill="#E6E6E9" />
  <metadata>null</metadata>

<path d="
M 28.465 263.111
C 29.268 257.295 30.403 251.83 32.786 246.422
C 34.242 243.116 36.392 240.114 38.729 237.386
C 45.136 229.907 54.215 224.871 63.98 223.411
C 69.613 222.569 75.477 222.905 81.153 222.906
C 88.438 222.907 95.723 222.924 103.009 222.927
C 126.68 222.935 150.452 222.193 174.112 222.856
C 174.505 223.672 174.238 225.054 174.206 225.952
C 174.104 228.797 173.751 231.595 173.211 234.389
C 170.642 247.675 160.758 259.418 148.33 264.659
C 134.27 270.587 118.418 268.767 103.498 268.782
C 88.165 268.797 72.831 268.751 57.498 268.74
C 47.835 268.732 38.107 269.023 28.463 268.462
C 28.066 266.785 28.325 264.816 28.465 263.111 Z"
opacity="1" fill="rgb(21,38,51)" fill-rule="evenodd" />
<path d="
M 28.498 319.609
C 29.348 313.257 30.102 307.41 32.896 301.528
C 34.458 298.241 36.396 295.173 38.749 292.395
C 45.232 284.744 54.191 280.026 64.079 278.62
C 71.736 277.531 79.791 278.17 87.507 278.161
C 99.796 278.146 112.088 278.007 124.375 278.081
C 124.487 283.64 124.068 288.968 122.636 294.36
C 118.381 310.378 103.553 321.179 87.797 324.044
C 83.934 324.746 79.965 324.525 76.062 324.531
C 69.697 324.541 63.333 324.547 56.968 324.538
C 50.772 324.53 44.578 324.405 38.381 324.442
C 35.36 324.46 31.653 325.035 28.733 324.232
C 28.089 322.902 28.387 321.046 28.498 319.609 Z"
opacity="1" fill="rgb(21,39,52)" fill-rule="evenodd" />
<path d="
M 28.762 334.914
C 29.721 333.695 31.124 333.73 32.56 333.73
C 34.874 333.731 37.188 333.737 39.502 333.743
C 47.502 333.762 55.502 333.727 63.502 333.727
C 66.003 333.727 68.504 333.73 71.006 333.747
C 72.089 333.755 73.409 333.598 74.434 333.964
C 74.812 336.59 74.653 339.309 74.616 341.963
C 74.357 360.575 65.059 377.09 47.51 384.4
C 43.209 386.192 38.583 387.409 33.932 387.773
C 32.452 387.889 30.186 388.381 28.84 387.651
C 28.103 384.168 28.634 380.062 28.631 376.505
C 28.624 369.338 28.666 362.172 28.677 355.006
C 28.683 350.673 28.678 346.34 28.641 342.007
C 28.622 339.729 28.26 337.141 28.762 334.914 Z"
opacity="1" fill="rgb(20,38,52)" fill-rule="evenodd" />
<path d="
M 205.823 264.948
C 207.129 263.39 208.8 263.404 210.689 263.393
C 213.7 263.375 216.711 263.455 219.722 263.435
C 220.559 263.429 222.577 263.802 223.275 263.37
C 223.05 250.297 226.164 235.787 238.4 228.683
C 241.019 227.162 243.829 225.962 246.744 225.13
C 250.437 224.075 254.426 223.674 258.257 223.707
C 261.951 223.74 265.597 224.241 269.197 225.049
C 270.786 225.405 272.335 225.648 273.627 226.702
C 274.194 227.776 273.936 229.247 273.993 230.438
C 274.144 233.574 274.762 237.765 273.675 240.752
C 272.543 242.338 270.997 241.996 269.293 241.637
C 266.346 241.015 263.43 240.359 260.407 240.25
C 252.57 239.969 245.303 243.065 242.616 250.912
C 241.893 253.022 241.659 255.26 241.55 257.475
C 241.47 259.096 240.734 261.953 241.389 263.425
C 248.017 263 254.856 263.542 261.506 263.547
C 264.555 263.55 268.896 262.787 271.803 263.766
C 272.602 264.035 273.439 264.82 273.62 265.663
C 273.84 266.681 273.615 267.959 273.628 269.004
C 273.665 271.854 275.034 278.255 272.125 279.961
C 270.049 281.179 265.839 280.296 263.499 280.3
C 256.271 280.31 248.784 279.747 241.592 280.454
C 240.98 281.96 241.269 283.893 241.252 285.501
C 241.214 289.167 241.224 292.835 241.224 296.501
C 241.224 308.834 241.223 321.168 241.259 333.501
C 241.27 337.335 241.295 341.168 241.288 345.002
C 241.285 346.472 241.693 348.561 240.946 349.9
C 240.059 351.487 238.497 351.362 236.906 351.373
C 233.362 351.398 229.588 351.695 226.066 351.297
C 224.917 351.167 223.547 350.325 223.305 349.108
C 222.863 346.888 223.24 344.266 223.243 342.003
C 223.248 337.337 223.249 332.67 223.25 328.003
C 223.256 312.201 223.606 296.355 223.316 280.561
C 222.368 280.051 220.625 280.389 219.546 280.379
C 216.63 280.353 213.695 280.309 210.784 280.52
C 208.886 280.658 206.563 280.814 205.803 278.579
C 205.015 276.26 205.618 272.868 205.614 270.433
C 205.611 268.729 205.204 266.547 205.823 264.948 Z"
opacity="1" fill="rgb(20,39,52)" fill-rule="evenodd" />
<path d="
M 212.009 375.101
C 212.083 374.832 212.157 374.563 212.231 374.294
C 212.884 374.262 213.511 374.156 214.155 374.275
C 214.522 375.904 214.245 377.814 214.25 379.487
C 214.261 383.309 214.049 387.21 214.397 391.018
C 215.09 391.362 216.209 391.149 216.979 391.137
C 219.015 391.106 221.046 391.164 223.079 391.15
C 223.371 391.767 223.388 392.344 223.392 393.02
C 219.769 393.569 216.054 392.922 212.429 392.944
C 211.55 392.327 212.061 389.493 212.066 388.482
C 212.087 384.026 212.207 379.551 212.009 375.101 Z"
opacity="1" fill="rgb(20,32,53)" fill-rule="evenodd" />
<path d="
M 225.472 384.084
C 226.879 380.091 232.28 377.964 236.009 380.003
C 239.292 381.798 240.653 385.908 239.328 389.374
C 236.217 397.515 222.527 392.449 225.472 384.084 Z
M 227.489 386.116
C 227.187 392.239 237.125 393.73 237.651 387.363
C 237.825 385.25 236.961 382.878 235.026 381.808
C 231.707 379.972 227.671 382.44 227.489 386.116 Z"
opacity="1" fill="rgb(21,36,53)" fill-rule="evenodd" />
<path d="
M 242.506 386.119
C 242.993 382.108 245.887 378.868 250.192 379.33
C 251.141 379.432 251.985 379.76 252.732 380.351
C 252.937 380.512 253.972 381.526 254.179 381.258
C 254.47 380.701 254.668 380.037 254.836 379.427
C 257.572 378.818 256.694 384.047 256.709 385.599
C 256.746 389.603 257.93 395.463 253.733 397.816
C 251.596 399.014 248.505 399.057 246.228 398.197
C 244.663 397.605 243.3 397.224 243.888 395.373
C 247.243 395.374 251.492 398.828 254.034 394.642
C 254.587 393.254 254.835 392.125 254.635 390.647
C 253.469 391.593 251.881 392.727 250.36 392.943
C 246.223 393.53 242.433 390.376 242.506 386.119 Z
M 244.96 385.604
C 244.741 387.674 245.521 389.57 247.507 390.484
C 250.063 391.661 253.949 390.509 254.399 387.426
C 254.555 386.352 254.638 384.723 254.047 383.775
C 251.593 379.839 245.474 380.762 244.96 385.604 Z"
opacity="1" fill="rgb(21,38,50)" fill-rule="evenodd" />
<path d="
M 260.847 374.301
C 261.53 373.93 262.632 373.727 263.299 374.193
C 263.506 375.026 263.477 375.988 262.842 376.616
C 262.284 376.837 261.733 376.834 261.14 376.856
C 260.705 376.137 260.724 375.111 260.847 374.301 Z"
opacity="1" fill="rgb(27,27,35)" fill-rule="evenodd" />
<path d="
M 260.767 379.727
C 261.568 379.684 262.319 379.682 263.117 379.768
C 263.42 384.025 263.349 388.51 263.147 392.774
C 262.512 392.911 261.752 392.8 261.106 392.789
C 260.308 388.687 260.779 383.908 260.767 379.727 Z"
opacity="1" fill="rgb(25,30,47)" fill-rule="evenodd" />
<path d="
M 267.465 384.087
C 268.76 380.839 271.3 379.126 274.843 379.449
C 276.089 379.562 279.743 380.723 278.286 382.629
C 277.271 383.02 276.18 381.983 275.293 381.629
C 274.097 381.15 272.731 381.203 271.624 381.886
C 268.656 383.719 268.361 389.353 271.782 390.891
C 274.193 391.975 276.289 390.474 278.604 390.087
C 279.51 392.499 275.755 393.327 273.992 393.324
C 269.019 393.316 266.198 388.687 267.465 384.087 Z"
opacity="1" fill="rgb(19,29,47)" fill-rule="evenodd" />
<path d="
M 288.385 236.089
C 288.607 234.54 289.168 233.079 289.978 231.747
C 296.121 221.645 312.984 226.966 311.528 238.958
C 311.352 240.408 310.857 241.727 310.134 242.988
C 304.165 253.406 286.602 248.486 288.385 236.089 Z"
opacity="1" fill="rgb(21,39,52)" fill-rule="evenodd" />
<path d="
M 288.913 388.041
C 291.24 384.429 295.258 385.372 298.875 385.399
C 299.082 382.334 295.766 380.448 293.075 381.437
C 292.065 381.808 290.67 383.228 289.609 382.694
C 289.655 381.882 289.835 381.324 290.256 380.63
C 292.89 378.336 298.152 378.718 299.859 381.96
C 301.062 384.245 300.658 387.409 300.694 389.905
C 300.708 390.881 300.924 391.904 300.738 392.868
C 300.284 393.261 299.72 393.102 299.153 393.185
C 298.994 392.714 298.851 392.009 298.555 391.622
C 297.251 392.122 296.223 393.173 294.831 393.525
C 291.39 394.395 287.667 391.704 288.913 388.041 Z
M 290.927 389.081
C 290.935 393.558 299.444 391.712 298.45 387.2
C 296.162 386.406 292.464 386.287 291.075 388.621
C 291.025 388.774 290.976 388.928 290.927 389.081 Z"
opacity="1" fill="rgb(22,30,54)" fill-rule="evenodd" />
<path d="
M 290.382 265.556
C 291.164 263.447 292.885 263.321 294.866 263.309
C 297.609 263.291 300.354 263.318 303.096 263.371
C 304.502 263.398 306.228 263.157 307.388 264.107
C 309.586 265.905 308.401 271.43 308.399 274.01
C 308.388 290.844 308.404 307.678 308.43 324.512
C 308.437 329.718 308.466 334.922 308.54 340.128
C 308.579 342.821 308.98 345.922 308.526 348.575
C 308.347 349.626 307.641 350.703 306.601 351.098
C 305.418 351.546 303.835 351.3 302.596 351.3
C 299.383 351.299 291.809 352.85 290.326 349.061
C 289.743 343.996 290.256 338.599 290.265 333.502
C 290.284 323.335 290.317 313.168 290.311 303.001
C 290.306 294.667 290.311 286.334 290.303 278.001
C 290.299 273.951 289.773 269.562 290.382 265.556 Z"
opacity="1" fill="rgb(20,38,53)" fill-rule="evenodd" />
<path d="
M 303.226 379.693
C 304.076 379.423 305.444 379.724 306.111 379.252
C 306.189 378.148 305.945 376.865 305.934 375.719
C 306.654 375.504 307.299 375.479 308.048 375.541
C 308.352 376.842 308.14 378.15 308.374 379.447
C 309.658 379.429 310.981 379.452 312.256 379.605
C 312.376 380.209 312.395 380.758 312.346 381.37
C 311.029 381.566 309.63 381.294 308.299 381.311
C 308.064 382.218 308.148 383.286 308.139 384.223
C 308.121 386.263 307.407 389.372 308.764 391.093
C 309.941 391.471 311.815 390.432 312.788 391.033
C 312.834 391.642 312.681 392.109 312.418 392.662
C 310.669 394.098 307.161 393.076 306.346 391
C 305.565 389.013 306.02 386.396 306.09 384.324
C 306.117 383.509 306.511 382.06 306.042 381.345
C 304.425 381.103 303.127 381.758 303.226 379.693 Z"
opacity="1" fill="rgb(19,23,43)" fill-rule="evenodd" />
<path d="
M 323.419 383.106
C 324.495 378.894 329.998 378.298 333.1 380.801
C 333.517 381.383 333.391 382.135 332.876 382.623
C 331.992 382.681 331.348 381.86 330.598 381.512
C 328.776 380.668 325.785 381.298 325.393 383.561
C 326.993 386.579 332.979 385.17 333.841 389.092
C 334.186 390.662 332.653 392.22 331.339 392.823
C 328.361 394.192 323.136 393.44 323.281 389.483
C 324.339 389.894 325.167 390.603 326.189 391.067
C 327.433 391.632 329.468 391.954 330.673 391.098
C 331.315 390.641 331.994 390.082 331.519 389.26
C 329.726 386.154 323.44 387.802 323.419 383.106 Z"
opacity="1" fill="rgb(23,30,42)" fill-rule="evenodd" />
<path d="
M 330.368 265.534
C 330.446 265.379 330.524 265.225 330.602 265.07
C 333.339 262.276 339.511 263.6 343.082 263.638
C 344.734 263.656 346.223 263.613 347.477 264.834
C 348.091 265.918 347.909 267.222 347.967 268.429
C 348.097 271.115 347.789 273.84 347.959 276.505
C 348.585 276.226 348.799 275.3 349.124 274.744
C 349.689 273.777 350.377 272.942 351.152 272.137
C 365.783 256.238 394.859 260.052 404.11 279.767
C 407.5 286.993 407.774 295.112 407.847 302.939
C 407.918 310.63 407.931 318.322 407.921 326.013
C 407.913 331.679 407.887 337.345 407.89 343.011
C 407.891 344.78 408.576 348.179 407.657 349.744
C 406.749 351.292 405.077 351.291 403.503 351.288
C 399.841 351.282 395.717 351.839 392.105 351.236
C 391.111 351.07 390.1 350.029 389.88 349.047
C 389.019 345.202 389.79 340.441 389.783 336.504
C 389.776 332.504 389.768 328.504 389.766 324.504
C 389.765 321.17 389.769 317.837 389.765 314.504
C 389.753 303.434 391.629 289.083 380.727 282.209
C 379.383 281.362 377.949 280.626 376.427 280.154
C 374.374 279.517 372.213 279.263 370.069 279.259
C 367.624 279.254 365.037 279.615 362.727 280.435
C 355.51 282.998 350.519 289.701 348.908 297.044
C 348.088 300.781 348.34 304.705 348.35 308.506
C 348.365 313.839 348.35 319.172 348.339 324.505
C 348.33 328.338 348.317 332.171 348.312 336.004
C 348.309 338.837 348.308 341.67 348.295 344.503
C 348.289 345.975 348.539 347.688 348.16 349.119
C 347.608 351.203 345.705 351.356 343.913 351.339
C 341.176 351.313 338.442 351.383 335.706 351.387
C 333.604 351.39 331.734 351.361 330.5 349.424
C 329.75 346.599 330.364 342.92 330.364 339.998
C 330.364 333.666 330.323 327.334 330.318 321.002
C 330.307 308.503 330.316 296.003 330.31 283.503
C 330.308 279.503 330.318 275.503 330.305 271.503
C 330.299 269.556 330.04 267.456 330.368 265.534 Z"
opacity="1" fill="rgb(21,38,52)" fill-rule="evenodd" />
<path d="
M 336.871 384.56
C 338.114 381.139 340.661 379.181 344.402 379.414
C 345.946 379.511 348.978 380.523 348.998 382.493
C 349.013 383.942 346.686 381.965 346.216 381.716
C 344.652 380.892 342.368 381.081 340.906 382.077
C 338.069 384.011 337.723 389.238 341.006 390.945
C 342.015 391.47 343.652 391.775 344.767 391.421
C 346.164 390.975 347.418 389.101 348.874 390.51
C 349.046 392.761 344.7 393.607 343.004 393.485
C 338.423 393.156 335.735 388.872 336.871 384.56 Z"
opacity="1" fill="rgb(25,35,42)" fill-rule="evenodd" />
<path d="
M 351.811 388.529
C 352.993 385.782 356.013 385.204 358.714 385.368
C 359.792 385.433 360.945 385.791 361.994 385.427
C 361.838 382.036 359.182 380.485 355.942 381.326
C 354.727 381.641 353.877 382.692 352.593 382.761
C 352.445 379.097 358.609 378.642 360.918 379.901
C 364.38 381.789 363.943 385.77 363.788 389.16
C 363.742 390.17 364.238 392.333 363.414 393.057
C 362.208 393.032 361.979 392.962 361.789 391.695
C 361.223 391.459 359.27 393.026 358.603 393.294
C 355.398 394.579 351.064 392.279 351.811 388.529 Z
M 353.859 389.055
C 354.098 393.862 362.336 391.605 361.803 387.191
C 359.127 386.722 355.291 386.141 353.859 389.055 Z"
opacity="0.996" fill="rgb(24,34,48)" fill-rule="evenodd" />
<path d="
M 368.298 372.83
C 369.023 372.725 369.726 372.625 370.439 372.829
C 369.939 379.37 370.127 386.356 370.35 392.917
C 369.72 393.092 369.096 393.036 368.447 393.036
C 367.638 391.36 368.159 388.594 368.178 386.752
C 368.226 382.111 368.245 377.469 368.298 372.83 Z"
opacity="1" fill="rgb(24,38,51)" fill-rule="evenodd" />
<path d="
M 373.918 385.587
C 374.814 382.592 377.044 379.626 380.387 379.383
C 384.071 379.115 389.108 382.553 387.655 386.814
C 383.96 388.052 379.66 386.948 375.817 387.324
C 376.885 390.44 379.893 392.341 383.141 391.254
C 384.163 390.911 386.284 389.154 387.302 390.083
C 386.98 392.206 383.32 393.361 381.467 393.439
C 377.278 393.615 373.407 389.807 373.918 385.587 Z
M 376.411 384.511
C 376.123 385.186 376.274 384.791 375.991 385.707
C 377.931 385.504 380.045 385.535 382.01 385.604
C 383.127 385.644 384.556 385.908 385.612 385.49
C 385.952 382.37 381.972 380.585 379.434 381.474
C 378.045 381.961 377.09 383.281 376.411 384.511 Z"
opacity="1" fill="rgb(22,35,52)" fill-rule="evenodd" />
<path d="
M 390.776 390.248
C 391.602 389.905 392.608 389.651 393.309 390.331
C 393.381 391.061 393.644 392.448 392.906 392.895
C 392.196 392.941 391.548 392.974 390.874 392.739
C 390.538 391.844 390.627 391.197 390.776 390.248 Z"
opacity="1" fill="rgb(11,29,56)" fill-rule="evenodd" />
<path d="
M 404.724 374.214
C 407.934 373.756 413.461 373.319 416.491 374.695
C 419.547 376.083 420.069 380.443 418.04 382.883
C 417.122 383.986 415.715 384.708 414.582 385.569
C 415.854 387.524 417.238 389.519 418.705 391.335
C 419.011 391.714 420.139 392.642 419.827 393.133
C 419.028 393.335 418.194 393.191 417.407 392.982
C 414.796 391.29 414.042 387.629 411.554 385.727
C 410.508 385.598 407.793 384.991 407.144 385.884
C 407.238 388.258 407.455 390.783 407.27 393.151
C 406.605 393.186 405.914 393.088 405.262 393.196
C 404.881 391.889 405.169 390.472 405.041 389.132
C 404.57 384.216 404.757 379.153 404.724 374.214 Z
M 406.948 376.374
C 407 378.652 406.615 381.17 407.171 383.398
C 409.731 383.276 413.262 384.361 415.483 382.699
C 417.275 381.36 417.487 378.09 415.48 376.809
C 413.579 375.595 409.025 375.818 406.948 376.374 Z"
opacity="1" fill="rgb(20,39,54)" fill-rule="evenodd" />
<path d="
M 421.971 385.085
C 423.29 381.235 426.627 378.312 430.972 379.653
C 433.416 380.407 435.08 382.719 435.533 385.152
C 435.625 385.647 435.953 386.742 435.723 387.178
C 431.924 387.269 427.8 386.776 424.067 387.52
C 425.208 390.481 428.047 392.305 431.24 391.352
C 432.65 390.932 433.661 389.8 435.151 389.679
C 436.154 391.274 431.957 393.083 430.883 393.376
C 425.705 394.791 421.403 390.08 421.971 385.085 Z
M 423.932 385.076
C 423.882 385.312 423.832 385.549 423.783 385.786
C 427.112 385.815 430.473 385.736 433.808 385.699
C 433.897 385.257 433.398 384.571 433.211 384.169
C 432.204 382.003 430.392 380.988 428.019 381.339
C 425.648 381.689 424.994 383.222 423.932 385.076 Z"
opacity="1" fill="rgb(13,31,49)" fill-rule="evenodd" />
<path d="
M 423.476 266.103
C 423.838 263.766 425.569 263.686 427.566 263.665
C 431.38 263.624 435.193 263.613 439.007 263.605
C 453.341 263.573 467.674 263.608 482.008 263.65
C 485.507 263.66 489.012 263.61 492.511 263.663
C 493.79 263.683 495.433 263.812 496.059 265.165
C 496.799 266.763 496.168 269.531 496.127 271.243
C 496.069 273.632 496.424 276.539 495.758 278.852
C 495.379 280.172 494.115 281.311 493.289 282.369
C 491.281 284.944 489.157 287.468 486.947 289.872
C 477.469 300.186 468.384 310.871 458.966 321.236
C 456.18 324.303 453.498 327.467 450.692 330.517
C 449.595 331.71 447.651 333.218 446.985 334.646
C 449.716 334.793 452.517 334.404 455.263 334.417
C 464.677 334.461 474.092 334.441 483.507 334.428
C 486.265 334.424 489.024 334.389 491.782 334.401
C 493.627 334.409 495.272 334.334 496.591 335.801
C 497.107 336.78 496.926 337.931 496.968 339.004
C 497.08 341.898 496.864 344.777 496.844 347.676
C 496.834 349.009 496.649 350.637 495.144 351.123
C 493.471 351.663 491.236 351.297 489.5 351.28
C 486 351.245 482.499 351.251 478.998 351.242
C 466.998 351.213 454.998 351.232 442.998 351.241
C 438.194 351.244 433.386 351.206 428.583 351.284
C 426.659 351.315 424.309 351.73 423.353 349.573
C 422.654 347.998 423.074 345.602 423.078 343.91
C 423.085 341.698 422.665 338.626 423.42 336.529
C 423.912 335.162 425.36 333.978 426.282 332.885
C 428.499 330.253 430.784 327.691 433.115 325.159
C 443.325 314.07 453.789 303.045 463.455 291.474
C 465.786 288.683 468.381 286.038 470.874 283.388
C 471.746 282.461 473.605 281.248 474.039 280.079
C 469.563 280.481 464.989 280.171 460.499 280.148
C 452.832 280.109 445.165 280.142 437.498 280.162
C 434.544 280.17 431.589 280.24 428.635 280.225
C 427.351 280.219 425.774 280.452 424.756 279.513
C 423.301 278.171 423.417 276.291 423.423 274.478
C 423.431 271.694 423.35 268.884 423.476 266.103 Z"
opacity="1" fill="rgb(20,38,52)" fill-rule="evenodd" />
<path d="
M 437.348 380.436
C 438.034 379.564 439.622 380.135 440.03 379.566
C 440.102 378.375 439.859 377.148 439.818 375.948
C 440.694 375.652 441.531 375.643 442.414 375.912
C 442.365 377.181 442.347 378.404 442.151 379.661
C 443.67 379.623 445.221 379.702 446.745 379.797
C 447.012 380.4 446.921 381.159 446.871 381.804
C 445.531 381.59 443.42 381.163 442.142 381.702
C 442.134 384.525 441.105 388.402 442.735 390.891
C 444.109 392.052 445.89 390.792 447.402 390.964
C 447.358 394.707 442.083 393.582 440.559 391.412
C 438.844 388.97 439.975 384.449 440.011 381.66
C 439.196 381.559 438.412 381.313 437.587 381.327
C 437.251 380.9 437.387 381.176 437.348 380.436 Z"
opacity="1" fill="rgb(17,30,48)" fill-rule="evenodd" />
<path d="
M 449.422 388.597
C 450.708 384.034 456.094 386.129 459.351 385.339
C 459.381 384.48 459.22 383.555 458.793 382.804
C 457.328 381.213 455.24 381.052 453.26 381.74
C 452.139 382.129 451.263 382.838 450.04 382.607
C 450.595 378.178 457.716 378.974 460.123 381.192
C 462.221 383.124 461.326 387.385 461.31 389.985
C 461.305 390.963 461.528 391.909 461.314 392.881
C 460.742 393.179 460.396 393.128 459.8 392.943
C 459.771 392.304 459.581 391.744 459.557 391.1
C 458.455 391.752 457.657 392.864 456.415 393.28
C 453.034 394.411 449.296 392.361 449.422 388.597 Z
M 451.878 387.962
C 451.788 388.168 451.698 388.374 451.607 388.58
C 451.813 394.177 460.971 391.059 458.819 387.015
C 456.662 386.615 453.642 386.394 451.878 387.962 Z"
opacity="0.996" fill="rgb(21,34,54)" fill-rule="evenodd" />
<path d="
M 465.87 374.304
C 467.672 373.941 468.56 375.148 467.891 376.85
C 466.053 377.102 465.157 376.268 465.87 374.304 Z"
opacity="1" fill="rgb(14,29,37)" fill-rule="evenodd" />
<path d="
M 465.854 379.813
C 466.509 379.796 467.274 379.702 467.873 379.999
C 467.833 384.231 468.264 388.68 467.855 392.882
C 467.239 392.897 466.623 392.926 466.006 392.932
C 464.915 389.08 465.711 383.788 465.854 379.813 Z"
opacity="1" fill="rgb(25,37,50)" fill-rule="evenodd" />
<path d="
M 472.36 374.328
C 473.146 374.189 473.928 374.028 474.713 373.887
C 475.103 375.577 474.729 377.743 474.726 379.49
C 474.716 383.919 474.623 388.379 474.802 392.803
C 474.082 392.94 473.232 392.95 472.508 392.876
C 471.912 386.868 472.108 380.358 472.36 374.328 Z"
opacity="1" fill="rgb(33,47,60)" fill-rule="evenodd" />
<path d="
M 486.168 374.262
C 489.757 374.222 494.958 373.178 498.263 374.923
C 501.322 376.538 502.381 380.638 500.045 383.3
C 498.97 384.525 497.69 384.904 496.261 385.528
C 498.002 387.618 500.49 390.241 501.409 392.873
C 500.703 393.109 499.684 393.013 498.961 392.866
C 498.093 392.493 497.538 391.352 497.019 390.608
C 495.893 388.992 494.955 387.184 493.585 385.757
C 492.059 385.458 490.425 385.365 488.871 385.452
C 488.019 387.589 488.921 390.56 488.653 392.854
C 488.128 393.324 487.199 393.055 486.575 392.897
C 485.836 386.884 485.998 380.321 486.168 374.262 Z
M 488.512 377.609
C 488.359 379.461 488.456 381.573 488.729 383.407
C 491.033 383.707 494.932 384.19 497.098 383.226
C 499.575 382.125 499.961 378.299 497.504 376.918
C 495.605 375.851 490.631 375.813 488.649 376.629
C 488.525 377.361 488.564 377.034 488.512 377.609 Z"
opacity="1" fill="rgb(23,37,55)" fill-rule="evenodd" />
<path d="
M 503.912 385.588
C 504.876 381.705 508.547 378.32 512.792 379.304
C 515.582 379.95 519.195 383.704 517.682 386.791
C 514.012 388.219 509.779 386.152 506.163 387.611
C 507.71 390.291 509.883 392.322 513.212 391.325
C 514.643 390.896 515.954 389.478 517.494 389.935
C 516.914 392.515 513.632 393.59 511.217 393.531
C 507.12 393.431 503.445 389.793 503.912 385.588 Z
M 506.389 384.503
C 506.128 385.185 506.198 384.831 506.181 385.564
C 508.169 385.581 510.136 385.381 512.133 385.476
C 513.379 385.534 514.981 385.9 516.182 385.562
C 515.822 381.911 511.789 380.156 508.705 381.791
C 507.531 382.413 507.004 383.389 506.389 384.503 Z"
opacity="1" fill="rgb(16,31,53)" fill-rule="evenodd" />
<path d="
M 507.478 302.603
C 509.039 292.225 512.314 282.523 519.697 274.764
C 535.32 258.347 565.36 257.996 580.492 275.4
C 587.46 283.414 591.388 293.52 591.717 304.155
C 591.8 306.842 592.918 312.327 590.17 314.054
C 588.847 314.885 586.391 314.459 584.91 314.438
C 580.607 314.376 576.304 314.345 572.001 314.322
C 561.836 314.268 551.671 314.357 541.507 314.404
C 535.744 314.43 529.85 314.072 524.11 314.584
C 524.705 317.589 525.444 320.311 526.937 323.007
C 533.847 335.478 549.531 339.002 562.346 334.64
C 566.032 333.386 569.455 331.362 572.731 329.285
C 574.458 328.19 575.989 326.517 578.039 326.092
C 580.928 327.104 583.886 330.691 585.831 332.982
C 586.517 333.789 587.85 335.108 587.574 336.249
C 586.563 338.795 583.508 340.934 581.412 342.54
C 573.582 348.539 564.849 351.404 555.134 352.458
C 539.153 354.191 522.22 346.279 513.837 332.459
C 508.448 323.574 506.366 312.91 507.478 302.603 Z
M 524.913 298.069
C 524.753 298.7 524.839 298.371 524.656 299.058
C 525.332 299.635 527.365 299.351 528.273 299.337
C 531.35 299.29 534.429 299.339 537.506 299.34
C 549.882 299.346 562.336 299.688 574.696 299.119
C 574.906 296.573 573.347 293.512 572.147 291.362
C 568.05 284.026 560.479 279.007 552.024 278.426
C 538.865 277.52 528.413 285.715 524.913 298.069 Z"
opacity="1" fill="rgb(21,38,52)" fill-rule="evenodd" />
<path d="
M 519.407 379.882
C 520.14 379.49 521.005 379.396 521.826 379.309
C 522.047 378.397 522.003 377.401 522.305 376.514
C 523.434 373.205 526.722 373.103 529.583 373.61
C 529.993 374.215 529.963 374.524 529.78 375.209
C 528.217 375.353 526.463 375.178 525.07 376.012
C 524.502 376.76 523.983 378.443 524.448 379.311
C 525.866 379.342 527.274 379.501 528.688 379.635
C 529.086 380.208 529.074 381.005 529.203 381.691
C 527.755 381.997 525.875 381.28 524.338 381.363
C 523.963 385.082 524.302 389.082 524.376 392.822
C 523.742 392.841 523.108 392.84 522.474 392.874
C 521.886 392.317 522.139 390.833 522.136 390.034
C 522.126 387.309 521.872 384.406 522.113 381.707
C 520.618 381.298 519.085 381.839 519.407 379.882 Z"
opacity="1" fill="rgb(25,40,60)" fill-rule="evenodd" />
<path d="
M 531.861 374.855
C 532 374.774 532.14 374.692 532.279 374.61
C 533.501 374.729 534.286 375.431 533.797 376.714
C 532.103 377.107 531.847 376.493 531.861 374.855 Z"
opacity="1" fill="rgb(24,40,51)" fill-rule="evenodd" />
<path d="
M 531.905 379.844
C 532.486 379.79 533.401 379.566 533.839 379.991
C 533.544 384.203 534.383 388.636 533.842 392.803
C 533.234 392.801 532.62 392.834 532.015 392.883
C 531.465 391.925 531.767 390.315 531.77 389.232
C 531.779 386.11 531.594 382.949 531.905 379.844 Z"
opacity="1" fill="rgb(21,33,54)" fill-rule="evenodd" />
<path d="
M 538.474 381.622
C 538.547 380.968 538.636 380.351 538.638 379.69
C 540.553 379.653 540.423 380.351 540.49 382.037
C 542.5 380.828 543.555 379.058 546.203 379.384
C 551.29 380.011 550.752 385.267 550.829 389.052
C 550.849 390.041 551.344 391.881 550.9 392.736
C 550.285 392.725 549.668 392.773 549.054 392.806
C 548.346 392.386 548.693 390.232 548.705 389.449
C 548.751 386.389 549.541 380.701 544.709 381.377
C 544.156 381.454 543.65 381.661 543.157 381.915
C 542.247 382.384 541.382 383.117 540.892 384.015
C 540.417 386.904 540.952 389.887 540.795 392.792
C 540.278 392.87 538.924 393.159 538.68 392.593
C 538.235 391.562 538.544 389.824 538.558 388.724
C 538.588 386.357 538.408 383.985 538.474 381.622 Z"
opacity="1" fill="rgb(20,35,55)" fill-rule="evenodd" />
<path d="
M 554.495 384.068
C 556.04 380.699 558.909 378.819 562.687 379.473
C 565.618 379.98 569.31 384.014 568.216 387.247
C 564.716 387.296 559.613 386.275 556.412 387.798
C 557.65 391.016 560.721 392.286 563.968 391.121
C 565.301 390.643 565.936 389.167 567.506 389.94
C 567.216 392.683 562.811 393.762 560.514 393.449
C 555.894 392.818 553.211 388.484 554.495 384.068 Z
M 556.51 384.593
C 556.32 385.228 556.41 384.894 556.243 385.596
C 557.787 386.041 559.836 385.515 561.43 385.459
C 562.737 385.413 564.181 385.735 565.444 385.377
C 565.868 382.235 561.92 380.815 559.463 381.495
C 557.91 381.925 557.098 383.211 556.51 384.593 Z"
opacity="1" fill="rgb(18,31,55)" fill-rule="evenodd" />
<path d="
M 570.969 384.592
C 572.781 379.749 578.781 377.166 582.465 381.879
C 582.773 381.862 582.598 380.26 582.595 379.992
C 582.573 377.905 582.692 375.814 582.611 373.727
C 582.954 373.671 584.349 373.334 584.666 373.66
C 585.291 374.303 584.77 377.159 584.767 377.989
C 584.751 381.622 584.738 385.263 584.787 388.896
C 584.803 390.106 585.23 392.009 584.598 393.093
C 583.98 393.149 583.355 393.219 582.746 393.087
C 582.784 392.72 582.93 390.959 582.657 390.814
C 581.426 392.065 579.876 393.218 578.09 393.45
C 573.058 394.102 569.907 389.117 570.969 384.592 Z
M 572.996 385.595
C 571.926 392.507 582.029 393.642 582.553 386.923
C 583.039 380.71 573.978 379.252 572.996 385.595 Z"
opacity="1" fill="rgb(22,37,57)" fill-rule="evenodd" />
<path d="
M 589.012 391.621
C 589.128 390.918 589.059 391.293 589.224 390.497
C 589.893 390.152 590.726 390.241 591.453 390.374
C 591.9 391.138 591.905 391.925 591.812 392.783
C 591.008 392.817 590.203 392.825 589.399 392.872
C 588.975 392.423 588.986 392.228 589.012 391.621 Z"
opacity="1" fill="rgb(30,42,63)" fill-rule="evenodd" />

</svg>