<svg xmlns="http://www.w3.org/2000/svg"
shape-rendering="geometricPrecision"
width="4000" height="4000" viewBox="0 0 1024 1024">
  <metadata>null</metadata>

<path d="
M 45.486 623.105
C 45.616 622.537 45.569 622.868 45.567 622.103
C 46.566 621.275 49.698 621.811 51.003 621.802
C 56.337 621.768 61.671 621.834 67.005 621.809
C 70.671 621.791 74.336 621.791 78.001 621.774
C 82.137 621.755 86.347 621.593 90.467 622.033
C 104.918 623.578 123.452 631.449 124.89 647.981
C 125.813 658.604 120.099 667.885 110.797 672.768
C 108.322 674.067 105.681 674.979 103.006 675.772
C 102.183 676.016 100.452 676.185 100.036 676.983
C 109.077 679.422 117.848 682.587 124.034 690.078
C 131.194 698.749 131.612 712.256 125.742 721.703
C 123.047 726.041 118.911 729.236 114.55 731.748
C 104.089 737.774 91.733 738.306 79.997 738.346
C 68.588 738.385 57.08 738.206 45.71 738.558
C 44.947 716.906 45.468 695.16 45.397 673.493
C 45.361 662.826 45.399 652.159 45.4 641.492
C 45.401 635.391 45.128 629.188 45.486 623.105 Z
M 65.709 625.753
C 65.019 632.713 65.593 640.006 65.619 647.002
C 65.654 656.547 65.28 666.163 65.664 675.697
C 75.788 675.952 88.362 677.568 97.042 671.276
C 100.945 668.447 103.425 663.456 104.477 658.855
C 106.893 648.295 104.5 634.81 94.499 628.875
C 86.244 623.977 74.888 625.743 65.709 625.753 Z
M 65.997 679.542
C 65.869 679.593 65.74 679.645 65.611 679.696
C 65.373 697.816 65.065 716.127 65.664 734.24
C 68.947 734.821 72.611 734.439 75.943 734.463
C 83.987 734.52 92.205 734.912 98.992 729.877
C 112.556 719.815 112.976 693.7 98.963 683.949
C 92.634 679.544 85.428 679.415 78.03 679.433
C 74.022 679.442 69.993 679.328 65.997 679.542 Z"
opacity="1" fill="rgb(206,166,120)" fill-rule="evenodd" />
<path d="
M 159.297 621.913
C 168.516 621.575 177.771 621.808 186.998 621.725
C 201.627 621.593 216.859 621.344 229.957 628.88
C 235.798 632.24 241.367 637.409 244.099 643.663
C 249.15 655.23 244.814 669.556 234.785 676.892
C 230.297 680.174 225.186 682.584 219.841 684.126
C 216.989 684.949 213.526 684.925 210.861 686.204
C 219.555 697.912 228.313 709.597 237.083 721.263
C 241.356 726.946 245.304 733.263 249.968 738.605
C 244.739 737.837 238.799 738.531 233.498 738.53
C 231.683 738.529 228.795 739.089 227.13 738.361
C 222.951 733.353 219.37 727.631 215.713 722.233
C 211.235 715.622 206.552 709.145 201.922 702.64
C 198.995 698.525 196.215 694.318 193.353 690.16
C 192.137 688.394 190.326 686.489 189.758 684.391
C 194.677 683.022 200.083 683.534 205.123 682.758
C 211.817 681.726 217.908 677.445 221.257 671.594
C 229.289 657.564 226.11 636.901 211.46 628.783
C 205.78 625.636 199.107 625.6 192.789 625.657
C 189.756 625.685 186.724 625.744 183.691 625.734
C 182.442 625.73 180.605 625.442 179.496 626.075
C 178.825 651.507 179.344 677.046 179.356 702.495
C 179.36 710.661 179.445 718.829 179.368 726.994
C 179.342 729.66 179.286 732.327 179.307 734.994
C 179.316 736.118 179.046 737.503 179.293 738.596
C 174.623 738.738 169.926 738.528 165.252 738.549
C 163.635 738.556 160.738 739.136 159.273 738.523
C 159.689 729.232 159.221 719.806 159.214 710.501
C 159.2 691.667 159.206 672.833 159.248 653.999
C 159.264 646.832 159.233 639.666 159.247 632.499
C 159.253 629.034 158.824 625.346 159.297 621.913 Z"
opacity="1" fill="rgb(206,166,121)" fill-rule="evenodd" />
<path d="
M 208.98 416.11
C 209.079 415.502 209.053 415.849 208.999 415.067
C 211.429 414.383 214.485 414.845 217.003 414.862
C 221.349 414.892 225.851 414.465 230.175 414.807
C 230.106 416.047 230.007 417.457 230.139 418.684
C 224.831 418.919 219.494 418.453 214.18 418.742
C 214.005 421.052 214.129 423.348 214.17 425.663
C 215.296 426.249 217.189 425.848 218.454 425.869
C 221.856 425.927 225.238 426.045 228.634 426.179
C 229.383 427.003 229.2 428.962 229.181 430.027
C 226.612 429.783 223.926 430.073 221.343 430.078
C 218.975 430.083 216.464 429.79 214.139 430.285
C 214.255 432.177 213.402 435.823 214.432 437.428
C 217.788 437.372 221.147 437.415 224.504 437.376
C 226.219 437.356 228.291 437.03 229.957 437.435
C 229.989 438.687 230.09 439.935 230.122 441.189
C 228.269 441.769 225.456 441.262 223.499 441.259
C 218.714 441.251 213.923 441.192 209.142 441.108
C 208.705 432.788 209.24 424.429 208.98 416.11 Z"
opacity="1" fill="rgb(208,169,128)" fill-rule="evenodd" />
<path d="
M 237.815 433.399
C 237.874 433.291 237.932 433.183 237.99 433.075
C 239.075 432.845 240.152 432.859 241.253 432.776
C 242.019 433.123 242.219 434.174 242.644 434.852
C 243.428 436.099 244.577 437.169 246.013 437.577
C 248.945 438.41 253.218 438.594 256.014 437.247
C 257.928 436.326 259.349 433.817 257.645 431.988
C 256.368 430.616 254.026 430.631 252.283 430.411
C 247.201 429.772 238.147 429.619 238.32 422.409
C 238.34 421.577 238.438 420.759 238.709 419.968
C 240.026 416.125 244.266 414.6 247.977 414.379
C 252.597 414.105 259.674 414.492 261.678 419.696
C 262.107 420.809 261.8 421.836 261.817 422.961
C 261.559 423.44 258.41 423.197 257.866 423.07
C 257.117 418.402 252.974 417.624 248.895 417.992
C 246.691 418.19 243.357 419.254 243.662 422.114
C 243.99 425.198 247.554 425.69 249.999 425.982
C 255.246 426.608 262.865 426.393 263.165 433.33
C 263.212 434.41 262.996 435.398 262.645 436.415
C 261.639 439.334 258.629 440.8 255.812 441.445
C 249.465 442.898 237.758 442.051 237.815 433.399 Z"
opacity="1" fill="rgb(210,171,129)" fill-rule="evenodd" />
<path d="
M 241.237 791.919
C 242.912 791.951 244.922 791.775 246.532 792.259
C 248.958 797.727 249.846 803.995 251.591 809.703
C 252.02 811.108 252.432 812.543 252.789 813.969
C 252.873 814.302 252.937 815.28 253.298 815.364
C 254.237 814.335 254.56 811.486 255.034 810.113
C 256.44 806.042 257.535 801.862 258.818 797.751
C 259.383 795.941 259.687 793.776 260.682 792.148
C 262.31 792.041 264.965 791.716 266.465 792.361
C 267.76 794.265 268.012 797.179 268.69 799.358
C 270.358 804.71 272.158 810.117 273.508 815.55
C 274.766 814.67 275.075 810.808 275.479 809.356
C 277.02 803.828 277.798 797.659 280.219 792.432
C 281.226 791.63 284.116 791.788 285.395 791.993
C 285.237 792.658 284.988 793.297 284.815 793.96
C 282.993 802.714 278.962 811.024 277.195 819.76
C 276.711 820.058 275.767 819.895 275.199 819.896
C 273.488 819.898 271.777 819.874 270.068 819.892
C 269.238 818.359 268.86 816.198 268.387 814.511
C 266.818 808.923 265.927 802.636 263.428 797.387
C 263.114 798.522 262.769 799.632 262.394 800.746
C 260.178 806.955 258.958 813.495 256.831 819.74
C 254.273 820.098 251.608 819.721 249.031 819.899
C 247.838 816.873 247.358 813.335 246.481 810.185
C 244.79 804.121 242.523 798.076 241.237 791.919 Z"
opacity="1" fill="rgb(208,167,123)" fill-rule="evenodd" />
<path d="
M 269.529 416.122
C 269.553 415.513 269.467 415.827 269.897 415.218
C 275.364 414.785 281.007 415.08 286.494 415.1
C 288.494 415.107 291.681 414.505 293.476 415.331
C 293.488 416.222 293.801 418.176 293.259 418.891
C 290.171 418.768 286.647 418.498 283.607 419.067
C 283.249 420.863 283.501 422.689 283.552 424.503
C 283.641 427.719 283.648 430.937 283.695 434.154
C 283.723 436.126 283.243 438.953 283.788 440.814
C 282.237 441.153 279.891 441.086 278.328 440.764
C 277.944 433.557 278.199 426.206 278.274 418.99
C 275.715 418.634 272.149 419.747 269.78 418.793
C 269.642 417.898 269.577 417.024 269.529 416.122 Z"
opacity="1" fill="rgb(209,168,126)" fill-rule="evenodd" />
<path d="
M 279.225 621.882
C 284.141 621.758 289.081 621.856 294.002 621.876
C 295.282 621.881 296.561 621.888 297.841 621.864
C 298.112 621.859 298.655 621.717 298.818 622.007
C 298.562 648.328 298.803 674.673 298.864 700.996
C 298.883 709.496 298.895 717.996 298.865 726.495
C 298.851 730.394 299.373 734.729 298.812 738.581
C 292.303 738.954 285.758 738.164 279.247 738.557
C 279.585 711.221 279.225 683.843 279.239 656.499
C 279.242 648.666 279.234 640.833 279.247 632.999
C 279.253 629.327 278.955 625.537 279.225 621.882 Z"
opacity="1" fill="rgb(205,165,119)" fill-rule="evenodd" />
<path d="
M 293.424 792.38
C 295.192 791.467 298.098 792.017 300.042 792.077
C 303.768 792.191 307.506 792.123 311.234 792.092
C 312.898 792.078 315.017 791.754 316.605 792.253
C 316.452 793.298 316.403 795.214 316.668 796.215
C 310.765 795.724 304.653 796.386 298.729 796.31
C 298.77 798.766 298.204 801.65 298.787 804.047
C 301.621 803.843 304.637 804.192 307.501 804.176
C 310.122 804.162 313.136 803.77 315.708 804.229
C 315.654 805.405 315.63 806.673 315.715 807.843
C 310.108 808.249 304.428 807.783 298.81 807.934
C 298.615 809.997 298.707 812.097 298.733 814.166
C 298.741 814.773 298.603 815.85 298.919 816.354
C 303.018 816.23 307.152 816.382 311.255 816.36
C 313.014 816.351 315.634 815.867 317.291 816.461
C 317.283 817.68 317.348 818.893 317.294 820.111
C 309.347 820.38 301.389 819.663 293.442 819.968
C 293.054 816.705 293.287 813.282 293.276 809.997
C 293.255 804.125 293.242 798.248 293.424 792.38 Z"
opacity="1" fill="rgb(209,168,126)" fill-rule="evenodd" />
<path d="
M 297.947 439.111
C 298.103 438.364 298.129 437.596 298.162 436.835
C 299.43 436.196 301.259 436.166 302.634 436.404
C 302.968 437.452 303.144 440.048 302.582 441.011
C 301.099 441.098 299.686 440.933 298.209 440.879
C 297.928 440.271 297.91 439.774 297.947 439.111 Z"
opacity="1" fill="rgb(207,160,113)" fill-rule="evenodd" />
<path d="
M 326.788 792.266
C 331.415 791.514 336.537 791.878 341.224 792
C 343.535 792.06 346.184 791.948 348.346 792.879
C 353.793 795.225 354.37 801.37 350.396 805.276
C 350.518 806.099 351.742 806.599 352.28 807.231
C 353.549 808.723 354.294 810.553 354.187 812.528
C 353.981 816.299 351.135 819.025 347.506 819.665
C 340.836 820.842 333.609 819.962 326.862 819.966
C 326.327 817.29 326.738 814.228 326.724 811.5
C 326.692 805.095 326.922 798.665 326.788 792.266 Z
M 332.029 797.12
C 331.901 799.302 332.077 801.517 332.132 803.701
C 333.781 804.292 336.004 803.928 337.752 803.938
C 339.618 803.949 341.489 804.055 343.355 803.984
C 346.963 803.848 349.359 799.422 345.962 796.934
C 343.566 795.18 338.485 796.21 335.64 796.207
C 334.468 796.205 333.106 796.058 332.085 796.638
C 332.066 796.799 332.048 796.959 332.029 797.12 Z
M 332.329 808.478
C 332.174 810.334 332.233 812.177 332.243 814.038
C 332.246 814.726 332.049 815.833 332.462 816.377
C 335.47 816.276 338.494 816.39 341.503 816.403
C 343.131 816.41 344.967 816.568 346.474 815.829
C 349.215 814.483 349.668 809.505 346.66 808.188
C 345.252 807.571 343.348 807.778 341.847 807.775
C 338.806 807.768 335.693 807.649 332.668 807.966
C 332.555 808.136 332.442 808.307 332.329 808.478 Z"
opacity="1" fill="rgb(209,169,127)" fill-rule="evenodd" />
<path d="
M 333.403 622.476
C 333.472 622.343 333.542 622.21 333.611 622.077
C 341.461 621.253 349.613 621.85 357.504 621.82
C 376.674 621.745 395.859 621.778 411.912 633.856
C 425.601 644.155 430.535 660.582 430.923 677.099
C 431.384 696.755 426.067 717.558 408.66 728.933
C 393.524 738.825 375.406 738.689 358.008 738.592
C 349.903 738.546 341.668 738.949 333.584 738.482
C 332.832 733.315 333.373 727.717 333.358 722.497
C 333.329 712.497 333.284 702.498 333.288 692.499
C 333.293 677.332 333.281 662.165 333.281 646.999
C 333.281 638.856 332.93 630.607 333.403 622.476 Z
M 353.412 625.777
C 352.697 647.471 353.327 669.287 353.349 690.995
C 353.358 700.662 353.381 710.328 353.434 719.995
C 353.46 724.792 353.132 729.712 353.542 734.491
C 354.403 734.961 356.02 734.708 357.001 734.728
C 360.001 734.789 363.006 734.779 366.006 734.79
C 371.45 734.81 377.361 735.068 382.687 733.747
C 391.737 731.503 398.234 724.289 402.301 716.245
C 406.365 708.207 408.106 699.212 408.781 690.296
C 410.4 668.905 408.828 642.486 388.392 630.2
C 381.282 625.927 373.568 625.673 365.509 625.64
C 361.492 625.623 357.42 625.495 353.412 625.777 Z"
opacity="1" fill="rgb(205,165,119)" fill-rule="evenodd" />
<path d="
M 363.388 798.582
C 365.945 789.428 382.658 788.985 387.837 796.101
C 388.918 797.587 388.597 799.171 388.812 800.868
C 387.612 801.169 386.217 800.801 384.978 800.964
C 384.656 800.048 384.614 799.082 384.004 798.288
C 381.822 795.445 377.184 795.256 373.943 795.529
C 371.445 795.739 368.069 797.022 368.157 800.123
C 368.255 803.577 372.23 803.634 374.792 803.81
C 380.408 804.196 390.185 805.166 389.815 812.779
C 389.766 813.785 389.575 814.78 389.174 815.708
C 387.988 818.455 385.166 819.84 382.388 820.462
C 375.698 821.96 362.213 821.998 363.499 812.017
C 364.351 811.138 365.874 811.174 367.055 811.267
C 367.763 812.82 367.57 814.755 369.203 815.742
C 372.224 817.566 377.876 817.912 381.063 816.488
C 382.683 815.764 384.481 814.664 384.356 812.645
C 384.14 809.136 380.157 808.578 377.391 808.308
C 372.043 807.787 364.711 808.117 363.417 801.379
C 363.24 800.456 363.259 799.509 363.388 798.582 Z"
opacity="1" fill="rgb(209,168,125)" fill-rule="evenodd" />
<path d="
M 388.891 349.601
C 391.549 355.805 393.982 362.012 398.313 367.325
C 401.441 371.161 404.753 374.763 408.699 377.777
C 416.684 383.874 426.641 388.497 436.526 390.364
C 443.202 391.625 449.894 391.711 456.661 391.849
C 460.565 391.929 464.561 392.228 468.456 391.998
C 473.013 392.696 477.899 392.325 482.505 392.383
C 494.25 392.529 506.07 391.978 517.793 392.833
C 534.318 394.037 550.812 400.974 562.823 412.474
C 569.372 418.744 574.127 426.066 578.645 433.871
C 579.698 435.69 580.597 437.581 581.42 439.514
C 581.548 439.817 582.413 441.224 582.12 441.439
C 576.719 436.931 571.743 431.969 566.025 427.822
C 557.746 421.817 548.383 416.957 538.662 413.74
C 528.307 410.313 517.807 409.76 507.008 409.626
C 494.525 409.471 481.935 410.015 469.48 409.419
C 461.627 409.469 453.4 409.553 445.587 408.52
C 430.721 406.554 414.587 400.584 403.29 390.48
C 397.044 384.893 390.524 376.967 388.791 368.542
C 387.766 363.972 388.262 358.824 388.345 354.159
C 388.361 353.264 388.1 349.914 388.891 349.601 Z"
opacity="1" fill="rgb(123,78,56)" fill-rule="evenodd" />
<path d="
M 388.791 368.542
C 390.524 376.967 397.044 384.893 403.29 390.48
C 414.587 400.584 430.721 406.554 445.587 408.52
C 453.4 409.553 461.627 409.469 469.48 409.419
C 468.037 409.872 468.351 411.717 468.352 412.89
C 468.353 415.484 468.375 418.077 468.311 420.671
C 468.284 421.767 468.024 423.357 468.471 424.369
C 464.425 424.686 460.128 424.305 456.066 424.18
C 450.766 424.016 445.368 423.998 440.137 423.03
C 427.448 420.682 415.389 415.018 406.123 405.924
C 400.27 400.18 395.391 393.17 392.237 385.582
C 391.159 382.987 389.827 379.8 389.391 377.029
C 389.231 376.01 389.773 375.146 389.747 374.211
C 389.728 373.513 388.522 374.357 388.289 374.451
C 388.349 372.965 388.224 371.468 388.233 369.979
C 388.236 369.514 388.155 368.527 388.791 368.542 Z"
opacity="1" fill="rgb(206,167,123)" fill-rule="evenodd" />
<path d="
M 388.289 374.451
C 388.522 374.357 389.728 373.513 389.747 374.211
C 389.773 375.146 389.231 376.01 389.391 377.029
C 389.827 379.8 391.159 382.987 392.237 385.582
C 395.391 393.17 400.27 400.18 406.123 405.924
C 415.389 415.018 427.448 420.682 440.137 423.03
C 445.368 423.998 450.766 424.016 456.066 424.18
C 460.128 424.305 464.425 424.686 468.471 424.369
C 479.477 424.554 490.498 424.63 501.507 424.703
C 511.117 424.766 520.799 424.66 530.256 426.648
C 545.304 429.812 559.45 438.328 569.021 450.381
C 572.393 454.626 575.023 459.139 577.653 463.864
C 578.877 466.063 580.578 468.556 580.935 471.096
C 576.844 467.694 573.016 464.103 568.72 460.936
C 556.85 452.183 543.424 445.997 528.965 443.084
C 517.52 440.778 505.11 441.706 493.501 441.689
C 488.001 441.681 482.5 441.685 477 441.697
C 474.224 441.703 471.195 441.398 468.457 441.855
C 467.549 441.263 465.731 441.615 464.661 441.611
C 461.421 441.597 458.18 441.628 454.941 441.565
C 446.444 441.4 437.972 439.786 430.038 436.717
C 423.829 434.315 417.893 431.11 412.62 427.037
C 410.863 425.68 409.108 424.22 407.525 422.663
C 406.74 421.891 405.947 420.814 404.802 420.652
C 408.937 435.888 422.651 448.398 437.588 452.714
C 443.957 454.555 450.408 455.153 457.004 455.446
C 460.756 455.613 464.726 456.171 468.475 455.841
C 486.072 457.035 503.913 454.728 521.492 456.489
C 533.876 457.73 546.775 462.29 556.716 469.843
C 560.5 472.718 564.003 475.97 567.009 479.66
C 570.751 484.255 573.668 489.109 576.497 494.299
C 577.318 495.806 579.387 498.606 579.437 500.304
C 575.656 497.701 572.173 494.616 568.44 491.927
C 562.07 487.338 555.262 483.255 548.02 480.191
C 541.218 477.312 533.804 475.034 526.47 474.025
C 517.467 472.787 508.063 473.36 498.997 473.338
C 489.038 473.314 478.898 472.836 468.965 473.545
C 463.601 473.881 457.944 473.383 452.553 473.333
C 447.178 473.287 442.286 470.77 437.068 470.229
C 435.079 468.589 431.966 467.815 429.652 466.632
C 426.639 465.092 424.036 462.861 421.044 461.35
C 420.275 459.766 417.339 458.038 416.004 456.78
C 412.03 453.036 407.27 448.574 404.992 443.522
C 401.056 433.57 395.786 424.163 392.436 413.967
C 391.155 410.068 390.092 406.037 389.411 401.989
C 389.082 400.031 389.347 397.145 388.377 395.405
C 388.407 388.444 387.933 381.4 388.289 374.451 Z"
opacity="1" fill="rgb(122,78,56)" fill-rule="evenodd" />
<path d="
M 388.377 395.405
C 389.347 397.145 389.082 400.031 389.411 401.989
C 390.092 406.037 391.155 410.068 392.436 413.967
C 395.786 424.163 401.056 433.57 404.992 443.522
C 403.547 442.778 403.708 445.247 403.734 445.969
C 403.857 449.309 403.892 452.653 403.893 455.995
C 403.896 464.494 403.828 472.993 403.847 481.493
C 403.885 498.994 403.794 516.493 403.86 533.994
C 403.889 541.444 403.228 549.203 403.817 556.618
C 398.8 556.911 393.732 556.287 388.71 556.578
C 388.997 550.082 388.715 543.504 388.704 537.001
C 388.682 524.001 388.671 511.001 388.668 498.001
C 388.659 463.81 388.931 429.569 388.377 395.405 Z"
opacity="1" fill="rgb(205,167,122)" fill-rule="evenodd" />
<path d="
M 410.388 358.89
C 419.042 369.955 432.004 375.676 445.788 376.759
C 451.544 377.211 457.284 377.282 463.061 377.289
C 464.225 377.29 468.289 376.628 468.34 377.982
C 467.904 380.877 468.416 384.06 468.354 386.995
C 468.321 388.595 467.909 390.467 468.456 391.998
C 464.561 392.228 460.565 391.929 456.661 391.849
C 449.894 391.711 443.202 391.625 436.526 390.364
C 426.641 388.497 416.684 383.874 408.699 377.777
C 404.753 374.763 401.441 371.161 398.313 367.325
C 393.982 362.012 391.549 355.805 388.891 349.601
C 388.468 348.218 388.736 346.438 388.732 345.003
C 388.723 342.003 388.732 339.002 388.717 336.001
C 388.665 325.834 388.726 315.666 388.736 305.499
C 388.757 283.999 388.727 262.499 388.738 241
C 388.744 228.451 389.036 215.85 388.634 203.309
C 392.085 203.195 395.547 203.281 399.001 203.27
C 400.47 203.265 402.599 202.848 403.971 203.326
C 403.647 208.246 403.964 213.291 404.011 218.224
C 404.08 225.648 403.946 233.071 403.94 240.495
C 403.922 266.168 404.013 291.83 404.051 317.498
C 404.061 324.333 404.122 331.166 404.158 338
C 404.199 345.56 404.407 353.379 410.388 358.89 Z"
opacity="1" fill="rgb(206,167,122)" fill-rule="evenodd" />
<path d="
M 399.965 793.117
C 400.101 792.496 400.07 792.87 399.907 791.993
C 401.197 791.724 403.572 791.576 404.716 792.231
C 404.529 798.617 404.759 805.097 404.725 811.498
C 404.712 813.939 403.973 817.817 404.824 820.104
C 403.186 820.13 401.362 820.31 399.748 820.145
C 399.844 811.162 399.261 802.087 399.965 793.117 Z"
opacity="1" fill="rgb(208,168,123)" fill-rule="evenodd" />
<path d="
M 468.457 441.855
C 467.864 445.09 468.345 448.705 468.28 451.996
C 468.26 452.969 467.889 455.058 468.475 455.841
C 464.726 456.171 460.756 455.613 457.004 455.446
C 450.408 455.153 443.957 454.555 437.588 452.714
C 422.651 448.398 408.937 435.888 404.802 420.652
C 405.947 420.814 406.74 421.891 407.525 422.663
C 409.108 424.22 410.863 425.68 412.62 427.037
C 417.893 431.11 423.829 434.315 430.038 436.717
C 437.972 439.786 446.444 441.4 454.941 441.565
C 458.18 441.628 461.421 441.597 464.661 441.611
C 465.731 441.615 467.549 441.263 468.457 441.855 Z"
opacity="1" fill="rgb(205,166,123)" fill-rule="evenodd" />
<path d="
M 410.388 358.89
C 410.955 358.322 412.14 358.457 412.909 358.404
C 415.391 358.232 418.018 357.926 420.501 358.132
C 425.831 358.504 431.188 358.63 436.499 359.038
C 436.666 359.041 436.833 359.044 436.999 359.047
C 438.953 359.047 440.844 359.524 442.791 359.554
C 445.86 359.602 448.94 359.341 452.007 359.475
C 452.68 359.543 453.332 359.559 454.008 359.561
C 458.812 359.57 463.654 359.967 468.441 359.923
C 472.893 360.735 477.988 360.119 482.51 360.124
C 492.126 360.133 501.761 360.039 511.375 360.281
C 531.472 360.788 551.477 368.022 565.518 382.739
C 571.326 388.827 575.593 395.994 579.478 403.409
C 580.371 405.112 581.134 406.881 581.899 408.645
C 582.038 408.967 582.787 410.211 582.541 410.522
C 579.878 407.778 577.346 404.852 574.451 402.341
C 560.634 390.353 544.687 381.966 526.613 378.645
C 516.74 376.83 506.491 377.347 496.499 377.345
C 489.573 377.344 482.646 377.382 475.72 377.357
C 473.954 377.351 469.542 376.618 468.34 377.982
C 468.289 376.628 464.225 377.29 463.061 377.289
C 457.284 377.282 451.544 377.211 445.788 376.759
C 432.004 375.676 419.042 369.955 410.388 358.89 Z"
opacity="1" fill="rgb(122,77,54)" fill-rule="evenodd" />
<path d="
M 413.502 793.096
C 413.619 792.519 413.584 792.861 413.52 792.065
C 415.321 791.288 418.529 791.963 420.507 791.957
C 424.99 791.943 429.473 791.954 433.956 791.938
C 435.739 791.932 438.197 791.453 439.892 791.989
C 439.904 793.195 440.06 794.498 439.926 795.693
C 439.196 796.021 437.806 795.787 436.997 795.803
C 434.565 795.851 431.443 795.361 429.127 796.16
C 429.082 801.673 429.075 807.183 429.149 812.699
C 429.18 815.018 428.722 817.846 429.201 820.105
C 428.208 820.154 424.651 820.687 423.896 820.068
C 423.977 814.882 423.863 809.682 423.842 804.494
C 423.831 801.739 424.221 798.741 423.752 796.026
C 420.5 795.712 417.185 796.017 413.929 795.942
C 413.421 795.041 413.483 794.105 413.502 793.096 Z"
opacity="1" fill="rgb(208,169,127)" fill-rule="evenodd" />
<path d="
M 436.499 359.038
C 431.188 358.63 425.831 358.504 420.501 358.132
C 421.237 357.843 421.07 356.663 421.094 356.022
C 421.175 353.786 421.065 351.527 421.053 349.289
C 421.005 340.023 421.02 330.756 421.031 321.49
C 421.063 295.156 421.054 268.822 421.021 242.489
C 421.006 229.509 421.524 216.437 420.998 203.47
C 422.551 202.956 424.383 203.214 426.002 203.225
C 429.25 203.248 432.499 203.183 435.747 203.22
C 436.649 206.314 435.831 210.761 435.848 213.994
C 435.893 222.327 435.888 230.661 435.898 238.994
C 435.929 265.661 435.972 292.328 435.937 318.995
C 435.924 328.739 436.025 338.482 436.043 348.223
C 436.047 350.588 436.114 352.956 436.067 355.321
C 436.044 356.519 435.75 358.116 436.499 359.038 Z"
opacity="1" fill="rgb(205,166,121)" fill-rule="evenodd" />
<path d="
M 421.044 461.35
C 424.036 462.861 426.639 465.092 429.652 466.632
C 431.966 467.815 435.079 468.589 437.068 470.229
C 435.251 470.511 436.024 473.611 436.042 475.114
C 436.104 480.236 435.918 485.371 435.926 490.495
C 435.952 506.495 435.939 522.495 435.927 538.495
C 435.924 542.828 435.898 547.161 435.893 551.494
C 435.891 552.759 436.46 555.619 435.835 556.659
C 430.976 556.886 426.058 556.243 421.204 556.577
C 420.306 533.778 421.021 510.806 421.021 487.988
C 421.021 479.231 421.834 470.061 421.044 461.35 Z"
opacity="1" fill="rgb(205,166,120)" fill-rule="evenodd" />
<path d="
M 452.007 359.475
C 448.94 359.341 445.86 359.602 442.791 359.554
C 440.844 359.524 438.953 359.047 436.999 359.047
C 439.978 358.017 444.406 359.119 447.515 359.236
C 448.949 359.29 450.642 358.969 452.007 359.475 Z"
opacity="1" fill="rgb(140,96,70)" fill-rule="evenodd" />
<path d="
M 447.991 793.111
C 448.023 792.914 448.055 792.717 448.088 792.52
C 449.828 791.449 452.512 791.943 454.506 791.943
C 458.173 791.942 461.839 791.881 465.505 791.859
C 467.169 791.849 469.339 791.485 470.933 791.926
C 470.882 793.025 470.708 795.043 471.064 796.082
C 469.456 796.388 467.639 796.117 466.006 796.11
C 461.74 796.091 457.275 795.689 453.034 796.155
C 452.457 798.402 452.748 801.584 453.088 803.844
C 458.342 804.071 464.283 803.069 469.426 804.059
C 469.452 804.878 470.014 807.145 469.488 807.801
C 465.845 808.021 462.149 807.866 458.499 807.885
C 456.749 807.893 454.665 807.601 453.006 808.196
C 452.737 810.94 452.718 813.761 452.925 816.509
C 456.884 816.289 460.882 816.51 464.853 816.446
C 466.779 816.416 469.26 816.039 471.093 816.729
C 471.254 817.856 471.141 819.017 471.322 820.131
C 463.725 820.583 455.699 820.554 448.114 820.009
C 447.401 816.315 447.757 812.245 447.77 808.494
C 447.787 803.409 447.516 798.176 447.991 793.111 Z"
opacity="1" fill="rgb(209,170,128)" fill-rule="evenodd" />
<path d="
M 452.553 473.333
C 457.944 473.383 463.601 473.881 468.965 473.545
C 467.644 474.112 468.032 477 468.043 478.325
C 468.08 483.039 467.933 487.745 467.929 492.46
C 467.909 512.858 468.236 533.269 468.154 553.669
C 471.275 554.19 474.83 553.721 478.001 553.723
C 484.834 553.728 491.668 553.689 498.501 553.689
C 514.289 553.689 530.414 554.674 545.806 550.47
C 581.587 540.697 606.443 509.151 613.243 473.469
C 618.521 445.772 612.223 417.405 596.25 394.132
C 590.955 386.419 584.27 379.362 577.142 373.323
C 574.288 370.905 571.409 368.994 568.204 367.089
C 567.348 366.58 564.723 365.744 566.452 364.91
C 567.014 364.638 568.071 364.996 568.651 365.074
C 570.495 365.321 572.316 365.682 574.147 366.013
C 582.181 367.465 590.287 369.514 597.734 372.915
C 606.086 376.729 613.866 381.172 620.991 387.016
C 640.73 403.204 652.47 427.649 654.075 453.025
C 654.768 463.967 653.62 474.773 651.265 485.45
C 649.42 493.815 646.182 502.085 641.934 509.51
C 638.321 515.824 633.99 521.665 628.883 526.855
C 624.582 531.226 619.841 535.191 614.739 538.595
C 584.021 559.095 545.773 556.785 510.502 556.854
C 496.676 556.881 482.832 556.973 469.008 556.764
C 465.174 556.706 461.338 556.712 457.504 556.691
C 456.145 556.684 453.993 557.133 452.766 556.605
C 453.069 550.106 452.741 543.509 452.741 536.999
C 452.741 523.666 452.742 510.333 452.733 496.999
C 452.729 491.349 452.73 485.698 452.736 480.048
C 452.738 478.252 453.325 474.906 452.553 473.333 Z"
opacity="1" fill="rgb(204,165,119)" fill-rule="evenodd" />
<path d="
M 468.441 359.923
C 463.654 359.967 458.812 359.57 454.008 359.561
C 453.309 359.237 452.77 359.524 452.686 358.569
C 452.231 354.12 452.688 349.473 452.693 345.001
C 452.704 336.001 452.658 327.002 452.664 318.002
C 452.682 293.668 452.579 269.334 452.644 245
C 452.682 231.137 453.367 217.08 452.621 203.238
C 466.123 202.408 479.829 202.973 493.355 202.934
C 508.495 202.892 524.026 202.307 539.054 204.344
C 557.778 206.882 576.212 214.235 590.108 227.267
C 594.643 231.52 598.552 236.399 601.892 241.641
C 621.242 272.002 616.965 318.204 589.846 342.567
C 584.605 347.276 578.83 351.401 572.492 354.51
C 569.462 355.997 566.015 357.562 562.603 357.807
C 559.702 358.015 556.61 356.406 553.963 355.399
C 549.551 353.721 544.998 352.53 540.559 350.963
C 540.777 350.25 541.4 350.187 542.027 349.893
C 543.585 349.161 545.231 348.524 546.686 347.593
C 551.214 344.696 555.38 340.764 558.918 336.738
C 570.764 323.257 577.562 306.312 579.04 288.463
C 580.875 266.29 572.91 241.459 556.645 225.889
C 550.531 220.035 543.163 215.383 535.387 212.074
C 523.966 207.215 511.201 206.388 498.956 206.388
C 491.552 206.389 484.145 206.473 476.743 206.298
C 474.494 206.245 469.81 205.472 468.029 206.896
C 467.557 219.538 468.097 232.331 468.088 244.996
C 468.069 270.33 467.997 295.665 468.053 320.999
C 468.074 330.665 468.061 340.33 468.054 349.996
C 468.052 352.329 468.023 354.662 468.055 356.994
C 468.067 357.854 467.855 359.258 468.441 359.923 Z"
opacity="1" fill="rgb(205,166,120)" fill-rule="evenodd" />
<path d="
M 458.405 674.111
C 459.165 669.908 459.409 665.691 460.41 661.501
C 462.689 651.966 467.612 642.504 474.563 635.552
C 495.871 614.237 537.919 614.701 556.651 639.455
C 554.754 642.229 551.862 644.73 549.591 647.228
C 548.977 647.904 547.976 649.553 547.123 649.81
C 545.686 647.973 544.707 645.668 543.434 643.699
C 540.026 638.434 536.179 632.873 530.945 629.263
C 521.707 622.892 507.47 621.917 497.988 628.406
C 492.707 632.02 489 637.635 486.435 643.403
C 482.637 651.944 480.944 661.214 480.039 670.458
C 478.47 686.47 480.115 703.638 487.029 718.311
C 490.773 726.256 497.307 732.678 505.837 735.255
C 510.758 736.741 516.314 736.783 521.39 736.418
C 525.671 736.109 529.565 734.932 533.358 732.943
C 534.749 732.213 536.565 731.281 537.534 730.016
C 538.287 725.907 537.557 721.165 537.557 716.992
C 537.557 706.312 536.97 695.418 537.636 684.763
C 536.237 684.354 534.557 684.577 533.101 684.58
C 530.035 684.585 526.888 684.771 523.839 684.421
C 523.631 683.176 523.759 681.995 523.71 680.747
C 531.085 680.284 538.599 680.601 545.997 680.575
C 549.38 680.564 553.994 679.812 557.243 680.75
C 556.594 691.225 557.287 701.995 557.341 712.496
C 557.355 715.232 557.358 717.969 557.377 720.705
C 557.385 721.972 557.657 723.411 556.793 724.458
C 552.754 729.349 546.558 732.499 540.886 735.073
C 519.999 744.553 490.406 741.825 473.838 724.963
C 460.911 711.807 457.216 691.912 458.405 674.111 Z"
opacity="1" fill="rgb(206,165,118)" fill-rule="evenodd" />
<path d="
M 498.796 792.296
C 500.55 791.514 502.866 791.896 504.74 791.885
C 509.7 791.855 515.658 790.979 520.076 793.683
C 524.666 796.492 525.143 803.455 521.749 807.423
C 518.352 811.393 512.565 810.535 507.916 810.563
C 506.612 810.57 505.064 810.361 503.833 810.81
C 503.701 813.728 503.549 816.929 503.824 819.829
C 502.179 820.03 500.436 819.803 498.774 819.883
C 497.89 817.746 498.639 813.821 498.645 811.499
C 498.661 805.104 498.57 798.685 498.796 792.296 Z
M 503.829 796.284
C 503.719 798.71 503.66 801.117 503.744 803.548
C 503.776 804.445 503.577 805.585 503.932 806.409
C 507.662 806.406 513.023 807.717 516.412 805.661
C 519.046 804.063 519.477 798.018 516.511 796.543
C 515.291 795.937 513.724 796.116 512.401 796.07
C 509.617 795.972 506.57 795.664 503.829 796.284 Z"
opacity="1" fill="rgb(207,166,122)" fill-rule="evenodd" />
<path d="
M 531.892 802.093
C 533.491 790.27 550.249 788.116 558.308 794.705
C 562.582 798.199 562.885 805.35 562.21 810.395
C 560.631 822.206 543.897 824.24 535.821 817.567
C 531.501 813.997 531.196 807.239 531.892 802.093 Z
M 537.339 802.074
C 536.611 806.115 536.542 812.296 539.932 815.218
C 544.627 819.262 555.134 818.135 556.498 811.365
C 557.327 807.245 557.627 800.521 554.187 797.437
C 549.022 792.808 538.645 794.821 537.339 802.074 Z"
opacity="1" fill="rgb(208,167,123)" fill-rule="evenodd" />
<path d="
M 571.934 792.527
C 571.944 792.352 571.954 792.177 571.965 792.002
C 575.27 791.579 578.722 791.875 582.053 791.858
C 585.792 791.838 590.06 791.465 593.523 793.155
C 600.002 796.316 598.674 804.845 593.078 807.992
C 593.785 809.17 595.093 809.785 595.787 811.002
C 597.272 813.604 597.252 817.001 597.355 819.897
C 596.139 820.667 593.634 820.083 592.203 820.25
C 592.215 818.46 592.474 816.589 592.112 814.818
C 590.716 807.996 582.406 809.713 577.276 809.861
C 577.335 812.281 577.194 814.738 577.149 817.163
C 577.133 818.061 577.299 819.281 576.767 820.047
C 575.194 820.03 573.319 820.504 571.793 820.133
C 572.184 810.946 571.6 801.717 571.934 792.527 Z
M 577.437 796.315
C 577.303 799.367 577.151 802.48 577.382 805.533
C 579.891 806.455 583.689 805.89 586.332 805.808
C 587.481 805.772 588.797 805.857 589.843 805.3
C 592.932 803.654 593.417 798.661 590.445 796.701
C 589.317 795.957 587.796 796.12 586.509 796.099
C 583.488 796.049 580.438 795.905 577.437 796.315 Z"
opacity="1" fill="rgb(208,167,125)" fill-rule="evenodd" />
<path d="
M 589.385 622.394
C 590.272 621.495 592.985 621.885 594.206 621.869
C 598.637 621.811 603.073 621.833 607.505 621.858
C 620.169 621.927 632.838 621.864 645.503 621.858
C 649.449 621.856 653.394 621.849 657.34 621.868
C 659.105 621.877 661.272 621.459 662.981 621.889
C 662.848 623.087 663.009 624.574 663.071 625.797
C 658.996 625.35 654.6 625.821 650.495 625.824
C 641.829 625.83 633.163 625.85 624.498 625.856
C 620.998 625.859 617.498 625.868 613.998 625.862
C 612.651 625.86 610.802 625.55 609.582 626.157
C 608.856 633.227 609.413 640.648 609.474 647.754
C 609.553 656.912 609.286 666.097 609.642 675.248
C 613.547 675.641 617.58 675.397 621.505 675.402
C 629.672 675.412 637.84 675.375 646.007 675.367
C 649.697 675.364 653.502 675.085 657.177 675.332
C 657.12 676.605 657.098 677.929 657.109 679.207
C 653.534 679.947 649.149 679.316 645.497 679.309
C 637.665 679.294 629.83 679.244 621.998 679.295
C 618.999 679.315 616 679.356 613.001 679.376
C 611.959 679.382 610.403 679.097 609.569 679.753
C 608.773 697.958 609.422 716.348 609.433 734.57
C 613.695 734.837 618.2 734.436 622.505 734.443
C 636.083 734.464 649.727 734.035 663.294 734.445
C 663.37 734.836 663.758 738.296 663.5 738.374
C 650.008 739.039 636.29 738.433 622.778 738.372
C 611.753 738.322 600.667 738.912 589.641 738.524
C 588.71 734.463 589.307 729.657 589.287 725.499
C 589.248 716.999 589.26 708.499 589.261 699.999
C 589.264 674.145 588.819 648.241 589.385 622.394 Z"
opacity="1" fill="rgb(206,165,119)" fill-rule="evenodd" />
<path d="
M 604.346 791.801
C 610.265 791.23 616.547 791.808 622.504 791.814
C 624.798 791.816 628.253 791.164 630.406 791.92
C 630.387 792.696 630.868 795.307 630.264 795.868
C 627.849 795.782 625.416 795.909 622.998 795.903
C 621.998 795.9 620.556 795.689 619.684 796.203
C 619.351 804.13 619.526 812.187 619.81 820.114
C 618.123 820.189 616.033 820.349 614.37 820.037
C 614.516 812.013 614.195 803.968 614.441 795.944
C 611.593 795.128 607.56 795.736 604.6 795.735
C 604.224 794.492 604.486 793.084 604.346 791.801 Z"
opacity="1" fill="rgb(208,167,125)" fill-rule="evenodd" />
<path d="
M 639.307 791.88
C 644.868 791.793 650.439 791.864 656.003 791.817
C 657.209 791.806 660.757 791.155 661.513 791.915
C 661.628 792.615 662.074 795.547 661.521 795.92
C 657.277 796.007 653.008 795.974 648.763 795.921
C 647.881 795.91 644.733 795.474 644.176 796.192
C 644.107 798.906 643.897 801.739 644.247 804.438
C 649.155 805.188 654.327 804.549 659.282 804.68
C 659.437 805.884 659.197 807.092 659.257 808.289
C 658.418 808.84 656.118 808.411 655.064 808.412
C 651.392 808.417 647.764 808.45 644.104 808.632
C 643.883 811.288 644.039 813.889 644.087 816.549
C 644.106 817.66 643.907 819.059 644.155 820.13
C 642.709 820.002 641.113 819.921 639.664 820.007
C 639.197 819.766 639.357 818.639 639.356 818.138
C 639.353 816.425 639.312 814.711 639.296 812.997
C 639.23 805.979 639.595 798.883 639.307 791.88 Z"
opacity="1" fill="rgb(209,167,124)" fill-rule="evenodd" />
<path d="
M 668.931 803.606
C 669.178 800.491 670.23 797.4 672.503 795.18
C 678 789.812 689.638 789.811 695.588 794.472
C 699.954 797.891 700.136 803.985 699.688 809.067
C 699.445 811.826 698.671 814.818 696.712 816.885
C 694.96 818.734 692.363 819.775 689.932 820.335
C 684.495 821.588 677.696 821.802 673.104 818.055
C 669.049 814.746 668.547 808.448 668.931 803.606 Z
M 674.46 805.113
C 674.343 808.465 674.213 812.468 676.838 814.985
C 680.087 818.101 688.378 818.28 691.676 815.204
C 693.717 813.3 694.25 810.138 694.335 807.483
C 694.446 804.046 694.368 799.757 691.677 797.189
C 687.967 793.65 679.097 794.237 676.058 798.336
C 674.596 800.309 674.542 802.758 674.46 805.113 Z"
opacity="1" fill="rgb(209,167,123)" fill-rule="evenodd" />
<path d="
M 683.332 621.942
C 693.667 621.399 704.153 621.805 714.505 621.812
C 734.199 621.827 753.898 621.881 773.589 621.71
C 773.65 623.064 773.603 624.425 773.548 625.78
C 769.987 625.127 765.628 625.825 761.996 625.819
C 754.171 625.804 746.287 625.543 738.472 625.951
C 738.049 626.589 738.219 627.583 738.204 628.344
C 738.166 630.262 738.201 632.184 738.212 634.103
C 738.254 641.068 738.215 648.035 738.205 655
C 738.177 673.833 738.211 692.667 738.216 711.5
C 738.218 717.667 738.212 723.834 738.221 730
C 738.225 732.72 737.737 735.941 738.214 738.606
C 734.923 738.873 731.5 738.588 728.194 738.599
C 724.904 738.61 721.439 738.943 718.17 738.574
C 718.351 731.071 718.026 723.501 718.013 715.989
C 717.982 697.981 718.005 679.997 718.04 661.99
C 718.056 653.657 718.071 645.325 718.053 636.993
C 718.047 634.491 718.041 631.988 718.071 629.486
C 718.084 628.394 718.361 626.897 718.094 625.853
C 710.234 625.73 702.358 625.8 694.496 625.813
C 690.868 625.819 686.826 626.324 683.244 625.757
C 683.17 624.54 683.245 623.325 683.141 622.113
C 683.205 622.056 683.268 621.999 683.332 621.942 Z"
opacity="1" fill="rgb(206,166,120)" fill-rule="evenodd" />
<path d="
M 709.815 792.314
C 710.391 791.514 713.931 792.149 714.865 792.133
C 715.685 794.403 715.15 797.6 715.161 800
C 715.187 805.536 715.245 811.072 715.312 816.605
C 720.502 817.643 726.159 815.971 731.358 816.774
C 731.387 817.781 731.832 819.413 731.321 820.342
C 724.216 820.341 717.105 820.354 709.999 820.33
C 709.52 819.947 709.73 819.089 709.729 818.499
C 709.725 816.831 709.732 815.164 709.733 813.496
C 709.736 806.451 710.05 799.353 709.815 792.314 Z"
opacity="1" fill="rgb(208,168,126)" fill-rule="evenodd" />
<path d="
M 711.897 438.098
C 712.766 433.683 715.672 431.752 719.593 429.935
C 722.689 428.5 726.418 427.341 727.429 423.661
C 728.59 419.434 723.975 417.528 720.506 418.409
C 717.963 419.054 716.85 421.271 716.264 423.609
C 715.093 423.792 712.993 423.83 712.054 423.071
C 712.465 411.823 732.006 410.968 732.643 422.188
C 732.714 423.439 732.518 424.617 732.144 425.808
C 730.083 432.368 721.433 431.346 718.063 436.574
C 720.961 437.619 725.161 436.896 728.215 436.858
C 729.278 436.845 730.867 436.539 731.844 436.992
C 731.966 437.755 732.555 440.366 731.973 440.937
C 725.282 441.111 718.454 440.496 711.805 441.052
C 711.609 440.106 711.816 439.055 711.897 438.098 Z"
opacity="1" fill="rgb(207,167,123)" fill-rule="evenodd" />
<path d="
M 739.894 425.105
C 740.142 422.314 740.755 419.184 742.718 417.075
C 746.65 412.85 754.61 413.387 758.503 417.432
C 761.571 420.619 761.726 425.812 761.36 429.943
C 761.087 433.028 760.431 436.416 758.213 438.739
C 754.458 442.671 746.634 442.978 742.763 439.077
C 739.431 435.718 739.503 429.496 739.894 425.105 Z
M 745.378 422.56
C 745.015 423.799 745.103 425.211 745.097 426.488
C 745.081 429.527 744.665 433.325 746.56 435.919
C 749.196 439.527 754.207 438.016 755.545 434.163
C 756.8 430.551 757.013 423.876 754.844 420.535
C 752.013 416.174 746.681 418.106 745.378 422.56 Z"
opacity="1" fill="rgb(208,170,128)" fill-rule="evenodd" />
<path d="
M 739.568 792.222
C 741.344 792.111 743.072 792.084 744.851 792.16
C 745.151 798.458 745.041 804.773 745.048 811.079
C 745.051 814.003 744.743 817.208 745.163 820.101
C 743.341 819.952 741.497 820.244 739.675 820.178
C 739.862 814.459 739.792 808.721 739.793 802.996
C 739.794 799.469 740.06 795.71 739.568 792.222 Z"
opacity="1" fill="rgb(209,167,124)" fill-rule="evenodd" />
<path d="
M 754.911 804.112
C 755.111 800.917 756.011 797.508 758.29 795.145
C 763.925 789.299 776.309 789.701 782.11 795.051
C 785.876 798.525 786.102 804.145 785.79 808.929
C 785.593 811.942 784.746 815.323 782.533 817.518
C 781.066 818.974 778.804 819.841 776.846 820.382
C 771.183 821.945 763.707 821.571 758.985 817.713
C 755.217 814.635 754.629 808.631 754.911 804.112 Z
M 760.427 803.599
C 760.007 807.556 760.187 813.001 763.747 815.537
C 768.956 819.248 779.334 817.597 780.172 810.414
C 780.65 806.307 780.867 800.402 777.564 797.349
C 774.156 794.199 766.807 793.923 763.285 797.035
C 761.404 798.697 760.685 801.174 760.427 803.599 Z"
opacity="1" fill="rgb(208,167,123)" fill-rule="evenodd" />
<path d="
M 768.898 423.089
C 769.321 420.316 770.479 417.639 772.796 415.95
C 776.629 413.156 783.22 413.756 786.54 417.119
C 789.885 420.506 790.13 427.001 789.548 431.456
C 789.187 434.213 788.586 437.104 786.56 439.147
C 782.823 442.917 774.996 442.741 771.372 438.952
C 767.86 435.28 768.184 427.769 768.898 423.089 Z
M 773.96 429.12
C 773.9 432.994 774.491 438.133 779.467 437.926
C 780.418 437.887 781.396 437.795 782.142 437.14
C 784.384 435.175 784.241 431.181 784.276 428.486
C 784.312 425.771 784.467 422.537 783.046 420.109
C 781.219 416.989 776.643 417.64 774.921 420.516
C 773.502 422.886 774.001 426.46 773.96 429.12 Z"
opacity="1" fill="rgb(209,170,128)" fill-rule="evenodd" />
<path d="
M 790.732 621.859
C 811.486 621.715 832.247 621.894 853.004 621.811
C 862.482 621.772 872.258 622.49 881.7 621.678
C 881.654 622.879 881.509 624.567 881.782 625.728
C 877.413 626.048 872.881 625.784 868.497 625.768
C 860.914 625.74 853.331 625.792 845.75 625.828
C 844.947 635.409 845.719 645.381 845.729 654.999
C 845.746 673.332 845.661 691.665 845.652 709.998
C 845.649 717.165 845.618 724.332 845.588 731.498
C 845.582 733.099 845.616 734.696 845.638 736.297
C 845.646 736.944 845.731 738.084 845.24 738.534
C 838.785 738.501 832.301 738.512 825.841 738.542
C 825.444 730.885 825.727 723.167 825.731 715.5
C 825.737 702.167 825.728 688.833 825.738 675.5
C 825.746 664.833 825.764 654.166 825.763 643.499
C 825.762 637.698 825.418 631.753 825.872 625.97
C 825.22 625.521 823.794 625.803 823 625.805
C 820.833 625.813 818.665 625.802 816.497 625.788
C 807.928 625.733 799.315 625.525 790.751 625.716
C 790.663 624.445 790.663 623.127 790.732 621.859 Z"
opacity="1" fill="rgb(206,166,120)" fill-rule="evenodd" />
<path d="
M 799.197 420.373
C 801.261 419.66 803.464 419.216 805.259 417.897
C 806.473 417.004 807.102 415.611 808.235 414.689
C 809.456 414.584 810.673 414.603 811.896 414.564
C 812.409 416.295 811.947 418.733 811.944 420.556
C 811.936 424.868 811.845 429.181 811.87 433.492
C 811.882 435.521 812.612 439.06 811.742 440.904
C 810.151 440.856 808.433 440.88 806.855 441.075
C 806.296 439.622 806.75 437.085 806.737 435.503
C 806.704 431.193 806.619 426.885 806.675 422.576
C 804.266 423.003 801.901 423.537 799.48 423.915
C 799.144 422.866 798.993 421.446 799.197 420.373 Z"
opacity="1" fill="rgb(207,166,124)" fill-rule="evenodd" />
<path d="
M 904.758 621.88
C 929.036 621.296 953.377 621.923 977.662 621.75
C 977.464 622.371 977.431 625.098 977.724 625.652
C 970.89 626.123 963.86 625.649 957.007 625.662
C 946.263 625.683 935.466 626.012 924.731 625.789
C 924.156 629.71 924.642 634.032 924.639 637.997
C 924.633 646.331 924.684 654.666 924.734 663
C 924.753 666.059 924.765 669.117 924.803 672.176
C 924.813 672.994 924.517 674.742 925.002 675.372
C 940.523 676.093 956.361 675.661 971.889 675.275
C 972.002 676.567 971.982 677.872 972.057 679.176
C 966.625 680.026 960.497 679.277 954.997 679.277
C 944.943 679.277 934.843 679.6 924.795 679.378
C 924.305 680.866 924.637 682.922 924.641 684.496
C 924.65 688.33 924.674 692.165 924.685 695.999
C 924.71 704.478 924.738 712.958 924.698 721.438
C 924.679 725.524 924.01 730.46 924.919 734.448
C 931.741 734.069 938.666 734.557 945.497 734.549
C 956.343 734.537 967.231 734.188 978.078 734.38
C 978.379 735.653 978.057 737.066 978.226 738.36
C 971.366 738.73 964.371 738.373 957.498 738.365
C 939.993 738.343 922.401 737.993 904.919 738.463
C 904.316 734.448 904.758 730.056 904.758 725.999
C 904.757 718.165 904.759 710.332 904.758 702.499
C 904.755 675.653 905.382 648.715 904.758 621.88 Z"
opacity="1" fill="rgb(206,166,120)" fill-rule="evenodd" />

</svg>