<svg xmlns="http://www.w3.org/2000/svg"
shape-rendering="geometricPrecision"
width="4000" height="4000" viewBox="0 0 1024 1024">
  <metadata>null</metadata>

<path d="
M 45.416 621.809
C 53.045 621.258 60.841 621.669 68.491 621.579
C 76.253 621.488 84.233 621.038 91.956 621.983
C 97.963 622.719 104.554 624.902 109.98 627.547
C 122.416 633.61 129.399 648.725 122.631 661.611
C 119.672 667.246 114.652 671.09 108.934 673.645
C 106.646 674.667 102.609 674.786 100.881 676.602
C 103.5 678.177 107.17 678.612 110.048 679.68
C 114.027 681.158 117.776 683.746 120.932 686.55
C 131.853 696.253 132.851 712.68 123.988 724.057
C 121.431 727.339 117.786 730.001 114.153 731.983
C 104.448 737.276 93.306 738.132 82.502 738.158
C 74.667 738.177 66.833 738.299 58.997 738.266
C 54.587 738.248 50.027 737.863 45.632 738.187
C 45.378 737.214 45.611 736.035 45.578 735.024
C 45.486 732.181 45.421 729.339 45.381 726.492
C 45.257 717.828 45.241 709.162 45.257 700.497
C 45.305 674.267 45.157 648.037 45.416 621.809 Z
M 65.761 625.777
C 65.64 637.18 65.714 648.591 65.709 659.998
C 65.707 663.424 65.72 666.85 65.711 670.276
C 65.706 671.886 65.35 673.93 65.837 675.471
C 70.466 675.661 75.165 675.512 79.825 675.368
C 86.113 675.172 92.378 675.072 97.482 670.775
C 106.407 663.261 107.241 647.808 102.541 637.883
C 101.166 634.978 99.28 631.909 96.715 629.91
C 90.36 624.957 81.477 625.151 73.87 625.402
C 71.247 625.488 68.314 625.149 65.761 625.777 Z
M 65.911 679.502
C 65.846 679.606 65.782 679.71 65.717 679.814
C 65.457 686.524 65.719 693.281 65.716 699.999
C 65.71 711.37 65.618 722.753 65.851 734.123
C 66.486 734.655 68.635 734.281 69.501 734.293
C 72.933 734.341 76.368 734.363 79.8 734.38
C 87.393 734.418 95.226 733.808 100.9 728.05
C 113.248 715.518 112.393 688.662 94.522 681.613
C 85.497 678.053 75.388 679.403 65.911 679.502 Z"
opacity="1" fill="rgb(183,201,205)" fill-rule="evenodd" />
<path d="
M 159.121 621.748
C 166.202 620.856 173.848 621.589 180.997 621.538
C 197.389 621.422 215.82 620.078 230.48 628.852
C 236.188 632.268 241.53 637.58 244.21 643.721
C 248.554 653.678 246.31 666.1 238.537 673.697
C 233.791 678.335 227.905 681.713 221.509 683.45
C 219.512 683.992 217.486 684.368 215.425 684.565
C 214.034 684.699 212.427 684.675 211.195 685.379
C 212.328 688.314 214.633 690.662 216.496 693.152
C 219.218 696.79 221.809 700.521 224.554 704.142
C 231.007 712.654 237.35 721.249 243.92 729.668
C 246.125 732.495 248.028 735.738 250.511 738.312
C 250.955 738.481 248.599 738.289 248.137 738.306
C 246.426 738.373 244.708 738.328 242.996 738.331
C 239.362 738.336 235.728 738.277 232.093 738.284
C 230.685 738.287 228.608 738.696 227.293 738.207
C 215.213 719.993 200.912 703.198 189.896 684.291
C 192.926 683.164 196.833 683.468 200.047 683.185
C 206.483 682.619 213.084 680.793 217.681 675.999
C 230.52 662.609 227.354 637.25 210.993 628.365
C 205.215 625.227 198.644 625.323 192.253 625.446
C 188.093 625.526 183.888 625.401 179.742 625.777
C 180.043 641.333 179.625 656.936 179.629 672.498
C 179.634 694.395 179.953 716.313 179.542 738.206
C 178.244 738.878 175.212 738.317 173.745 738.318
C 169.023 738.321 164.144 737.968 159.44 738.413
C 158.657 734.925 159.256 730.583 159.227 727.001
C 159.164 719.168 159.168 711.333 159.18 703.5
C 159.205 686.167 159.167 668.834 159.197 651.502
C 159.214 641.625 159.639 631.608 159.121 621.748 Z"
opacity="1" fill="rgb(183,201,206)" fill-rule="evenodd" />
<path d="
M 208.957 415.605
C 208.998 415.397 209.04 415.188 209.081 414.98
C 210.711 413.875 213.398 414.383 215.311 414.438
C 220.041 414.574 225.196 413.866 229.859 414.434
C 229.942 415.688 230.085 416.915 230.106 418.174
C 226.678 418.731 222.961 418.337 219.498 418.335
C 217.955 418.334 215.894 417.995 214.508 418.726
C 214.386 420.888 214.516 423.042 214.56 425.203
C 217.999 425.636 221.598 425.271 225.062 425.411
C 226.155 425.455 227.758 425.242 228.766 425.628
C 228.856 427.019 229.247 428.403 229.09 429.806
C 228.086 430.439 226.144 430.188 224.993 430.204
C 221.569 430.25 218.125 430.098 214.707 430.324
C 214.658 431.904 214.572 433.474 214.592 435.056
C 214.601 435.726 214.405 436.445 214.997 436.853
C 219.967 437.367 225.16 436.773 230.15 436.798
C 230.332 438.267 229.723 439.737 229.786 441.192
C 226.592 441.54 223.208 441.291 219.995 441.288
C 216.45 441.284 212.746 441.509 209.219 441.153
C 208.914 432.758 208.327 423.988 208.957 415.605 Z"
opacity="1" fill="rgb(186,202,203)" fill-rule="evenodd" />
<path d="
M 238.408 421.074
C 240.757 413.478 250.405 412.33 256.884 415.413
C 258.808 416.329 260.594 417.789 261.562 419.731
C 261.939 420.485 262.215 421.581 261.607 422.269
C 260.671 422.959 258.199 423.166 257.185 422.633
C 257.221 421.861 257.315 421.1 257.141 420.344
C 254.925 417.608 250.537 417.046 247.336 418.164
C 245.561 418.784 243.563 420.426 244.167 422.535
C 244.763 424.616 247.656 425.102 249.471 425.365
C 252.585 425.816 256.758 425.735 259.656 426.901
C 262.864 428.192 264.347 433.696 262.816 436.632
C 259.677 442.653 249.582 443.352 244.041 441.061
C 241.232 439.9 237.566 436.723 238.305 433.3
C 239.275 432.713 240.336 432.49 241.459 432.419
C 242.731 434.16 243.119 435.698 245.203 436.747
C 246.063 437.18 247.059 437.35 248.01 437.436
C 251.117 437.718 258.068 438.301 258.152 433.497
C 258.198 430.828 253.961 430.396 252.097 430.176
C 246.762 429.548 237.324 428.522 238.408 421.074 Z"
opacity="1" fill="rgb(188,201,201)" fill-rule="evenodd" />
<path d="
M 270.015 416.107
C 270.096 415.661 270.106 415.215 270.138 414.762
C 277.928 414.56 285.752 414.835 293.544 414.867
C 294.177 415.499 293.164 417.839 293.302 418.694
C 290.143 419.054 286.893 418.453 283.725 418.801
C 284.431 426.055 283.304 433.472 283.798 440.711
C 282.042 440.984 280.184 440.831 278.408 440.911
C 277.756 439.782 278.225 437.321 278.21 436.001
C 278.164 431.926 278.175 427.853 278.148 423.779
C 278.139 422.477 278.661 420.001 278.061 418.856
C 275.557 418.73 272.477 419.368 270.174 418.157
C 270.046 417.46 269.959 416.813 270.015 416.107 Z"
opacity="1" fill="rgb(185,200,201)" fill-rule="evenodd" />
<path d="
M 279.023 623.101
C 279.095 622.563 279.08 622.874 279.009 622.168
C 279.887 621.174 282.942 621.774 284.196 621.782
C 288.985 621.815 293.911 621.452 298.682 621.872
C 299.142 622.742 298.908 624.019 298.918 624.988
C 298.938 627.13 298.932 629.272 298.934 631.414
C 298.94 639.105 299.113 646.804 299.102 654.5
C 299.073 674.168 299.103 693.835 299.165 713.502
C 299.191 721.71 298.781 729.994 299.114 738.192
C 297.699 738.54 295.958 738.243 294.502 738.234
C 291.166 738.212 287.831 738.219 284.496 738.239
C 283.113 738.248 280.318 738.828 279.15 738.2
C 279.127 714.894 278.87 691.583 278.916 668.28
C 278.946 653.257 279.574 638.117 279.023 623.101 Z"
opacity="1" fill="rgb(183,201,205)" fill-rule="evenodd" />
<path d="
M 297.778 435.742
C 299.507 435.724 301.283 435.733 303.007 435.837
C 303.222 437.43 303.215 439.504 302.815 441.063
C 301.096 441.124 299.379 441.028 297.66 441.07
C 297.793 439.306 298.018 437.5 297.778 435.742 Z"
opacity="1" fill="rgb(180,199,203)" fill-rule="evenodd" />
<path d="
M 333.394 621.809
C 340.371 621.25 347.497 621.791 354.497 621.65
C 372.865 621.282 392.395 620.916 408.475 631.145
C 430.818 645.359 434.929 675.06 428.906 699.033
C 426.181 709.879 420.74 720.251 411.576 726.969
C 388.983 743.529 359.691 737.019 333.617 738.322
C 332.714 734.937 333.441 730.501 333.379 726.993
C 333.233 718.663 333.24 710.332 333.216 702.001
C 333.138 675.272 333.191 648.536 333.394 621.809 Z
M 353.748 625.828
C 352.792 634.036 353.648 642.739 353.664 650.999
C 353.695 666.666 353.622 682.333 353.656 698
C 353.674 706.166 353.677 714.331 353.713 722.497
C 353.729 726.165 353.003 730.9 353.957 734.438
C 359.887 733.975 366.067 734.432 372.018 734.43
C 375.209 734.428 378.57 734.551 381.681 733.729
C 386.804 732.377 391.223 729.611 395.056 726.002
C 400.69 720.697 403.814 713.31 405.974 706.018
C 410.49 690.771 410.928 673.484 407.225 658.05
C 405.493 650.832 402.991 642.585 397.601 637.204
C 393.857 633.465 388.998 629.663 384.058 627.694
C 378.664 625.543 372.204 625.535 366.498 625.597
C 362.251 625.642 357.988 625.592 353.748 625.828 Z"
opacity="1" fill="rgb(184,201,204)" fill-rule="evenodd" />
<path d="
M 388.758 348.78
C 390.149 351.597 391.128 354.599 392.5 357.431
C 394.84 362.265 397.812 366.777 401.279 370.874
C 406.141 376.619 412.86 380.658 419.478 384.067
C 425.133 386.98 431.22 389.671 437.568 390.654
C 447.987 392.267 458.495 391.636 468.968 392.351
C 479.082 392.428 489.203 392.489 499.319 392.422
C 505.855 392.379 512.653 392.037 519.163 392.638
C 522.482 392.945 526.34 393.448 529.527 394.416
C 531.512 395.018 533.325 396.013 535.43 396.313
C 536.565 397.363 537.518 397.371 538.905 397.958
C 541.992 399.266 545.15 400.824 548.146 402.419
C 552.977 404.991 556.895 408.706 561.583 411.408
C 563.552 412.501 565.25 414.802 566.732 416.476
C 571.066 421.371 574.486 426.902 577.819 432.507
C 578.889 434.306 579.677 436.171 580.666 438.013
C 581.169 438.951 582.015 439.842 581.95 440.96
C 581.053 440.992 580.46 440.171 579.881 439.557
C 578.604 438.204 577.127 437 575.953 435.554
C 575.551 434.971 575.237 433.501 574.363 433.962
C 571.718 433.178 569.111 430.054 566.935 428.403
C 561.853 424.546 556.47 420.897 550.601 418.332
C 549.944 417.606 549.366 417.764 548.583 417.3
C 547.892 416.892 547.493 416.176 546.77 415.802
C 543.912 414.326 541.102 413.9 538.038 413.265
C 536.326 412.618 534.525 412.427 532.76 411.979
C 529.324 411.106 526.028 410.098 522.487 409.669
C 517.378 409.049 512.135 409.318 506.998 409.312
C 497.831 409.301 488.665 409.306 479.498 409.288
C 475.88 409.281 472.07 409.646 468.478 409.284
C 466.03 408.937 463.246 409.314 460.757 409.281
C 455.798 409.215 450.852 408.972 445.928 408.362
C 429.842 406.368 412.347 399.413 400.852 387.714
C 397.163 383.96 394.06 379.331 391.746 374.613
C 390.721 372.523 390.367 369.175 388.934 367.438
C 388.588 362.656 388.419 357.963 388.376 353.144
C 388.37 352.515 388.335 348.606 388.758 348.78 Z"
opacity="1" fill="rgb(122,78,56)" fill-rule="evenodd" />
<path d="
M 388.934 367.438
C 390.367 369.175 390.721 372.523 391.746 374.613
C 394.06 379.331 397.163 383.96 400.852 387.714
C 412.347 399.413 429.842 406.368 445.928 408.362
C 450.852 408.972 455.798 409.215 460.757 409.281
C 463.246 409.314 466.03 408.937 468.478 409.284
C 467.794 412.307 468.334 415.893 468.316 418.995
C 468.306 420.688 467.951 422.809 468.469 424.43
C 450.34 425.356 431.928 423.611 416.309 413.68
C 413.139 411.664 410.028 409.724 407.333 407.08
C 401.348 401.208 396.463 394.221 392.993 386.596
C 391.645 383.635 390.421 380.543 389.484 377.428
C 389.287 376.773 389.257 374.562 388.421 374.93
C 388.601 372.473 388.748 369.932 388.934 367.438 Z"
opacity="1" fill="rgb(182,200,204)" fill-rule="evenodd" />
<path d="
M 388.421 374.93
C 389.257 374.562 389.287 376.773 389.484 377.428
C 390.421 380.543 391.645 383.635 392.993 386.596
C 396.463 394.221 401.348 401.208 407.333 407.08
C 410.028 409.724 413.139 411.664 416.309 413.68
C 431.928 423.611 450.34 425.356 468.469 424.43
C 477.936 423.817 487.529 424.638 497.006 424.735
C 504.187 424.809 511.412 424.554 518.586 424.912
C 522.068 425.085 525.733 425.791 529.197 426.232
C 530.717 426.425 532.14 427.284 533.621 427.664
C 536.885 428.501 539.85 429.465 543.013 430.791
C 544.318 431.752 546.531 432.756 548.095 433.215
C 551.133 434.146 554.221 436.839 556.742 438.724
C 564.628 444.619 571.031 451.637 575.523 460.428
C 576.849 463.024 578.505 465.472 579.901 468.044
C 580.26 468.707 581.251 469.914 580.793 470.675
C 580.01 470.626 579.037 469.371 578.504 468.857
C 576.748 467.16 575.153 465.37 573.197 463.887
C 565.93 458.375 558.193 453.561 549.995 449.566
C 544.6 446.937 539.406 445.503 533.623 444.082
C 530.368 443.283 527.277 442.38 523.925 442.002
C 513.4 440.814 502.574 441.396 492 441.395
C 487 441.395 482 441.401 477.001 441.419
C 474.429 441.428 471.343 441.039 468.85 441.699
C 468.418 441.782 468.047 441.445 467.531 441.481
C 464.313 441.707 461.052 441.508 457.826 441.447
C 443.857 441.186 430.234 437.974 418.332 430.442
C 413.408 427.324 409.281 423.419 404.702 419.881
C 405.937 423.841 407.849 427.543 409.93 431.121
C 411.819 434.369 414.178 437.51 416.796 440.21
C 430.258 454.097 450.227 455.964 468.488 456.145
C 480.322 456.289 492.171 456.161 504.006 456.161
C 510.406 456.161 517.102 455.683 523.454 456.563
C 537.232 458.473 550.979 464.189 561.297 473.565
C 566.168 477.992 570.741 483.361 573.918 489.157
C 575.926 492.819 577.376 496.938 579.735 500.393
C 579.208 500.456 578.639 499.454 578.267 499.125
C 576.74 497.78 575.095 496.505 573.456 495.296
C 567.206 490.684 560.952 486.27 553.998 482.758
C 547.214 479.333 540.285 477.087 532.928 475.295
C 530.839 474.786 528.771 474.055 526.637 473.761
C 521.776 473.09 516.718 473.332 511.823 473.336
C 504.714 473.342 497.606 473.302 490.497 473.297
C 485.253 473.293 480.008 473.308 474.764 473.34
C 472.864 473.352 469.93 472.829 468.3 473.895
C 467.931 473.046 465.259 473.422 464.392 473.408
C 460.609 473.348 456.768 473.214 452.99 473.315
C 451.011 472.809 448.818 472.74 446.792 472.308
C 443.503 471.607 440.317 470.614 437.079 469.732
C 434.422 468.036 430.96 466.962 428.09 465.579
C 425.649 464.403 423.525 462.746 421.149 461.475
C 421.352 461.398 419.364 459.726 419.014 459.422
C 417.465 458.074 415.953 456.681 414.489 455.242
C 412.078 452.873 409.736 450.314 407.88 447.48
C 406.716 445.704 405.776 443.599 404.503 441.94
C 403.778 439.19 402.217 436.509 401.118 433.884
C 398.426 427.457 395.496 421.078 393.053 414.551
C 391.995 411.725 390.972 408.834 390.33 405.882
C 389.896 403.884 389.924 401.22 388.936 399.422
C 388.969 396.985 388.452 394.576 388.375 392.144
C 388.193 386.432 388.274 380.641 388.421 374.93 Z"
opacity="1" fill="rgb(121,78,55)" fill-rule="evenodd" />
<path d="
M 388.936 399.422
C 389.924 401.22 389.896 403.884 390.33 405.882
C 390.972 408.834 391.995 411.725 393.053 414.551
C 395.496 421.078 398.426 427.457 401.118 433.884
C 402.217 436.509 403.778 439.19 404.503 441.94
C 404.039 442.148 404.072 443.176 403.988 443.665
C 403.703 445.316 403.836 447.074 403.856 448.74
C 403.938 455.652 403.932 462.569 403.929 469.492
C 403.913 498.435 404.313 527.417 403.795 556.347
C 398.867 556.672 393.868 556.295 388.929 556.416
C 388.345 555.79 388.433 554.216 388.5 553.343
C 388.683 550.954 388.433 548.52 388.425 546.127
C 388.392 536.248 388.397 526.368 388.393 516.489
C 388.376 477.499 387.59 438.341 388.936 399.422 Z"
opacity="1" fill="rgb(184,202,205)" fill-rule="evenodd" />
<path d="
M 411.511 358.479
C 410.568 359.243 413.796 362.351 414.575 363.101
C 418.666 367.04 423.63 370.146 428.751 372.564
C 437.383 376.64 447.208 376.612 456.538 376.888
C 459.336 376.971 462.122 377.073 464.92 377.013
C 465.906 376.992 467.705 376.649 468.469 377.35
C 467.626 380.854 468.481 385.247 468.36 388.869
C 468.33 389.742 467.988 392.013 468.968 392.351
C 458.495 391.636 447.987 392.267 437.568 390.654
C 431.22 389.671 425.133 386.98 419.478 384.067
C 412.86 380.658 406.141 376.619 401.279 370.874
C 397.812 366.777 394.84 362.265 392.5 357.431
C 391.128 354.599 390.149 351.597 388.758 348.78
C 388.343 347.376 388.598 345.471 388.588 344.002
C 388.567 340.832 388.544 337.662 388.536 334.492
C 388.51 323.825 388.529 313.157 388.529 302.49
C 388.529 280.49 388.535 258.491 388.572 236.491
C 388.591 225.321 388.202 214.029 388.715 202.874
C 393.748 202.666 399.172 202.42 404.188 202.826
C 404.838 216.15 404.193 229.654 404.19 242.996
C 404.183 269.329 404.226 295.662 404.193 321.996
C 404.187 327.468 404.196 332.941 404.225 338.414
C 404.246 342.477 404.212 346.836 405.54 350.729
C 406.346 353.092 408.611 358.373 411.511 358.479 Z"
opacity="1" fill="rgb(184,201,204)" fill-rule="evenodd" />
<path d="
M 468.85 441.699
C 467.663 444.794 468.376 449.142 468.366 452.432
C 468.364 453.073 468.801 455.775 468.488 456.145
C 450.227 455.964 430.258 454.097 416.796 440.21
C 414.178 437.51 411.819 434.369 409.93 431.121
C 407.849 427.543 405.937 423.841 404.702 419.881
C 409.281 423.419 413.408 427.324 418.332 430.442
C 430.234 437.974 443.857 441.186 457.826 441.447
C 461.052 441.508 464.313 441.707 467.531 441.481
C 468.047 441.445 468.418 441.782 468.85 441.699 Z"
opacity="1" fill="rgb(181,199,203)" fill-rule="evenodd" />
<path d="
M 411.511 358.479
C 412.207 358.462 412.795 358.655 413.469 358.787
C 415.055 359.91 418.606 358.99 420.49 358.952
C 425.767 358.847 431.248 358.787 436.504 359.131
C 439.329 359.117 442.15 359.114 444.974 359.195
C 446.482 359.932 448.849 359.528 450.487 359.545
C 454.524 359.587 458.573 359.376 462.615 359.383
C 464.53 359.386 466.608 359.137 468.387 359.918
C 476.692 359.615 485.049 359.918 493.36 359.912
C 501.674 359.906 510.226 359.576 518.501 360.471
C 534.542 362.206 550.133 368.666 562.157 379.448
C 566.453 383.3 570.304 387.797 573.415 392.66
C 575.642 396.141 577.305 399.945 579.512 403.436
C 579.766 403.816 579.664 403.614 579.82 404.042
C 579.885 406.292 582.506 407.794 582.302 410.324
C 581.442 410.098 580.708 408.888 580.142 408.243
C 578.493 406.361 576.833 404.402 575.061 402.635
C 573.841 401.418 572.183 400.66 570.853 399.559
C 566.635 396.069 562.537 392.687 557.789 389.895
C 551.994 386.487 545.659 383.431 539.224 381.455
C 537.229 380.842 535.157 380.656 533.152 380.116
C 529.427 379.112 525.828 377.975 521.971 377.512
C 512.13 376.331 501.905 377.11 492.004 377.134
C 486.671 377.147 481.339 377.144 476.006 377.124
C 473.758 377.116 470.573 376.553 468.469 377.35
C 467.705 376.649 465.906 376.992 464.92 377.013
C 462.122 377.073 459.336 376.971 456.538 376.888
C 447.208 376.612 437.383 376.64 428.751 372.564
C 423.63 370.146 418.666 367.04 414.575 363.101
C 413.796 362.351 410.568 359.243 411.511 358.479 Z"
opacity="1" fill="rgb(121,78,56)" fill-rule="evenodd" />
<path d="
M 413.469 358.787
C 414.249 358.843 414.75 358.355 415.514 358.309
C 416.481 358.249 417.104 358.757 417.997 358.842
C 418.997 358.937 419.976 358.388 420.985 358.35
C 422.577 358.224 423.948 358.873 425.484 358.893
C 426.292 358.904 426.663 358.172 427.501 358.222
C 428.422 358.277 429.186 358.848 430.119 358.912
C 432.338 359.063 434.272 358.216 436.446 358.948
C 436.465 359.009 436.485 359.07 436.504 359.131
C 431.248 358.787 425.767 358.847 420.49 358.952
C 418.606 358.99 415.055 359.91 413.469 358.787 Z"
opacity="0.996" fill="rgb(152,122,109)" fill-rule="evenodd" />
<path d="
M 436.446 358.948
C 434.272 358.216 432.338 359.063 430.119 358.912
C 429.186 358.848 428.422 358.277 427.501 358.222
C 426.663 358.172 426.292 358.904 425.484 358.893
C 423.948 358.873 422.577 358.224 420.985 358.35
C 421.168 356.977 420.84 355.391 420.819 353.996
C 420.767 350.664 420.836 347.329 420.811 343.996
C 420.735 333.997 420.743 323.997 420.748 313.997
C 420.759 289.663 420.741 265.329 420.807 240.995
C 420.841 228.35 420.531 215.619 421.044 202.99
C 422.322 202.385 424.11 202.647 425.507 202.665
C 428.776 202.707 432.981 201.946 436.129 202.765
C 436.413 241.501 436.299 280.256 436.167 318.995
C 436.133 328.926 436.014 338.858 436.068 348.789
C 436.081 351.201 436.082 353.612 436.034 356.023
C 436.013 357.046 435.68 358.108 436.446 358.948 Z"
opacity="1" fill="rgb(185,203,205)" fill-rule="evenodd" />
<path d="
M 421.149 461.475
C 423.525 462.746 425.649 464.403 428.09 465.579
C 430.96 466.962 434.422 468.036 437.079 469.732
C 435.511 469.732 436.095 473.294 436.11 474.498
C 436.177 479.664 436.209 484.831 436.219 489.997
C 436.249 505.496 436.184 520.996 436.127 536.495
C 436.111 540.994 436.08 545.494 436.07 549.994
C 436.065 551.961 436.545 554.678 435.861 556.537
C 430.904 556.804 425.751 556.016 420.83 556.668
C 420.499 535.452 420.756 514.215 420.771 492.996
C 420.776 486.161 420.826 479.327 420.862 472.492
C 420.88 468.951 420.323 464.933 421.149 461.475 Z"
opacity="1" fill="rgb(183,202,205)" fill-rule="evenodd" />
<path d="
M 444.974 359.195
C 446.965 359.299 451.007 360.325 452.57 358.725
C 452.817 357.555 452.55 356.184 452.556 354.985
C 452.567 352.489 452.622 349.993 452.625 347.497
C 452.635 339.162 452.575 330.828 452.588 322.493
C 452.627 295.827 452.606 269.159 452.573 242.493
C 452.562 233.326 452.501 224.158 452.597 214.992
C 452.639 211.052 452.136 206.731 452.748 202.843
C 467.04 201.878 481.678 202.581 496.002 202.665
C 508.921 202.741 522.149 202.052 535.008 203.396
C 550.524 205.019 565.362 209.829 578.671 217.948
C 584.562 221.541 590.251 225.984 594.637 231.341
C 598.927 236.58 602.709 242.093 605.663 248.223
C 609.98 257.183 611.952 266.141 613.54 275.867
C 615.234 286.249 613.578 298.563 610.643 308.579
C 607.268 320.096 601.575 331.192 593.193 339.864
C 589.584 343.597 585.285 346.656 580.981 349.526
C 575.554 353.145 568.501 357.987 561.652 357.83
C 558.683 357.762 555.436 356.154 552.72 355.069
C 549.849 353.923 546.942 352.896 544.025 351.874
C 543.188 351.58 541.263 351.222 540.752 350.537
C 543.27 348.792 546.126 347.578 548.62 345.755
C 555.08 341.033 560.925 334.865 565.39 328.234
C 584.721 299.526 583.848 258.504 561.957 231.345
C 551.928 218.904 536.606 210.531 520.973 207.528
C 511.503 205.71 501.586 206.251 491.993 206.247
C 486.368 206.245 480.744 206.268 475.119 206.248
C 473.438 206.241 469.79 205.605 468.46 206.667
C 467.983 242.428 468.245 278.23 468.315 313.998
C 468.336 324.665 468.31 335.332 468.281 345.998
C 468.273 348.997 468.264 351.997 468.231 354.996
C 468.215 356.551 467.895 358.423 468.387 359.918
C 466.608 359.137 464.53 359.386 462.615 359.383
C 458.573 359.376 454.524 359.587 450.487 359.545
C 448.849 359.528 446.482 359.932 444.974 359.195 Z"
opacity="1" fill="rgb(183,201,204)" fill-rule="evenodd" />
<path d="
M 452.99 473.315
C 456.768 473.214 460.609 473.348 464.392 473.408
C 465.259 473.422 467.931 473.046 468.3 473.895
C 467.954 476.025 468.281 478.339 468.279 480.496
C 468.275 484.663 468.242 488.831 468.258 492.998
C 468.307 505.498 468.303 517.999 468.292 530.499
C 468.287 535.831 468.307 541.164 468.303 546.496
C 468.301 548.51 467.671 551.622 468.395 553.478
C 481.716 553.907 495.187 553.583 508.51 553.422
C 516.065 553.331 523.658 553.915 531.194 553.266
C 537.521 552.722 544.329 550.993 550.314 548.901
C 563.761 544.201 576.192 536.5 586.248 526.381
C 606.175 506.329 616.723 475.295 615.282 447.257
C 614.89 439.631 613.234 431.98 611.139 424.657
C 606.669 409.03 597.749 393.362 586.411 381.707
C 582.14 377.316 577.596 372.646 572.441 369.293
C 570.903 368.293 566.661 367.028 566.214 365.305
C 567.211 364.738 568.442 365.026 569.546 365.136
C 572.45 365.428 575.433 366.072 578.268 366.749
C 582.678 367.802 587.121 368.598 591.422 370.084
C 597.793 372.285 603.849 375.491 609.647 378.9
C 615.99 382.628 621.964 387.109 627.138 392.357
C 655.718 421.342 661.581 465.913 645.481 502.702
C 642.678 509.109 638.92 514.932 634.623 520.421
C 618.652 540.823 594.135 551.549 568.918 555.028
C 553.864 557.105 538.654 556.458 523.506 556.427
C 510.908 556.401 498.307 556.536 485.709 556.379
C 474.786 556.243 463.615 556.088 452.709 556.582
C 453.121 536.908 452.592 517.176 452.612 497.495
C 452.617 491.997 452.711 486.498 452.673 481.001
C 452.657 478.65 452.075 475.507 452.99 473.315 Z"
opacity="1" fill="rgb(183,201,204)" fill-rule="evenodd" />
<path d="
M 458.403 673.1
C 459.149 668.907 459.434 664.691 460.505 660.54
C 462.049 654.554 464.632 648.636 467.977 643.438
C 480.878 623.388 508.558 615.216 530.839 622.396
C 538.396 624.831 545.357 628.031 551.345 633.273
C 553.199 634.896 555.932 636.808 556.938 639.122
C 556.523 640.525 554.904 641.544 553.883 642.505
C 551.635 644.618 550.142 648.949 546.682 649.161
C 545.835 648.548 545.399 647.024 544.914 646.09
C 544.056 644.437 543.009 642.829 541.958 641.294
C 537.299 634.488 531.837 627.585 523.63 625.103
C 517.702 623.31 510.514 622.837 504.545 624.888
C 494.978 628.175 488.123 638.029 484.923 647.257
C 479.099 664.048 477.882 682.904 481.516 700.272
C 483.065 707.674 485.255 714.82 489.147 721.352
C 492.753 727.404 498.424 732.425 505.139 734.809
C 515.33 738.427 529.267 736.976 537.592 729.73
C 538.208 725.546 537.56 720.742 537.579 716.493
C 537.626 705.762 537.307 694.957 537.666 684.237
C 533.071 683.537 528.207 684.443 523.553 683.922
C 523.098 682.93 523.379 681.797 523.554 680.752
C 524.218 680.143 525.388 680.354 526.258 680.372
C 528.172 680.412 530.089 680.363 532.002 680.36
C 537.669 680.35 543.333 680.242 549 680.262
C 551.635 680.272 554.605 679.925 557.194 680.386
C 557.712 689.88 557.377 699.485 557.414 708.992
C 557.426 712.086 557.366 715.188 557.484 718.28
C 557.552 720.046 557.931 722.018 557.694 723.765
C 553.556 729.09 546.176 732.593 540.119 735.117
C 518.213 744.244 489.016 741.136 472.356 723.118
C 460.49 710.285 457.052 689.946 458.403 673.1 Z"
opacity="1" fill="rgb(183,201,206)" fill-rule="evenodd" />
<path d="
M 535.43 396.313
C 537.81 396.616 540.001 397.761 542.205 398.662
C 547.303 400.747 551.713 403.581 556.184 406.757
C 558.077 408.102 560.407 409.309 561.583 411.408
C 556.895 408.706 552.977 404.991 548.146 402.419
C 545.15 400.824 541.992 399.266 538.905 397.958
C 537.518 397.371 536.565 397.363 535.43 396.313 Z"
opacity="1" fill="rgb(157,108,83)" fill-rule="evenodd" />
<path d="
M 538.038 413.265
C 541.102 413.9 543.912 414.326 546.77 415.802
C 547.493 416.176 547.892 416.892 548.583 417.3
C 549.366 417.764 549.944 417.606 550.601 418.332
C 548.028 417.156 545.365 416.082 542.719 415.079
C 541.206 414.505 539.4 414.137 538.038 413.265 Z"
opacity="0.992" fill="rgb(164,122,91)" fill-rule="evenodd" />
<path d="
M 543.013 430.791
C 544.85 431.238 546.71 431.874 548.095 433.215
C 546.531 432.756 544.318 431.752 543.013 430.791 Z"
opacity="0.996" fill="rgb(153,105,76)" fill-rule="evenodd" />
<path d="
M 575.953 435.554
C 575.363 435.089 574.832 434.548 574.363 433.962
C 575.237 433.501 575.551 434.971 575.953 435.554 Z"
opacity="0.996" fill="rgb(176,135,113)" fill-rule="evenodd" />
<path d="
M 589.415 621.805
C 606.514 621.041 623.756 621.58 640.873 621.547
C 645.992 621.537 651.104 621.515 656.223 621.45
C 658.223 621.425 661.249 620.789 663.112 621.399
C 663.282 622.396 663.415 624.802 662.715 625.582
C 650.982 625.644 639.238 625.643 627.5 625.683
C 621.607 625.703 615.652 625.465 609.769 625.835
C 609.285 627.539 609.586 629.72 609.586 631.496
C 609.585 634.997 609.568 638.498 609.586 641.999
C 609.643 653.047 609.457 664.111 609.758 675.154
C 625.496 675.89 641.492 675.352 657.248 675.099
C 657.328 676.484 657.258 677.851 657.278 679.231
C 651.903 679.573 646.388 679.227 640.999 679.226
C 630.601 679.223 620.208 679.26 609.812 679.354
C 609.239 680.79 609.622 682.947 609.627 684.5
C 609.64 688.167 609.635 691.833 609.624 695.499
C 609.586 708.401 609.636 721.305 609.693 734.205
C 613.598 734.817 618.041 734.256 622 734.25
C 631.5 734.236 641 734.121 650.5 734.135
C 654.756 734.141 659.374 733.648 663.585 734.241
C 663.69 735.547 663.619 736.857 663.56 738.163
C 661.813 738.805 658.86 738.25 656.995 738.257
C 651.995 738.278 646.996 738.261 641.996 738.254
C 629.83 738.236 617.662 738.409 605.497 738.293
C 601.998 738.26 598.498 738.249 594.999 738.233
C 593.223 738.225 591.263 738.462 589.521 738.128
C 589.328 712.759 589.154 687.378 589.222 662
C 589.258 648.662 589.981 635.12 589.415 621.805 Z"
opacity="1" fill="rgb(184,201,205)" fill-rule="evenodd" />
<path d="
M 682.956 623.584
C 683.165 622.898 683.307 622.224 683.586 621.56
C 685.093 620.777 687.971 621.426 689.65 621.492
C 694.095 621.666 698.555 621.516 703.002 621.52
C 719.516 621.536 736.028 621.427 752.538 621.405
C 757.691 621.398 762.846 621.422 768 621.382
C 769.39 621.372 772.444 620.682 773.53 621.408
C 773.674 622.541 773.924 624.658 773.354 625.674
C 761.938 626.421 750.39 625.311 738.957 625.753
C 737.722 628.199 738.536 632.296 738.538 634.994
C 738.545 641.994 738.562 648.995 738.558 655.996
C 738.549 674.966 738.477 693.917 738.527 712.887
C 738.542 718.631 738.414 724.352 738.336 730.091
C 738.301 732.641 737.837 735.712 738.292 738.207
C 731.79 739.078 724.958 737.743 718.406 738.351
C 718.061 737.891 718.184 736.756 718.165 736.166
C 718.105 734.288 717.965 732.408 717.923 730.534
C 717.758 723.192 717.884 715.834 717.884 708.491
C 717.884 680.885 717.85 653.279 718.11 625.679
C 714.427 625.06 710.244 625.577 706.503 625.571
C 698.707 625.558 690.924 625.553 683.134 625.407
C 682.736 624.867 682.871 624.222 682.956 623.584 Z"
opacity="1" fill="rgb(184,202,205)" fill-rule="evenodd" />
<path d="
M 711.458 438.089
C 712.869 432.563 716.988 431.196 721.604 428.696
C 723.269 427.795 725.63 426.967 726.594 425.214
C 728.913 420.999 724.974 416.797 720.603 417.935
C 717.665 418.7 717.775 421.654 715.869 423.257
C 714.513 423.708 713.316 423.408 712.075 422.832
C 711.577 422.153 712.006 421.242 712.236 420.485
C 712.867 418.4 713.762 416.238 715.828 415.22
C 720.672 412.834 728.744 413.223 731.689 418.44
C 734.947 424.21 731.04 429.998 725.494 432.211
C 722.784 433.293 719.679 433.326 718.553 436.578
C 723.023 437.12 727.637 436.181 732.081 436.72
C 732.124 438.212 731.925 439.852 732.179 441.315
C 725.323 440.532 718.114 441.52 711.207 441.232
C 711.228 440.175 711.303 439.135 711.458 438.089 Z"
opacity="1" fill="rgb(185,202,204)" fill-rule="evenodd" />
<path d="
M 739.933 422.082
C 740.613 419.231 742.145 416.64 744.644 415.033
C 748.456 412.583 754.897 413.807 758.1 416.697
C 762.119 420.325 762.676 426.865 761.486 431.862
C 759.642 439.611 750.01 445.787 743.202 439.286
C 739.264 435.526 738.731 427.118 739.933 422.082 Z
M 745.441 424.1
C 745.071 427.765 744.769 433.251 747.095 436.379
C 748.817 438.695 752.871 437.72 754.541 435.826
C 755.594 434.631 755.899 432.995 756.061 431.459
C 756.493 427.354 756.665 422.397 754.041 418.946
C 752.557 416.995 748.951 417.239 747.36 418.917
C 746.015 420.337 745.631 422.221 745.441 424.1 Z"
opacity="1" fill="rgb(189,203,203)" fill-rule="evenodd" />
<path d="
M 767.953 427.609
C 768.088 423.935 768.692 420.418 771.089 417.5
C 775.078 412.645 782.978 412.499 787.053 417.442
C 789.901 420.898 789.997 425.805 789.826 430.066
C 789.709 432.991 789.214 436.192 787.252 438.491
C 783.609 442.759 775.824 443.198 771.726 439.41
C 768.589 436.51 767.802 431.701 767.953 427.609 Z
M 774.337 423.074
C 773.656 426.792 773.347 432.664 775.611 435.872
C 778.518 439.991 783.392 436.675 784.094 432.781
C 784.721 429.307 785.153 423.024 783.042 419.967
C 779.922 415.448 775.126 418.764 774.337 423.074 Z"
opacity="1" fill="rgb(187,202,204)" fill-rule="evenodd" />
<path d="
M 790.453 623.093
C 790.644 622.585 790.801 622.069 790.965 621.551
C 792.875 620.964 795.397 621.423 797.399 621.441
C 802.099 621.484 806.799 621.539 811.5 621.541
C 827.501 621.544 843.498 621.583 859.5 621.514
C 865.002 621.49 870.499 621.437 876.003 621.427
C 877.341 621.425 880.677 620.774 881.759 621.485
C 881.712 622.582 881.958 624.51 881.202 625.385
C 874.336 625.183 867.379 625.568 860.5 625.566
C 855.686 625.565 850.518 625.023 845.755 625.739
C 846.06 633.13 845.783 640.598 845.81 647.999
C 845.87 664.165 845.857 680.332 845.792 696.498
C 845.755 705.498 845.775 714.498 845.742 723.498
C 845.725 728.275 846.086 733.38 845.42 738.101
C 844.164 738.754 841.417 738.207 840.005 738.187
C 835.298 738.117 830.57 737.883 825.867 737.891
C 825.491 736.992 825.675 735.657 825.672 734.686
C 825.664 732.434 825.659 730.183 825.642 727.931
C 825.585 720.12 825.582 712.308 825.649 704.497
C 825.872 678.339 824.877 652.061 825.935 625.922
C 825.4 625.351 824.246 625.584 823.489 625.587
C 821.333 625.595 819.178 625.613 817.022 625.585
C 811.013 625.509 805.006 625.444 798.996 625.419
C 796.399 625.409 792.834 625.959 790.366 625.09
C 790.315 624.416 790.345 623.761 790.453 623.093 Z"
opacity="1" fill="rgb(184,201,206)" fill-rule="evenodd" />
<path d="
M 799.359 419.819
C 800.443 419.559 801.635 419.574 802.69 419.2
C 804.928 418.408 806.758 416.257 807.859 414.251
C 809.171 414.357 810.519 414.309 811.814 414.56
C 812.361 423.214 811.948 431.999 812.136 440.671
C 810.419 440.949 808.227 441.025 806.514 440.743
C 806.165 436.614 806.228 432.383 806.221 428.237
C 806.219 426.798 806.732 424.495 806.119 423.184
C 804.1 423.349 802.191 423.402 800.176 423.396
C 799.231 422.546 799.426 421.018 799.359 419.819 Z"
opacity="1" fill="rgb(186,202,204)" fill-rule="evenodd" />
<path d="
M 904.709 621.829
C 915.999 621.062 927.523 621.53 938.843 621.495
C 951.783 621.455 964.791 621.006 977.722 621.281
C 977.907 622.61 977.688 623.969 977.806 625.286
C 973.511 625.868 968.83 625.371 964.497 625.361
C 956.331 625.342 948.165 625.385 939.999 625.388
C 936.461 625.389 932.916 625.325 929.378 625.405
C 928.04 625.435 926.069 625.262 924.87 625.822
C 924.479 634.844 924.753 643.967 924.849 652.997
C 924.928 660.392 924.744 667.782 925.244 675.161
C 932.906 675.793 940.805 675.168 948.496 675.147
C 956.092 675.127 963.935 675.671 971.5 674.975
C 971.989 676.193 971.806 677.867 971.777 679.159
C 960.931 679.772 949.865 679.111 938.998 679.125
C 934.55 679.13 929.286 678.446 924.948 679.409
C 925.132 684.07 924.809 688.824 924.811 693.499
C 924.814 707.084 924.675 720.696 925.192 734.262
C 942.79 734.51 960.603 734.787 978.193 734.122
C 978.471 735.121 978.497 737.083 978.223 738.09
C 966.685 738.635 955.055 738.043 943.503 738.122
C 930.711 738.21 917.644 738.902 904.881 738.043
C 904.019 709.906 904.745 681.649 904.669 653.499
C 904.651 646.665 904.609 639.83 904.649 632.996
C 904.671 629.332 905.012 625.466 904.709 621.829 Z"
opacity="1" fill="rgb(184,202,206)" fill-rule="evenodd" />

</svg>